<svg width="200" height="61" viewBox="0 0 200 61" fill="none" xmlns="http://www.w3.org/2000/svg">
<g clip-path="url(#clip0)">
<path d="M29.4054 26.0203C29.6472 25.8194 29.9307 25.7579 30.2574 26.0203C30.3144 26.074 30.3622 26.1383 30.3942 26.2092L35.5524 37.6393C35.7554 38.1483 35.7655 38.7266 35.3725 39.3231C34.9417 39.9138 34.3999 40.0887 33.8587 40.085H24.9899C24.818 40.0833 24.6481 40.0471 24.4904 39.9785C24.3327 39.9111 24.189 39.8148 24.0667 39.6947C23.6857 39.2981 23.5672 38.7948 23.7544 38.269L29.2682 26.2085C29.3009 26.1378 29.3484 26.074 29.4054 26.0203ZM8.06542 51.0547C7.93199 51.2911 7.77213 51.5116 7.58892 51.7119C7.18341 52.1483 6.72566 52.4464 6.25691 52.6223L2.22541 54.0722C1.83469 54.2125 1.47266 54.4225 1.15691 54.692C0.843078 54.9633 0.582845 55.291 0.389657 55.6581C0.211167 56.0051 0.0897784 56.3787 0.0301564 56.7644C-0.0205937 57.1045 -0.00284366 57.3779 0.0576564 57.641C0.118178 57.9056 0.222624 58.1581 0.366657 58.3882C0.511081 58.6169 0.693441 58.8194 0.905907 58.9869C1.34591 59.3373 1.88891 59.5042 2.41041 59.5005L18.6627 59.5087C18.9221 59.508 19.1795 59.4636 19.4242 59.3773C19.6687 59.29 19.8969 59.1622 20.0992 58.9994C20.5066 58.6723 20.7897 58.2155 20.9014 57.7052C21.0162 57.1962 20.9422 56.52 20.6722 55.844C20.527 55.4974 20.3233 55.1784 20.0699 54.9009C19.5114 54.2996 18.7377 53.9678 18.0549 53.5252C17.7309 53.3292 17.497 53.0135 17.4039 52.6466C17.31 52.2789 17.3647 51.889 17.5562 51.5613L18.7297 49.6408C18.8577 49.4299 19.0349 49.2525 19.2307 49.1023C19.4264 48.9521 19.6482 48.8334 19.8852 48.7709C20.1227 48.7079 20.3712 48.7519 20.6182 48.7519H39.2177C39.5402 48.7519 39.8645 48.7914 40.1657 48.9086C40.4694 49.0299 40.7456 49.2109 40.978 49.4409C41.2102 49.6703 41.4075 49.9397 41.5302 50.2423L44.8187 58.3485C44.908 58.5676 45.0602 58.7598 45.231 58.9245C45.5937 59.2733 46.0635 59.4647 46.513 59.4735L65.2822 59.4817C65.6335 59.4817 65.9855 59.425 66.3137 59.2998C66.6434 59.1756 66.9462 58.9893 67.2057 58.751C67.9985 58.0308 68.257 56.9418 68.0472 55.9964C67.9805 55.7 67.8687 55.4156 67.7157 55.153C67.5632 54.8893 67.3707 54.6508 67.1452 54.4458C66.9202 54.2429 66.6665 54.0657 66.3872 53.947L64.006 52.9347C63.5647 52.7488 63.1625 52.4774 62.7845 52.183C62.4057 51.8884 62.0603 51.5532 61.7545 51.1834C61.4485 50.8138 61.1537 50.426 60.9652 49.9857L40.8397 3.01856C40.7087 2.71269 40.4572 2.47179 40.204 2.25563C39.6727 1.80381 39.0122 1.55966 38.3765 1.55267L20.4282 1.57766C20.1447 1.57675 19.8629 1.62026 19.5929 1.7066C19.3232 1.79487 19.0697 1.92655 18.8424 2.09644C18.6159 2.26587 18.4174 2.47304 18.2572 2.70619C18.0965 2.94024 17.9744 3.19848 17.8954 3.47112C17.7227 4.0174 17.7809 4.79133 18.1104 5.55601C18.2854 5.94939 18.5338 6.30584 18.8422 6.60633C19.1494 6.90695 19.5159 7.14411 19.9092 7.31803L22.2377 8.34861C22.4722 8.45232 22.7079 8.55452 22.9184 8.70121C23.1292 8.84747 23.32 9.02061 23.4859 9.21625C23.6514 9.41192 23.8059 9.62283 23.9009 9.86023L25.0414 12.7071C25.2992 13.4692 25.2564 14.3291 24.8362 15.1453L8.06542 51.0547ZM113.672 35.4287C113.886 35.5956 114.069 35.8 114.298 36.1319C114.525 36.466 114.798 36.9273 115.06 37.3091C115.321 37.6907 115.571 37.9914 115.874 38.2295C116.493 38.7138 117.31 38.914 118.066 38.8118C118.451 38.7618 118.826 38.6343 119.163 38.4422C119.499 38.2485 119.81 37.9981 120.037 37.6827L127.005 28.0152C127.449 27.3822 127.625 26.5946 127.552 25.8551C127.515 25.4771 127.411 25.1085 127.247 24.7658C127.082 24.4234 126.859 24.1122 126.588 23.846C125.686 22.9863 124.558 22.7289 123.437 23.0253C123.075 23.1283 122.734 23.2982 122.002 23.7595C121.272 24.2208 120.153 24.973 119.402 25.452C118.65 25.9316 118.268 26.137 117.869 26.3019C117.058 26.6271 116.196 26.821 115.346 26.8415H97.5035L97.4973 10.2578L115.394 10.2511C116.685 10.2416 118.024 10.4467 119.32 10.9498C119.944 11.1902 120.553 11.4778 121.111 11.8457L126.533 15.4149C127.478 16.0639 128.632 16.1699 129.724 15.3032C130.188 14.8917 130.701 14.2472 131.063 13.6989C131.557 12.91 131.633 12.1473 131.369 11.3224C131.28 11.0662 131.149 10.8273 130.994 10.6039L125.982 3.35992C125.729 2.99407 125.427 2.66221 125.075 2.39057C124.341 1.82505 123.457 1.52543 122.601 1.51968L77.843 1.5919C77.4572 1.5924 77.0667 1.55217 76.6977 1.66437C76.3282 1.77607 75.9852 1.97649 75.6887 2.22939C75.3923 2.48279 75.1447 2.78817 74.958 3.13051C74.5842 3.82131 74.4826 4.62689 74.673 5.38883C74.7685 5.76623 74.9331 6.12268 75.1585 6.44015C75.384 6.75677 75.6622 7.04015 75.9925 7.24357L77.843 8.38409C78.0616 8.51675 78.2569 8.68461 78.4207 8.88089C78.7469 9.28002 78.9242 9.77996 78.9225 10.2953L78.9432 50.0254C78.9451 50.4022 78.8786 50.7763 78.747 51.1294C78.4792 51.8037 78.072 52.3149 77.1607 52.8097C76.7295 53.0519 76.1772 53.3168 75.7372 53.5754C75.2967 53.8321 74.9677 54.0825 74.7022 54.3896C74.1525 55.0261 73.9057 55.8735 73.9692 56.6627C74.0332 57.4883 74.4192 58.2557 75.044 58.7995C75.6855 59.3695 76.5217 59.5969 77.3095 59.5722L122.154 59.5779C122.645 59.5779 123.137 59.5257 123.607 59.3858C124.079 59.2462 124.525 59.0328 124.93 58.7535C125.334 58.4764 125.705 58.142 125.992 57.7437L131.36 50.3138C131.952 49.4811 132.098 48.477 131.71 47.4814C131.585 47.1737 131.411 46.8884 131.194 46.6365C130.977 46.3861 130.718 46.1712 130.353 45.9791C129.619 45.5847 128.518 45.3676 127.561 45.6282C127.083 45.7477 126.647 45.9876 126.227 46.248L120.279 49.9399C119.262 50.5722 118.025 50.7538 116.864 50.9857C115.694 51.2223 114.503 51.3412 113.31 51.3406L97.4973 51.3069L97.5035 35.0508H112.958C113.228 35.0511 113.459 35.2642 113.672 35.4287ZM183.273 2.47204C183.067 2.6121 182.822 2.68206 182.574 2.67145C182.451 2.66571 182.33 2.63972 182.1 2.55925C181.87 2.47903 181.533 2.34434 181.194 2.21439C180.854 2.08445 180.51 1.95925 178.645 1.59765C176.778 1.23605 173.388 0.639293 169.992 0.67153C166.596 0.703767 163.193 1.36599 159.988 2.5545C156.784 3.74251 153.778 5.45605 151.248 7.42199C148.719 9.38743 146.666 11.605 144.974 14.0672C143.281 16.53 141.948 19.2374 141.038 22.0794C140.129 24.9215 139.644 27.8985 139.581 30.7993C139.518 33.7006 139.877 36.5245 140.66 39.2276C141.442 41.9307 142.649 44.5119 144.235 46.8265C145.822 49.141 147.788 51.1859 149.515 52.6723C151.24 54.1562 152.726 55.0811 154.263 55.899C155.799 56.7191 157.385 57.4371 159.017 58.0363C160.648 58.6351 162.324 59.1194 164.698 59.522C167.073 59.9246 170.147 60.2462 173.218 60.2024C176.294 60.1597 179.355 59.7527 182.335 58.9899C185.31 58.228 188.193 57.1132 190.454 56.0554C192.717 54.9976 194.357 53.9935 195.558 53.1983C196.759 52.4027 197.52 51.8144 197.96 51.4451C198.402 51.0755 198.523 50.9253 198.622 50.7603C198.721 50.5954 198.798 50.4182 198.849 50.2346C198.899 50.0511 198.922 49.8587 198.942 49.5643C198.963 49.268 198.979 48.8716 198.907 48.4915C198.836 48.0995 198.661 47.7336 198.401 47.4315C198.125 47.1081 197.735 46.8237 197.48 46.6051C196.969 46.1605 196.915 45.9101 196.8 45.5485C196.753 45.3653 196.738 45.1749 196.737 44.985L196.712 37.3796C196.704 36.5118 197.02 35.6722 197.597 35.0238L199.263 33.1496C199.792 32.5464 200.034 31.7552 199.996 31.0122C199.956 30.232 199.617 29.4972 199.049 28.9601C198.458 28.3986 197.682 28.1264 196.946 28.1294L177.372 28.1319C177.045 28.1319 176.721 28.2072 176.416 28.3271C176.112 28.4481 175.831 28.6215 175.587 28.8394C175.343 29.0579 175.14 29.3172 174.985 29.6058C174.676 30.1884 174.582 30.8616 174.721 31.5065C174.79 31.8254 174.916 32.1323 175.091 32.4077C175.265 32.6855 175.489 32.9295 175.75 33.1279C176.481 33.8376 177.397 34.3341 177.902 34.7619C178.408 35.192 178.609 35.4232 178.772 35.6826C179.108 36.2106 179.256 36.8238 179.245 37.4211L179.242 47.5179C179.242 47.9438 179.179 48.3696 179.05 48.7764C178.92 49.1827 178.726 49.5659 178.477 49.9119C178.226 50.2588 177.924 50.5656 177.581 50.8218C177.239 51.0785 176.858 51.2874 175.968 51.5193C175.078 51.7529 173.678 52.0073 172.275 52.0051C170.872 52.0031 169.466 51.7422 168.14 51.2601C166.812 50.7786 165.576 50.0743 164.486 49.1775C163.401 48.2844 162.475 47.1988 161.779 46.1305C161.083 45.0599 160.615 44.0014 160.2 42.9273C159.784 41.8553 159.423 40.7629 159.118 39.6544C158.813 38.5481 158.568 37.4231 158.37 35.5469C158.172 33.6726 158.021 31.0462 158.24 28.4471C158.459 25.8476 159.046 23.2742 159.955 20.818C160.865 18.3615 162.094 16.0224 163.249 14.3601C164.402 12.6978 165.48 11.7122 166.699 10.9555C169.114 9.44616 172.139 8.86065 174.956 9.4569C176.352 9.74903 177.682 10.324 179.082 11.15C180.481 11.9754 181.947 13.0517 183.382 14.1647C184.816 15.2777 186.218 16.4275 187.575 17.6275C187.868 17.928 188.211 18.1764 188.587 18.3622C189.348 18.7336 190.212 18.833 191.037 18.6439C191.862 18.4538 192.596 17.9851 193.115 17.3169C193.634 16.6485 193.907 15.8222 193.89 14.9764C193.81 13.5412 193.528 12.1244 193.051 10.7684C192.812 10.0916 192.554 9.41642 192.195 8.79517L187.745 1.09535C187.609 0.858545 187.43 0.648947 187.217 0.47711C186.559 -0.0321795 185.725 -0.150131 184.905 0.245456C184.658 0.367655 184.434 0.534586 184.24 0.81747C184.046 1.1001 183.883 1.49944 183.774 1.75408C183.666 2.00923 183.612 2.12093 183.539 2.21939C183.465 2.3178 183.375 2.40319 183.273 2.47204Z" fill="#FA110D"/>
</g>
<defs>
<clipPath id="clip0">
<rect width="200" height="60.2151" fill="white"/>
</clipPath>
</defs>
</svg>
