<svg width="200" height="40" viewBox="0 0 200 40" fill="none" xmlns="http://www.w3.org/2000/svg">
<path d="M191.27 28.1202H191.4C191.58 28.1202 191.69 28.1102 191.74 28.1002C191.78 28.0902 191.82 28.0602 191.84 28.0302C191.86 28.0002 191.88 27.9502 191.88 27.9102C191.88 27.8702 191.87 27.8302 191.84 27.7902C191.82 27.7602 191.78 27.7302 191.73 27.7202C191.68 27.7102 191.57 27.7002 191.39 27.7002H191.26V28.1202H191.27ZM190.95 29.0202V27.4402H191.26C191.56 27.4402 191.72 27.4402 191.76 27.4402C191.86 27.4502 191.94 27.4702 192 27.5002C192.06 27.5302 192.11 27.5802 192.14 27.6502C192.18 27.7202 192.2 27.7902 192.2 27.8802C192.2 27.9902 192.16 28.0902 192.09 28.1702C192.02 28.2502 191.91 28.3002 191.78 28.3202C191.83 28.3402 191.86 28.3602 191.89 28.3802C191.92 28.4002 191.95 28.4402 191.99 28.5002C192 28.5202 192.04 28.5802 192.1 28.6902L192.28 29.0102H191.89L191.76 28.7502C191.67 28.5802 191.6 28.4702 191.54 28.4202C191.48 28.3802 191.41 28.3502 191.32 28.3502H191.24V29.0002H190.95V29.0202ZM191.61 27.0202C191.41 27.0202 191.22 27.0702 191.03 27.1702C190.85 27.2702 190.7 27.4202 190.59 27.6102C190.48 27.8002 190.43 28.0002 190.43 28.2102C190.43 28.4202 190.48 28.6202 190.59 28.8102C190.69 29.0002 190.84 29.1502 191.02 29.2502C191.21 29.3602 191.4 29.4102 191.6 29.4102C191.8 29.4102 192 29.3602 192.18 29.2502C192.37 29.1402 192.51 29.0002 192.61 28.8102C192.71 28.6202 192.77 28.4202 192.77 28.2102C192.77 28.0002 192.72 27.8002 192.61 27.6102C192.5 27.4202 192.36 27.2702 192.17 27.1702C192.01 27.0802 191.82 27.0202 191.61 27.0202ZM191.61 26.7302C191.86 26.7302 192.1 26.7902 192.33 26.9202C192.56 27.0502 192.74 27.2302 192.87 27.4702C193 27.7102 193.07 27.9602 193.07 28.2202C193.07 28.4802 193.01 28.7302 192.88 28.9602C192.75 29.2002 192.57 29.3802 192.34 29.5102C192.11 29.6402 191.87 29.7102 191.61 29.7102C191.35 29.7102 191.11 29.6502 190.88 29.5102C190.65 29.3802 190.47 29.2002 190.34 28.9602C190.21 28.7202 190.15 28.4802 190.15 28.2202C190.15 27.9602 190.22 27.7102 190.35 27.4702C190.48 27.2302 190.66 27.0502 190.89 26.9202C191.12 26.7902 191.36 26.7302 191.61 26.7302Z" fill="#680637"/>
<path d="M9.25 36.1303L96.55 36.9903L183.85 36.1303L96.55 35.2803L9.25 36.1303Z" fill="#680637"/>
<path d="M6.75977 29.35V17.21H19.2798C20.4998 17.21 21.3898 17.41 21.9598 17.81C22.5198 18.21 22.8098 18.84 22.8098 19.69V22.29C22.8098 23.15 22.5298 23.78 21.9598 24.18C21.3998 24.58 20.4998 24.78 19.2898 24.78H9.90977V29.33H6.75977V29.35ZM18.2898 19.17H9.90977V22.8H18.2898C18.8198 22.8 19.1798 22.73 19.3598 22.59C19.5398 22.45 19.6298 22.18 19.6298 21.78V20.16C19.6298 19.78 19.5398 19.51 19.3698 19.38C19.1798 19.24 18.8198 19.17 18.2898 19.17Z" fill="#680637"/>
<path d="M24.23 29.35V17.21H36.75C37.97 17.21 38.86 17.41 39.43 17.81C39.99 18.21 40.28 18.84 40.28 19.69V22.29C40.28 23.15 40 23.78 39.43 24.18C38.87 24.58 37.97 24.78 36.76 24.78H34.84L41.78 29.33H37.6L31.43 24.78H27.4V29.33H24.23V29.35ZM35.76 19.17H27.38V22.82H35.76C36.3 22.82 36.66 22.75 36.83 22.62C37 22.49 37.09 22.23 37.09 21.84V20.14C37.09 19.77 37 19.51 36.82 19.37C36.65 19.24 36.29 19.17 35.76 19.17Z" fill="#680637"/>
<path d="M42.2695 20.19C42.2695 19.08 42.5395 18.3 43.0895 17.87C43.6395 17.43 44.6495 17.22 46.1195 17.22H56.6395C58.0895 17.22 59.0895 17.44 59.6395 17.87C60.1895 18.3 60.4595 19.08 60.4595 20.2V26.37C60.4595 27.51 60.1895 28.29 59.6395 28.72C59.0895 29.15 58.0895 29.36 56.6395 29.36H46.1295C44.6595 29.36 43.6495 29.14 43.0995 28.71C42.5495 28.28 42.2795 27.5 42.2795 26.37V20.19H42.2695ZM45.3895 27.29H57.3795V19.25H45.3895V27.29Z" fill="#680637"/>
<path d="M62.3999 29.35V17.21H77.4499V19.24H65.5499V22.62H72.3599V24.63H65.5499V29.35H62.3999Z" fill="#680637"/>
<path d="M82.0699 17.21H78.9199V29.35H82.0699V17.21Z" fill="#680637"/>
<path d="M125.86 19.24H115.94V27.2799H125.86V24.32L129.01 24.8V26.3499C129.01 27.49 128.74 28.2699 128.19 28.6999C127.64 29.1299 126.64 29.3399 125.17 29.3399H116.67C115.21 29.3399 114.2 29.1199 113.65 28.6899C113.1 28.2599 112.82 27.4799 112.82 26.3399V20.17C112.82 19.05 113.09 18.27 113.65 17.84C114.2 17.41 115.21 17.2 116.68 17.2H125.18C126.65 17.2 127.65 17.41 128.2 17.84C128.75 18.27 129.02 19.04 129.02 20.17V21.47L125.87 21.87V19.24H125.86Z" fill="#680637"/>
<path d="M131.24 20.1897C131.24 19.0797 131.51 18.2997 132.06 17.8697C132.61 17.4297 133.62 17.2197 135.09 17.2197H145.61C147.06 17.2197 148.06 17.4397 148.61 17.8697C149.16 18.2997 149.43 19.0797 149.43 20.1997V26.3697C149.43 27.5097 149.16 28.2897 148.61 28.7197C148.06 29.1497 147.06 29.3597 145.61 29.3597H135.1C133.63 29.3597 132.62 29.1397 132.07 28.7097C131.52 28.2797 131.25 27.4997 131.25 26.3697V20.1897H131.24ZM134.36 27.2897H146.35V19.2497H134.36V27.2897Z" fill="#680637"/>
<path d="M151.71 20.1897C151.71 19.0797 151.98 18.2997 152.53 17.8697C153.08 17.4297 154.09 17.2197 155.56 17.2197H166.08C167.53 17.2197 168.53 17.4397 169.08 17.8697C169.63 18.2997 169.9 19.0797 169.9 20.1997V26.3697C169.9 27.5097 169.63 28.2897 169.08 28.7197C168.53 29.1497 167.53 29.3597 166.08 29.3597H155.56C154.09 29.3597 153.08 29.1397 152.53 28.7097C151.98 28.2797 151.71 27.4997 151.71 26.3697V20.1897ZM154.82 27.2897H166.81V19.2497H154.82V27.2897Z" fill="#680637"/>
<path d="M171.84 29.35V17.21H174.98V22.2L184.04 17.21H188.14L177.15 23.03L189.34 29.35H184.71L174.98 24.09V29.35H171.84Z" fill="#680637"/>
<path d="M81.8198 11.3499C81.8198 11.3499 82.6898 8.35994 84.1398 7.56994C86.4798 6.29994 88.9598 6.78994 91.5598 9.00994C90.6898 6.48994 91.4798 4.56994 93.9098 3.25994C95.7198 2.27994 97.8198 2.02994 100.23 2.48994C102.63 2.94994 104.53 3.96994 105.93 5.56994C106.6 6.32994 106.88 7.07994 106.77 7.81994C106.66 8.53994 106.17 9.13994 105.3 9.60994C103.96 10.3399 102.21 10.5799 100.06 10.3399C97.8898 10.0899 98.0798 9.85994 100.1 10.0699C102.12 10.2699 103.78 10.0199 105.08 9.31994C105.77 8.94994 106.19 8.44994 106.33 7.82994C106.47 7.20994 106.3 6.62994 105.82 6.08994C104.73 4.84994 102.95 4.12994 100.49 3.92994C98.0098 3.72994 95.8398 4.13994 93.9698 5.14994C92.2298 6.08994 91.5198 7.42994 91.8398 9.17994L92.5698 9.82994C92.7698 10.0099 92.9598 10.1999 93.1298 10.3899C93.6698 11.0099 93.8098 11.3899 93.5498 11.5299C93.3598 11.6299 93.0398 11.4299 92.5898 10.9099C92.2698 10.5399 91.9398 10.0099 91.5998 9.29994C90.5198 8.63994 89.3498 8.28994 88.0798 8.24994C86.7998 8.20994 85.6198 8.47994 84.5298 9.06994C83.4798 9.63994 82.9598 10.4499 82.4498 11.8499C82.1798 13.8899 85.4698 16.2299 88.7498 16.0799C92.5098 15.9099 91.3798 16.4099 86.4598 16.4599C84.2198 16.4899 81.8598 14.0399 81.7798 11.6399L81.8198 11.3499Z" fill="#680637"/>
<path d="M107.36 14.11C108.88 14.74 110.31 14.97 111.66 14.78C113.74 14.49 115.02 13.42 115.49 11.57C115.97 9.70002 115.41 7.97002 113.82 6.37002C112.94 5.48002 111.27 4.22003 110.03 3.75003C108.8 3.28003 107.66 3.11003 106.6 3.26003C105.96 3.35003 105.34 3.62003 104.71 4.07003C104.09 4.52003 104.49 4.41003 104.69 4.61003C104.84 4.76002 105.23 5.78002 105.31 5.71002C105.85 4.84002 106.62 4.34003 107.61 4.20003C108.54 4.07003 109.53 4.22003 110.6 4.64003C111.66 5.06003 112.6 5.67002 113.4 6.48002C114.91 8.00002 115.42 9.62002 114.92 11.34C114.43 13.06 113.17 14.06 111.15 14.33C110.07 14.48 108.88 14.3 107.56 13.79C106.24 13.27 105.81 13.46 107.36 14.11Z" fill="#680637"/>
<path d="M105.98 25.5897C106.31 18.6097 106.45 17.5197 106.48 16.3097C106.5 15.0997 106.43 14.3497 106.27 14.0497C106.09 13.7097 105.86 13.6397 105.57 13.7797C100.72 16.0197 99.21 14.8997 99.21 14.8997C101.79 14.6897 104.89 13.9297 105.57 13.5597C105.89 13.3797 106.23 13.3597 106.57 13.4797C106.91 13.6197 107.18 13.8697 107.38 14.2497C107.6 14.6597 107.72 15.1097 107.74 15.5997C107.76 16.0997 107.71 17.5697 107.59 20.0297C107.45 23.0397 107.39 22.6197 107.36 24.7897C107.1 24.8497 106.89 24.9297 106.71 25.0297C106.41 25.1797 106.18 25.3697 105.98 25.5897Z" fill="#680637"/>
<path d="M94.2698 25.46C93.9998 25.6 93.8198 25.72 93.7698 25.84C93.4398 26.5 93.7498 26.95 94.7098 27.18C96.3598 27.59 98.7098 27.44 101.77 26.73C104.83 26.02 106.59 25.21 107.04 24.3C107.07 24.24 107.09 24.19 107.11 24.14C107.22 24.1 107.34 24.07 107.44 24.04C107.41 24.14 107.37 24.23 107.32 24.34C106.86 25.26 105.58 26.25 103.47 27.32C100.48 28.85 97.9298 29.34 95.7898 28.81C94.8298 28.57 94.1098 28.16 93.6298 27.57C93.1698 26.97 93.0798 26.37 93.3798 25.77C93.4898 25.55 93.9498 25.29 94.6398 25.01L94.2698 25.46ZM96.2498 15.25C96.2498 15.25 99.8398 13.11 100.72 11.59C101.6 10.07 99.7198 14.58 98.2498 14.87C96.7798 15.16 96.2498 15.25 96.2498 15.25Z" fill="#680637"/>
<path d="M99.4499 14.6799C99.4499 14.6799 101.81 13.7099 102.68 12.1899C102.68 12.1899 101.54 14.6499 100.07 14.9399C98.6099 15.2199 99.4499 14.6799 99.4499 14.6799Z" fill="#680637"/>
<path d="M105.4 14.8699C105.4 14.8699 105.09 23.2299 104.12 24.3099C103.15 25.3899 105.46 24.7799 105.53 22.1099C105.61 19.4499 105.4 14.8699 105.4 14.8699Z" fill="#680637"/>
</svg>
