<svg width="200" height="36" viewBox="0 0 200 36" fill="none" xmlns="http://www.w3.org/2000/svg">
<g clip-path="url(#clip0)">
<path d="M199.9 26.6138V8.92873C199.9 8.90271 199.899 8.69353 199.898 8.60466C199.773 -0.0535207 191.277 0.0014735 191.277 0.0014735H165.383C156.639 0.0014735 156.683 7.2902 156.683 8.93217C156.683 9.84645 156.683 26.3497 156.688 26.6158C156.691 26.8048 156.701 26.9845 156.713 27.1638C157.015 34.014 162.828 35.2092 164.762 35.4149C164.768 35.4154 164.773 35.4159 164.779 35.4169C164.799 35.4189 164.82 35.4213 164.839 35.4232C165.145 35.4561 165.328 35.4611 165.328 35.4611H191.26C200.003 35.4586 199.9 26.6138 199.9 26.6138ZM195.577 26.6138C195.577 31.0851 191.255 31.037 191.255 31.037H165.322C161.001 31.037 161.001 26.6138 161.001 26.6138V8.93069C161.001 4.45946 165.322 4.51102 165.322 4.51102H191.255C191.272 4.51102 191.286 4.51395 191.305 4.51445C191.678 4.54391 194.021 4.80514 195.068 6.75351C195.376 7.39724 195.498 8.03213 195.544 8.45048C195.557 8.60613 195.576 8.76031 195.576 8.93069L195.577 26.6138Z" fill="#2E2C34"/>
<path d="M5.41469 8.9302V26.5534C5.41469 30.9623 9.73852 30.9623 9.73852 30.9623H44.3086V35.4567H9.76969C1.09181 35.4567 1.0918 28.3422 1.0918 26.6649V8.9302V8.82021C1.0918 7.13797 1.09181 0.000976562 9.76969 0.000976562H44.3091V4.51249H9.73901C9.73901 4.51249 5.41469 4.51249 5.41469 8.9302Z" fill="#2E2C34"/>
<path d="M144.366 24.6311V24.3675C144.366 19.9591 140.042 19.99 140.042 19.99H130.535C130.535 19.99 120.999 19.9845 113.031 19.9845C105.366 19.9845 104.497 14.4443 104.4 11.9893L104.387 11.6313V8.93069C104.387 7.24992 104.352 0.00146484 113.031 0.00146484H146.956V4.511H113.031C113.031 4.511 108.708 4.511 108.708 8.93069V11.0799C108.708 15.4888 113.031 15.5674 113.031 15.5674H140.042C148.721 15.5674 148.684 22.5943 148.684 24.2726V25.3912V26.6178V26.7278C148.684 28.405 148.684 35.4572 140.005 35.4572H105.035V31.0359H140.042C140.042 31.0359 144.366 31.0359 144.366 26.6178V25.4226V24.6311Z" fill="#2E2C34"/>
<path d="M91.8549 17.9994C91.8549 23.4222 85.5692 31.037 78.2373 31.037H61.6004C57.2766 31.037 57.2766 26.6138 57.2766 26.6138V8.9307C57.2766 4.35683 61.6004 4.51101 61.6004 4.51101H87.5325C91.8914 4.51101 91.8563 8.9307 91.8563 8.9307V12.03L91.8549 17.9994ZM96.1745 35.4567V8.9307C96.1745 0.0692329 87.4553 0 87.4553 0H61.6024C52.8809 0 52.9585 7.25189 52.9585 8.9307C52.9585 9.94318 52.972 23.3942 52.9686 26.4429C52.9585 35.8234 61.6039 35.4562 61.6039 35.4562H79.9465C79.9465 35.4562 88.1619 36.1431 91.6598 26.9576C91.8319 26.5524 91.8592 26.4779 91.8592 26.4779V35.4542L96.1745 35.4567Z" fill="#2E2C34"/>
</g>
<defs>
<clipPath id="clip0">
<rect width="200" height="35.3535" fill="white"/>
</clipPath>
</defs>
</svg>
