<svg width="78" height="78" viewBox="0 0 78 78" fill="none" xmlns="http://www.w3.org/2000/svg">
<g clip-path="url(#clip0)">
<path d="M2.42578 52.5652C7.93621 67.4163 22.2314 78 39 78C55.7686 78 70.0638 67.4163 75.5742 52.5652L39 49.174L2.42578 52.5652Z" fill="#FFDA44"/>
<path d="M39 0C22.2314 0 7.93621 10.5836 2.42578 25.4349L39 28.826L75.5742 25.4347C70.0638 10.5836 55.7686 0 39 0Z" fill="black"/>
<path d="M2.42577 25.4348C0.858152 29.6598 0 34.2295 0 39C0 43.7704 0.858152 48.3402 2.42577 52.5651H75.5744C77.142 48.3402 78 43.7704 78 39C78 34.2295 77.142 29.6598 75.5742 25.4348H2.42577Z" fill="#DB332D"/>
</g>
<defs>
<clipPath id="clip0">
<rect width="78" height="78" fill="white"/>
</clipPath>
</defs>
</svg>
