<svg width="84" height="84" viewBox="0 0 84 84" fill="none" xmlns="http://www.w3.org/2000/svg">
<g clip-path="url(#clip0)">
<path d="M43.7941 5.59741L48.2463 10.6001L54.274 7.68186C55.567 7.05583 57.1166 7.69774 57.5884 9.05476L59.7872 15.3804L66.4728 14.9912C67.9068 14.9077 69.093 16.0937 69.0093 17.5278L68.6201 24.2133L74.9458 26.4122C76.3026 26.8839 76.9445 28.4334 76.3187 29.7265L73.4005 35.7542L78.4031 40.2064C79.4762 41.1615 79.4762 42.8388 78.4031 43.7937L73.4005 48.2459L76.3187 54.2736C76.9447 55.5666 76.3028 57.1163 74.9458 57.5878L68.6201 59.7867L69.0093 66.4722C69.0928 67.9063 67.9068 69.0924 66.4728 69.0088L59.7872 68.6195L57.5884 74.9452C57.1166 76.3021 55.5671 76.944 54.274 76.3181L48.2463 73.3999L43.7941 78.4026C42.839 79.4756 41.1617 79.4756 40.2068 78.4026L35.7546 73.3999L29.7269 76.3181C28.4339 76.9441 26.8843 76.3022 26.4125 74.9452L24.2137 68.6195L17.5281 69.0088C16.0941 69.0923 14.9079 67.9063 14.9916 66.4722L15.3808 59.7867L9.05512 57.5878C7.69828 57.1161 7.05636 55.5666 7.68222 54.2736L10.6004 48.2459L5.59777 43.7937C4.5247 42.8386 4.5247 41.1613 5.59777 40.2064L10.6004 35.7542L7.68222 29.7265C7.05619 28.4336 7.69811 26.8839 9.05512 26.4122L15.3808 24.2133L14.9916 17.5278C14.9081 16.0937 16.0941 14.9075 17.5281 14.9912L24.2137 15.3804L26.4125 9.05476C26.8843 7.69791 28.4338 7.056 29.7269 7.68186L35.7546 10.6001L40.2068 5.59741C41.1617 4.52434 42.839 4.52434 43.7941 5.59741Z" fill="#FFCF5D"/>
<path d="M78.403 40.2063L73.4004 35.7541L76.3186 29.7264C76.9446 28.4334 76.3027 26.8837 74.9458 26.412L68.6201 24.2131L69.0094 17.5276C69.0929 16.0935 67.9069 14.9076 66.4728 14.9911L59.7873 15.3803L57.5884 9.05461C57.1167 7.69776 55.5672 7.05584 54.274 7.68187L52.1075 8.73077L54.9976 17.0453C55.7421 19.187 57.8191 20.5751 60.0817 20.4423L63.773 20.2275L63.558 23.9187C63.4262 26.1825 64.8133 28.2583 66.955 29.0028L70.4477 30.2169L68.8365 33.5449C67.8484 35.5858 68.3355 38.0344 70.0294 39.5419L72.7914 42L70.0294 44.4582C68.3355 45.9656 67.8484 48.4143 68.8365 50.4551L70.4477 53.7832L66.955 54.9972C64.8133 55.7417 63.4262 57.8177 63.558 60.0813L63.773 63.7726L60.0817 63.5578C57.8173 63.4281 55.7421 64.8132 54.9976 66.9549L53.7836 70.4473L50.4555 68.8362C48.4145 67.8482 45.9658 68.3353 44.4584 70.0291L42.0004 72.7912L39.5423 70.029C38.0348 68.3351 35.5858 67.8478 33.5452 68.8361L30.2171 70.4471L29.0031 66.9548C28.2586 64.813 26.1831 63.4281 23.919 63.5576L15.1314 64.0692L14.9915 66.4721C14.908 67.9062 16.0939 69.0923 17.528 69.0088L24.2135 68.6196L26.4124 74.9453C26.8841 76.3023 28.4337 76.944 29.7268 76.3182L35.7545 73.4001L40.2067 78.4028C41.1618 79.4758 42.8391 79.4758 43.794 78.4028L48.2462 73.4001L54.2739 76.3182C55.5668 76.9442 57.1165 76.3023 57.5882 74.9453L59.7871 68.6196L66.4726 69.0088C67.9067 69.0923 69.0929 67.9063 69.0092 66.4721L68.62 59.7865L74.9457 57.5877C76.3025 57.116 76.9444 55.5664 76.3184 54.2733L73.4002 48.2456L78.4028 43.7934C79.4761 42.8387 79.4761 41.1614 78.403 40.2063Z" fill="#FFB545"/>
<path d="M42 66.1235C55.3231 66.1235 66.1235 55.3231 66.1235 42C66.1235 28.6769 55.3231 17.8765 42 17.8765C28.6769 17.8765 17.8765 28.6769 17.8765 42C17.8765 55.3231 28.6769 66.1235 42 66.1235Z" fill="#FFB545"/>
<path d="M31.7986 37.0143C31.7986 37.7146 31.2312 38.2818 30.531 38.2818H27.1512C26.4513 38.2818 25.8838 37.7146 25.8838 37.0143C25.8838 36.3141 26.4512 35.7469 27.1512 35.7469H27.5738V32.295C27.1279 32.4515 26.6117 32.3523 26.2549 31.9956C25.7601 31.5006 25.7601 30.6983 26.2549 30.2032L27.9451 28.5134C28.3075 28.1507 28.8529 28.0427 29.3261 28.2386C29.7997 28.4349 30.1085 28.8971 30.1085 29.4096V35.7469H30.5308C31.2312 35.7469 31.7986 36.3141 31.7986 37.0143Z" fill="#DB332D"/>
<path d="M40.8502 31.9443V34.4792C40.8502 36.5757 39.1447 38.2815 37.0477 38.2815C34.9511 38.2815 33.2456 36.5757 33.2456 34.4792V31.9443C33.2456 29.8477 34.9511 28.142 37.0477 28.142C39.1445 28.1419 40.8502 29.8474 40.8502 31.9443ZM38.3153 31.9443C38.3153 31.2453 37.7468 30.6769 37.0477 30.6769C36.349 30.6769 35.7805 31.2453 35.7805 31.9443V34.4792C35.7805 35.1782 36.349 35.7466 37.0477 35.7466C37.7468 35.7466 38.3153 35.1782 38.3153 34.4792V31.9443Z" fill="#DB332D"/>
<path d="M49.9054 31.9443V34.4792C49.9054 36.5757 48.1999 38.2815 46.1029 38.2815C44.0063 38.2815 42.3008 36.5757 42.3008 34.4792V31.9443C42.3008 29.8477 44.0063 28.142 46.1029 28.142C48.1999 28.1419 49.9054 29.8474 49.9054 31.9443ZM47.3705 31.9443C47.3705 31.2453 46.802 30.6769 46.1029 30.6769C45.4042 30.6769 44.8356 31.2453 44.8356 31.9443V34.4792C44.8356 35.1782 45.4042 35.7466 46.1029 35.7466C46.802 35.7466 47.3705 35.1782 47.3705 34.4792V31.9443Z" fill="#DB332D"/>
<path d="M57.957 30.0235L53.7326 37.6274C53.5009 38.0442 53.0687 38.2793 52.6234 38.2793C52.4153 38.2793 52.2042 38.2283 52.009 38.1201C51.3972 37.7801 51.1768 37.0085 51.5165 36.3967L55.741 28.7924C56.0809 28.1804 56.8523 27.96 57.4645 28.2999C58.0765 28.64 58.2967 29.4115 57.957 30.0235ZM51.357 29.4078C51.357 28.7076 51.9242 28.1404 52.6244 28.1404C53.3243 28.1404 53.892 28.7076 53.892 29.4078C53.892 30.1078 53.3243 30.6752 52.6244 30.6752C51.9244 30.6752 51.357 30.1077 51.357 29.4078ZM55.5818 37.0122C55.5818 36.3123 56.1492 35.745 56.8494 35.745C57.5493 35.745 58.1169 36.3123 58.1169 37.0122C58.1169 37.7125 57.5493 38.2797 56.8494 38.2797C56.1492 38.2797 55.5818 37.7123 55.5818 37.0122Z" fill="#DB332D"/>
<path d="M81.4648 57.2113H2.53521C1.1351 57.2113 0 56.0762 0 54.676V44.5352C0 43.1351 1.1351 42 2.53521 42H81.4648C82.8649 42 84 43.1351 84 44.5352V54.676C84 56.0762 82.8649 57.2113 81.4648 57.2113Z" fill="#DB332D"/>
<path d="M11.7212 49.6055C11.7212 50.96 11.1937 52.2328 10.2361 53.1904C9.27844 54.1481 8.00543 54.6754 6.65146 54.6754C3.85596 54.6754 1.58154 52.4011 1.58154 49.6055C1.58154 46.8101 3.85596 44.5359 6.65146 44.5359H7.58154C8.28176 44.5359 8.84914 45.1031 8.84914 45.8032C8.84914 46.5036 8.28193 47.0708 7.58154 47.0708H6.65146C5.25354 47.0708 4.11658 48.2081 4.11658 49.6055C4.11658 51.0034 5.25371 52.1405 6.65146 52.1405C7.32836 52.1405 7.96486 51.8767 8.44402 51.398C8.60289 51.2388 8.73844 51.0627 8.84796 50.8731H8.25793C7.55788 50.8731 6.99033 50.3059 6.99033 49.6055C6.99033 48.9054 7.55771 48.3382 8.25793 48.3382H10.4539C11.1542 48.3382 11.7212 48.9056 11.7212 49.6055Z" fill="#FFCF5D"/>
<path d="M21.3505 45.8032V50.3914C21.3505 52.7539 19.4174 54.6754 17.0413 54.6754C14.6648 54.6754 12.7319 52.7539 12.7319 50.3914V45.8032C12.7319 45.1031 13.2993 44.5359 13.9994 44.5359C14.6993 44.5359 15.267 45.1031 15.267 45.8032V50.3914C15.267 51.3558 16.0629 52.1405 17.0415 52.1405C18.0199 52.1405 18.8159 51.3558 18.8159 50.3914V45.8032C18.8159 45.1031 19.3833 44.5359 20.0835 44.5359C20.7829 44.5359 21.3505 45.1033 21.3505 45.8032Z" fill="#FFCF5D"/>
<path d="M29.3816 54.5946C29.2349 54.6497 29.0846 54.6756 28.9368 54.6756C28.4236 54.6756 27.9408 54.3619 27.7501 53.853L27.5831 53.408H24.5868L24.42 53.853C24.1739 54.5084 23.4438 54.8399 22.788 54.5946C22.1329 54.349 21.8005 53.6186 22.0464 52.963L24.8982 45.3582C25.0836 44.8636 25.5566 44.5361 26.0848 44.5361C26.613 44.5361 27.0859 44.8636 27.2715 45.3582L30.1231 52.963C30.3688 53.6184 30.0369 54.3489 29.3816 54.5946ZM26.6321 50.8731L26.0846 49.4128L25.537 50.8731H26.6321Z" fill="#FFCF5D"/>
<path d="M38.794 52.5157C39.2866 53.0126 39.2833 53.8153 38.7864 54.3081C38.5391 54.553 38.2164 54.6756 37.894 54.6756C37.5678 54.6756 37.2416 54.5507 36.994 54.3005L34.852 52.1407H34.1762V53.4081C34.1762 54.1084 33.6084 54.6756 32.9086 54.6756C32.2087 54.6756 31.6411 54.1084 31.6411 53.4081V45.8033C31.6411 45.1033 32.2085 44.5361 32.9086 44.5361H35.3804C37.4652 44.5361 39.1614 46.2419 39.1614 48.3384C39.1614 49.5752 38.5707 50.6757 37.6582 51.3705L38.794 52.5157ZM36.6265 48.3382C36.6265 47.6392 36.0674 47.0708 35.3806 47.0708H34.1763V49.6055H35.3806C36.0674 49.6055 36.6265 49.0371 36.6265 48.3382Z" fill="#FFCF5D"/>
<path d="M48.0125 54.5946C47.8658 54.6497 47.7155 54.6756 47.5676 54.6756C47.0545 54.6756 46.5716 54.3619 46.381 53.853L46.214 53.408H43.2177L43.0509 53.853C42.8048 54.5084 42.0747 54.8399 41.4189 54.5946C40.7638 54.349 40.4313 53.6186 40.6773 52.963L43.529 45.3582C43.7144 44.8636 44.1875 44.5361 44.7157 44.5361C45.2438 44.5361 45.7167 44.8636 45.9023 45.3582L48.7539 52.963C48.9997 53.6184 48.6677 54.3489 48.0125 54.5946ZM45.2629 50.8731L44.7155 49.4128L44.1679 50.8731H45.2629Z" fill="#FFCF5D"/>
<path d="M58.384 45.8032V53.408C58.384 53.9559 58.0317 54.4422 57.5107 54.6125C57.3807 54.6549 57.248 54.6756 57.1164 54.6756C56.7202 54.6756 56.3375 54.4895 56.0942 54.1577L52.807 49.6753V53.4083C52.807 54.1085 52.2393 54.6757 51.5394 54.6757C50.8395 54.6757 50.272 54.1085 50.272 53.4083V45.8035C50.272 45.2557 50.624 44.7695 51.1451 44.5991C51.666 44.4284 52.2373 44.6123 52.5614 45.0539L55.8488 49.5363V45.8032C55.8488 45.1031 56.4161 44.5359 57.116 44.5359C57.8162 44.5359 58.3838 45.1033 58.384 45.8032Z" fill="#FFCF5D"/>
<path d="M67.3869 45.8032C67.3869 46.5036 66.8196 47.0708 66.1195 47.0708H64.5139V53.408C64.5139 54.1082 63.9465 54.6754 63.2464 54.6754C62.5466 54.6754 61.979 54.1082 61.979 53.408V47.0708H60.3736C59.6735 47.0708 59.106 46.5036 59.106 45.8032C59.106 45.1031 59.6733 44.5359 60.3736 44.5359H66.1193C66.8194 44.5359 67.3869 45.1031 67.3869 45.8032Z" fill="#FFCF5D"/>
<path d="M74.553 53.408C74.553 54.1082 73.9858 54.6754 73.2856 54.6754H69.3988C68.6989 54.6754 68.1313 54.1082 68.1313 53.408V45.8032C68.1313 45.1031 68.6987 44.5359 69.3988 44.5359H73.2856C73.9856 44.5359 74.553 45.1031 74.553 45.8032C74.553 46.5036 73.9858 47.0708 73.2856 47.0708H70.6662V48.3382H72.2717C72.9717 48.3382 73.5389 48.9054 73.5389 49.6055C73.5389 50.3059 72.9717 50.8731 72.2717 50.8731H70.6662V52.1405H73.2856C73.9858 52.1405 74.553 52.7077 74.553 53.408Z" fill="#FFCF5D"/>
<path d="M82.4183 53.408C82.4183 54.1082 81.8511 54.6754 81.1509 54.6754H77.264C76.5641 54.6754 75.9966 54.1082 75.9966 53.408V45.8032C75.9966 45.1031 76.564 44.5359 77.264 44.5359H81.1509C81.8509 44.5359 82.4183 45.1031 82.4183 45.8032C82.4183 46.5036 81.8511 47.0708 81.1509 47.0708H78.5315V48.3382H80.1369C80.837 48.3382 81.4042 48.9054 81.4042 49.6055C81.4042 50.3059 80.837 50.8731 80.1369 50.8731H78.5315V52.1405H81.1509C81.8509 52.1405 82.4183 52.7077 82.4183 53.408Z" fill="#FFCF5D"/>
</g>
<defs>
<clipPath id="clip0">
<rect width="84" height="84" fill="white"/>
</clipPath>
</defs>
</svg>
