<svg width="71" height="31" viewBox="0 0 71 31" fill="none" xmlns="http://www.w3.org/2000/svg">
<path d="M13.0724 9.9449C12.9541 11.4843 12.3623 12.6684 11.2971 13.6157C10.2318 14.4446 8.81156 14.9182 7.15456 14.9182C5.1425 14.9182 3.60385 14.3262 2.53864 13.142C1.47343 11.9579 1 10.3001 1 8.0503C1 5.68205 1.59179 4.02428 2.657 2.84015C3.72221 1.65603 5.37921 1.06396 7.39128 1.06396C9.04828 1.06396 10.4686 1.53761 11.4154 2.3665C12.3623 3.19539 12.9541 4.37951 13.0724 5.80046H11.4154C10.8236 5.80046 10.3502 5.56364 10.1135 4.97157C9.87678 4.49793 9.64006 4.2611 9.40335 3.90586C8.92992 3.55063 8.21978 3.3138 7.39128 3.3138C6.20771 3.3138 5.26085 3.66904 4.66907 4.49793C3.95893 5.32681 3.72221 6.39252 3.72221 7.93189C3.72221 9.35283 4.07728 10.4185 4.66907 11.2474C5.26085 12.0763 6.08935 12.4316 7.27292 12.4316C8.10142 12.4316 8.81156 12.1947 9.28499 11.8395C9.87678 11.4843 10.1135 10.7738 10.3502 9.9449H13.0724Z" fill="#DB332D" stroke="#ED1C24" stroke-width="0.75" stroke-miterlimit="22.9256"/>
<path d="M15.9127 13.6161C15.3209 13.1425 14.9658 12.5504 14.7291 11.7215C14.4924 10.8926 14.374 10.0638 14.374 9.23488C14.374 8.5244 14.4924 7.81393 14.6107 7.10345C14.8475 6.39298 15.0842 5.80092 15.5576 5.32727C16.2677 4.49838 17.0962 4.14314 18.1614 3.90632C19.2267 3.7879 20.1735 3.90632 21.002 4.14314C21.9489 4.49838 22.659 5.20885 23.1324 6.15615C23.6059 6.98504 23.8426 8.05075 23.8426 9.11646C23.8426 9.94535 23.7242 10.6558 23.6059 11.2479C23.3692 11.8399 23.2508 12.3136 22.8957 12.7872C22.3039 13.6161 21.4754 14.2082 20.5286 14.3266C19.7001 14.5634 18.8716 14.5634 17.9247 14.3266C16.9779 14.0898 16.3861 14.0898 15.9127 13.6161ZM17.688 6.86663C17.0962 7.45869 16.8595 8.28758 16.9779 9.4717C16.9779 10.6558 17.2146 11.4847 17.688 11.9584C17.8064 12.1952 18.1614 12.3136 18.5165 12.432C18.8716 12.5504 19.345 12.5504 19.7001 12.432C20.0552 12.3136 20.4102 12.0768 20.7653 11.6031C21.1204 11.1295 21.2387 10.419 21.2387 9.35329C21.2387 8.40599 21.1204 7.69551 20.7653 7.22186C20.4102 6.74821 20.1735 6.51139 19.7001 6.39298C19.345 6.27457 18.8716 6.27457 18.5165 6.39298C18.1614 6.51139 17.9247 6.6298 17.688 6.86663Z" fill="#DB332D" stroke="#ED1C24" stroke-width="0.75" stroke-miterlimit="22.9256"/>
<path d="M34.1402 14.5631H31.5363V8.52409V8.05044C31.5363 7.45837 31.2996 6.98472 30.9445 6.7479C30.5894 6.39266 30.116 6.27425 29.6426 6.27425C29.1692 6.27425 28.8141 6.39266 28.459 6.7479C28.1039 6.98472 27.8672 7.45837 27.8672 8.05044V14.5631H25.145V8.52409C25.145 6.7479 25.6184 5.56378 26.5653 4.97171C27.5122 4.37965 28.459 4.02441 29.6426 4.02441C30.2344 4.02441 30.8262 4.14283 31.4179 4.26124C32.0097 4.37965 32.4832 4.61648 32.9566 5.09013C33.3117 4.73489 33.7851 4.49806 34.3769 4.37965C34.8503 4.14283 35.3237 4.14283 35.9155 4.02441C37.0991 4.02441 38.0459 4.37965 38.9928 4.8533C39.9396 5.44536 40.4131 6.62949 40.4131 8.40567V14.4447H39.1111C38.7561 14.4447 38.401 14.3263 38.1643 14.0895C37.9276 13.8526 37.8092 13.4974 37.8092 13.1422V8.05044C37.8092 7.45837 37.5725 6.98472 37.2174 6.7479C36.8624 6.39266 36.3889 6.27425 36.0339 6.27425C35.5604 6.27425 35.2054 6.39266 34.7319 6.7479C34.3769 6.98472 34.1402 7.45837 34.1402 8.05044V8.6425V14.5631Z" fill="#DB332D" stroke="#ED1C24" stroke-width="0.75" stroke-miterlimit="22.9256"/>
<path d="M42.188 14.5632V3.7877C42.188 2.8404 42.4247 2.12992 42.8981 1.65628C43.3716 1.18263 44.0817 0.945801 45.1469 0.945801C45.3836 0.945801 45.6203 0.945801 45.7387 0.945801C45.9754 0.945801 46.2121 0.945801 46.4488 0.945801V3.07722H45.7387C45.3836 3.07722 45.1469 3.07722 44.9102 3.19564C44.7918 3.31405 44.6735 3.55087 44.6735 3.7877V4.735H46.3305V5.32706C46.3305 5.6823 46.2121 6.03753 45.9754 6.27436C45.7387 6.51118 45.3836 6.6296 45.1469 6.6296H44.7918V14.208H42.188V14.5632Z" fill="#DB332D" stroke="#ED1C24" stroke-width="0.75" stroke-miterlimit="22.9256"/>
<path d="M48.9346 13.6161C48.3429 13.1425 47.9878 12.5504 47.7511 11.7215C47.5144 10.8926 47.396 10.0638 47.396 9.23488C47.396 8.5244 47.5144 7.81393 47.6327 7.10345C47.8694 6.39298 48.1061 5.80092 48.5796 5.32727C49.2897 4.49838 50.1182 4.14314 51.1834 3.90632C52.2486 3.7879 53.1955 3.90632 54.024 4.14314C54.9708 4.7352 55.681 5.44568 56.1544 6.39298C56.6278 7.22186 56.8646 8.28758 56.8646 9.35329C56.8646 10.1822 56.7462 10.8926 56.6278 11.4847C56.3911 12.0768 56.2728 12.5504 55.9177 13.0241C55.3259 13.853 54.4974 14.445 53.5506 14.5634C52.7221 14.8003 51.8936 14.8003 50.9467 14.5634C49.9999 14.3266 49.4081 14.0898 48.9346 13.6161ZM50.71 6.86663C50.1182 7.45869 49.8815 8.28758 49.9999 9.4717C49.9999 10.6558 50.2366 11.4847 50.71 11.9584C50.8284 12.1952 51.1834 12.3136 51.5385 12.432C51.8936 12.5504 52.367 12.5504 52.7221 12.432C53.0771 12.3136 53.4322 12.0768 53.7873 11.6031C54.1423 11.1295 54.2607 10.419 54.2607 9.35329C54.2607 8.40599 54.1423 7.69551 53.7873 7.22186C53.4322 6.74821 53.1955 6.51139 52.7221 6.39298C52.367 6.27457 51.8936 6.27457 51.5385 6.39298C51.1834 6.51139 50.9467 6.6298 50.71 6.86663Z" fill="#DB332D" stroke="#ED1C24" stroke-width="0.75" stroke-miterlimit="22.9256"/>
<path d="M58.2847 14.5634V9.59003C58.2847 8.64273 58.403 7.69543 58.7581 7.10337C58.9948 6.39289 59.4682 5.91924 59.9417 5.44559C60.4151 5.09036 61.0069 4.73512 61.5987 4.61671C62.3088 4.37988 62.9006 4.37988 63.6107 4.37988C63.6107 4.37988 63.7291 4.37988 63.8474 4.37988C63.9658 4.37988 63.9658 4.37988 64.0842 4.37988V7.10337H63.2557C62.5455 7.10337 61.9537 7.34019 61.5987 7.69543C61.2436 8.05067 61.0069 8.64273 61.0069 9.3532V14.6818H58.2847V14.5634Z" fill="#DB332D" stroke="#ED1C24" stroke-width="0.75" stroke-miterlimit="22.9256"/>
<path d="M69.8839 14.5635C69.0554 14.5635 68.1085 14.5635 67.1617 14.5635C66.2148 14.445 65.623 13.853 65.623 12.6689V1.30127H67.0433C67.3984 1.30127 67.6351 1.41968 67.8718 1.65651C68.1085 1.89333 68.2269 2.24857 68.2269 2.60381V4.4984H69.7655V5.09047C69.7655 5.4457 69.6472 5.80094 69.4105 6.03777C69.1738 6.27459 68.937 6.393 68.582 6.393H68.3453V11.9584C68.3453 12.432 68.582 12.6689 69.1738 12.6689H70.0022V14.5635H69.8839Z" fill="#DB332D" stroke="#ED1C24" stroke-width="0.75" stroke-miterlimit="22.9256"/>
<rect x="1" y="19" width="47.339" height="11.8347" fill="#161616"/>
<path d="M6.94669 26.9619L7.96109 20.2397H10.0305V29.7075H8.62384V22.9178L7.59591 29.7075H6.18926L5.08018 23.0125V29.7075H3.78174V20.2397H5.85113L6.94669 26.9619Z" fill="white"/>
<path d="M16.1983 29.7075H14.697L14.44 27.9898H12.6141L12.3571 29.7075H10.991L12.5058 20.2397H14.6834L16.1983 29.7075ZM12.8034 26.7049H14.2371L13.5203 21.9169L12.8034 26.7049Z" fill="white"/>
<path d="M22.1255 20.2397L20.5701 24.8384L22.2337 29.7075H20.6647L19.4475 25.961L18.2166 29.7075H16.8235L18.4871 24.8384L16.9317 20.2397H18.4736L19.5962 23.7293L20.7459 20.2397H22.1255Z" fill="white"/>
<path d="M23.2439 20.2397H24.7317V29.7075H23.2439V20.2397Z" fill="white"/>
<path d="M29.2414 26.9619L30.2559 20.2397H32.3252V29.7075H30.9186V22.9178L29.8907 29.7075H28.484L27.3749 23.0125V29.7075H26.0765V20.2397H28.1459L29.2414 26.9619Z" fill="white"/>
<path d="M35.0982 20.2397V27.5435C35.0982 27.8861 35.1658 28.1251 35.301 28.2603C35.4453 28.3956 35.6347 28.4632 35.8691 28.4632C36.1036 28.4632 36.2884 28.3956 36.4237 28.2603C36.5679 28.1251 36.6401 27.8861 36.6401 27.5435V20.2397H38.0467V27.4488C38.0467 28.2152 37.8573 28.8058 37.4786 29.2206C37.1089 29.6264 36.5589 29.8293 35.8285 29.8293C35.0982 29.8293 34.5436 29.6264 34.1649 29.2206C33.7952 28.8058 33.6104 28.2152 33.6104 27.4488V20.2397H35.0982Z" fill="white"/>
<path d="M42.489 26.9619L43.5034 20.2397H45.5728V29.7075H44.1661V22.9178L43.1382 29.7075H41.7315L40.6225 23.0125V29.7075H39.324V20.2397H41.3934L42.489 26.9619Z" fill="white"/>
</svg>
