<svg width="236" height="40" viewBox="0 0 236 40" fill="none" xmlns="http://www.w3.org/2000/svg">
<path d="M26.2754 21.84C26.0275 25.064 24.7881 27.544 22.5571 29.528C20.3262 31.264 17.3516 32.256 13.8812 32.256C9.66715 32.256 6.44466 31.016 4.2137 28.536C1.98275 26.056 0.991211 22.584 0.991211 17.872C0.991211 12.912 2.23063 9.43999 4.46159 6.95999C6.69254 4.47999 10.1629 3.23999 14.3769 3.23999C17.8473 3.23999 20.8219 4.23199 22.805 5.96799C24.7881 7.70399 26.0275 10.184 26.2754 13.16H22.805C21.5656 13.16 20.574 12.664 20.0783 11.424C19.5825 10.432 19.0867 9.93599 18.591 9.19199C17.5994 8.44799 16.1121 7.95199 14.3769 7.95199C11.8981 7.95199 9.91503 8.69599 8.67561 10.432C7.18831 12.168 6.69254 14.4 6.69254 17.624C6.69254 20.6 7.43619 22.832 8.67561 24.568C9.91503 26.304 11.6502 27.048 14.1291 27.048C15.8642 27.048 17.3516 26.552 18.3431 25.808C19.5825 25.064 20.0783 23.576 20.574 21.84H26.2754Z" fill="#DB332D" stroke="#ED1C24" stroke-width="0.75" stroke-miterlimit="22.9256"/>
<path d="M32.2244 29.5281C30.985 28.5361 30.2414 27.2961 29.7456 25.5601C29.2498 23.8241 29.002 22.0881 29.002 20.3521C29.002 18.8641 29.2498 17.3761 29.4977 15.8881C29.9935 14.4001 30.4893 13.1601 31.4808 12.1681C32.9681 10.4321 34.7033 9.68814 36.9342 9.19214C39.1652 8.94414 41.1483 9.19214 42.8835 9.68814C44.8665 10.4321 46.3538 11.9201 47.3454 13.9041C48.3369 15.6401 48.8327 17.8721 48.8327 20.1041C48.8327 21.8401 48.5848 23.3281 48.3369 24.5681C47.8411 25.8081 47.5932 26.8001 46.8496 27.7921C45.6102 29.5281 43.875 30.7681 41.8919 31.0161C40.1567 31.5121 38.4215 31.5121 36.4385 31.0161C34.4554 30.5201 33.216 30.5201 32.2244 29.5281ZM35.9427 15.3921C34.7033 16.6321 34.2075 18.3681 34.4554 20.8481C34.4554 23.3281 34.9512 25.0641 35.9427 26.0561C36.1906 26.5521 36.9342 26.8001 37.6779 27.0481C38.4215 27.2961 39.4131 27.2961 40.1567 27.0481C40.9004 26.8001 41.644 26.3041 42.3877 25.3121C43.1313 24.3201 43.3792 22.8321 43.3792 20.6001C43.3792 18.6161 43.1313 17.1281 42.3877 16.1361C41.644 15.1441 41.1483 14.6481 40.1567 14.4001C39.4131 14.1521 38.4215 14.1521 37.6779 14.4001C36.9342 14.6481 36.4385 14.8961 35.9427 15.3921Z" fill="#DB332D" stroke="#ED1C24" stroke-width="0.75" stroke-miterlimit="22.9256"/>
<path d="M70.3988 31.5121H64.9453V18.8641V17.8721C64.9453 16.6321 64.4495 15.6401 63.7059 15.1441C62.9622 14.4001 61.9707 14.1521 60.9792 14.1521C59.9876 14.1521 59.244 14.4001 58.5003 15.1441C57.7567 15.6401 57.2609 16.6321 57.2609 17.8721V31.5121H51.5596V18.8641C51.5596 15.1441 52.5511 12.6641 54.5342 11.4241C56.5173 10.1841 58.5003 9.44006 60.9792 9.44006C62.2186 9.44006 63.458 9.68806 64.6974 9.93606C65.9368 10.1841 66.9284 10.6801 67.9199 11.6721C68.6636 10.9281 69.6551 10.4321 70.8945 10.1841C71.8861 9.68806 72.8776 9.68806 74.117 9.44006C76.5958 9.44006 78.5789 10.1841 80.562 11.1761C82.5451 12.4161 83.5366 14.8961 83.5366 18.6161V31.2641H80.8099C80.0662 31.2641 79.3226 31.0161 78.8268 30.5201C78.331 30.0241 78.0832 29.2801 78.0832 28.5361V17.8721C78.0832 16.6321 77.5874 15.6401 76.8437 15.1441C76.1001 14.4001 75.1085 14.1521 74.3649 14.1521C73.3734 14.1521 72.6297 14.4001 71.6382 15.1441C70.8945 15.6401 70.3988 16.6321 70.3988 17.8721V19.1121V31.5121Z" fill="#DB332D" stroke="#ED1C24" stroke-width="0.75" stroke-miterlimit="22.9256"/>
<path d="M87.2544 31.5121V8.94406C87.2544 6.96006 87.7502 5.47207 88.7417 4.48007C89.7332 3.48807 91.2205 2.99207 93.4515 2.99207C93.9473 2.99207 94.443 2.99207 94.6909 2.99207C95.1867 2.99207 95.6824 2.99207 96.1782 2.99207V7.45607H94.6909C93.9473 7.45607 93.4515 7.45607 92.9557 7.70406C92.7078 7.95206 92.46 8.44806 92.46 8.94406V10.9281H95.9303V12.1681C95.9303 12.9121 95.6824 13.6561 95.1867 14.1521C94.6909 14.6481 93.9473 14.8961 93.4515 14.8961H92.7078V30.7681H87.2544V31.5121Z" fill="#DB332D" stroke="#ED1C24" stroke-width="0.75" stroke-miterlimit="22.9256"/>
<path d="M101.385 29.5281C100.145 28.5361 99.4015 27.2961 98.9058 25.5601C98.41 23.8241 98.1621 22.0881 98.1621 20.3521C98.1621 18.8641 98.41 17.3761 98.6579 15.8881C99.1536 14.4001 99.6494 13.1601 100.641 12.1681C102.128 10.4321 103.863 9.68814 106.094 9.19214C108.325 8.94414 110.308 9.19214 112.044 9.68814C114.027 10.9281 115.514 12.4161 116.506 14.4001C117.497 16.1361 117.993 18.3681 117.993 20.6001C117.993 22.3361 117.745 23.8241 117.497 25.0641C117.001 26.3041 116.753 27.2961 116.01 28.2881C114.77 30.0241 113.035 31.2641 111.052 31.5121C109.317 32.0081 107.582 32.0081 105.599 31.5121C103.616 31.0161 102.376 30.5201 101.385 29.5281ZM105.103 15.3921C103.863 16.6321 103.368 18.3681 103.616 20.8481C103.616 23.3281 104.111 25.0641 105.103 26.0561C105.351 26.5521 106.094 26.8001 106.838 27.0481C107.582 27.2961 108.573 27.2961 109.317 27.0481C110.061 26.8001 110.804 26.3041 111.548 25.3121C112.292 24.3201 112.539 22.8321 112.539 20.6001C112.539 18.6161 112.292 17.1281 111.548 16.1361C110.804 15.1441 110.308 14.6481 109.317 14.4001C108.573 14.1521 107.582 14.1521 106.838 14.4001C106.094 14.6481 105.599 14.8961 105.103 15.3921Z" fill="#DB332D" stroke="#ED1C24" stroke-width="0.75" stroke-miterlimit="22.9256"/>
<path d="M120.967 31.5121V21.0961C120.967 19.1121 121.215 17.1281 121.958 15.8881C122.454 14.4001 123.446 13.4081 124.437 12.4161C125.429 11.6721 126.668 10.9281 127.908 10.6801C129.395 10.1841 130.634 10.1841 132.122 10.1841C132.122 10.1841 132.369 10.1841 132.617 10.1841C132.865 10.1841 132.865 10.1841 133.113 10.1841V15.8881H131.378C129.891 15.8881 128.651 16.3841 127.908 17.1281C127.164 17.8721 126.668 19.1121 126.668 20.6001V31.7601H120.967V31.5121Z" fill="#DB332D" stroke="#ED1C24" stroke-width="0.75" stroke-miterlimit="22.9256"/>
<path d="M145.26 31.5121C143.525 31.5121 141.541 31.5121 139.558 31.5121C137.575 31.2641 136.336 30.0241 136.336 27.5441V3.73608H139.311C140.054 3.73608 140.55 3.98408 141.046 4.48008C141.541 4.97608 141.789 5.72008 141.789 6.46408V10.4321H145.012V11.6721C145.012 12.4161 144.764 13.1601 144.268 13.6561C143.772 14.1521 143.277 14.4001 142.533 14.4001H142.037V26.0561C142.037 27.0481 142.533 27.5441 143.772 27.5441H145.508V31.5121H145.26Z" fill="#DB332D" stroke="#ED1C24" stroke-width="0.75" stroke-miterlimit="22.9256"/>
<rect x="152" y="11" width="84" height="21" fill="#161616"/>
<path d="M160.608 13.2H156.936V30H159.24V18.12L161.208 30H163.704L165.528 17.952V30H168.024V13.2H164.352L162.552 25.128L160.608 13.2ZM176.28 13.2H172.416L169.728 30H172.152L172.608 26.952H175.848L176.304 30H178.968L176.28 13.2ZM174.216 16.176L175.488 24.672H172.944L174.216 16.176ZM187.038 13.2L184.998 19.392L183.006 13.2H180.27L183.03 21.36L180.078 30H182.55L184.734 23.352L186.894 30H189.678L186.726 21.36L189.486 13.2H187.038ZM191.47 30H194.11V13.2H191.47V30ZM200.169 13.2H196.497V30H198.801V18.12L200.769 30H203.265L205.089 17.952V30H207.585V13.2H203.913L202.113 25.128L200.169 13.2ZM209.865 13.2V25.992C209.865 28.68 211.209 30.216 213.801 30.216C216.393 30.216 217.737 28.68 217.737 25.992V13.2H215.241V26.16C215.241 27.36 214.713 27.792 213.873 27.792C213.033 27.792 212.505 27.36 212.505 26.16V13.2H209.865ZM223.676 13.2H220.004V30H222.308V18.12L224.276 30H226.772L228.596 17.952V30H231.092V13.2H227.42L225.62 25.128L223.676 13.2Z" fill="white"/>
</svg>
