<svg width="27" height="17" viewBox="0 0 27 17" fill="none" xmlns="http://www.w3.org/2000/svg">
<path d="M17.1285 8.20146C17.1285 12.732 13.4584 16.4029 8.92951 16.4029C4.4006 16.4029 0.730469 12.7312 0.730469 8.20146C0.730469 3.67175 4.4015 0 8.92951 0C13.4575 0 17.1285 3.67175 17.1285 8.20146Z" fill="#4195E2"/>
<path d="M18.7766 0C16.9378 0 15.245 0.612663 13.877 1.63542L13.8836 1.63623C14.1526 1.89619 14.4494 2.07915 14.6783 2.37842L12.9723 2.4055C12.705 2.67535 12.4614 2.96896 12.2318 3.27407H15.24C15.4689 3.54879 15.6804 3.78752 15.8724 4.09093H11.6864C11.533 4.35503 11.3912 4.6265 11.2673 4.90859H16.349C16.4818 5.18987 16.6007 5.40234 16.7017 5.70008H10.9663C10.8753 5.98307 10.7974 6.27253 10.7383 6.56776H16.9419C17.0026 6.85156 17.0493 7.11395 17.0813 7.38137H10.6152C10.5882 7.65123 10.5742 7.92513 10.5742 8.20156H17.128C17.128 8.49192 17.1075 8.76088 17.078 9.02174H10.6152C10.6431 9.29978 10.6841 9.57287 10.7383 9.84192H16.932C16.8681 10.1076 16.7942 10.375 16.7016 10.6522H10.9474C11.0343 10.9327 11.1402 11.205 11.2558 11.4707H16.349C16.2079 11.7692 16.048 12.0079 15.8717 12.2875H11.6717C11.8374 12.5746 12.0203 12.8485 12.2187 13.111L15.2401 13.156C14.9826 13.4652 14.6521 13.6514 14.351 13.9221C14.3674 13.9352 13.8696 13.9204 12.8895 13.9049C14.3805 15.4435 16.4645 16.403 18.7765 16.403C23.3062 16.403 26.978 12.7312 26.978 8.20156C26.978 3.67193 23.307 0 18.7766 0Z" fill="#E2574C"/>
</svg>
