<svg width="27" height="17" viewBox="0 0 27 17" fill="none" xmlns="http://www.w3.org/2000/svg">
<path d="M16.3981 8.20146C16.3981 12.732 12.7279 16.4029 8.19904 16.4029C3.67013 16.4029 0 12.7312 0 8.20146C0 3.67175 3.67103 0 8.19904 0C12.727 0 16.3981 3.67175 16.3981 8.20146Z" fill="#E2574C"/>
<path d="M18.0461 0C16.2073 0 14.5145 0.612663 13.1465 1.63542L13.1531 1.63623C13.4221 1.89619 13.719 2.07915 13.9478 2.37842L12.2419 2.4055C11.9745 2.67535 11.7309 2.96896 11.5013 3.27407H14.5096C14.7384 3.54879 14.95 3.78752 15.1419 4.09093H10.9559C10.8025 4.35503 10.6607 4.6265 10.5368 4.90859H15.6185C15.7513 5.18987 15.8703 5.40234 15.9712 5.70008H10.2359C10.1448 5.98307 10.0669 6.27253 10.0078 6.56776H16.2115C16.2722 6.85156 16.3189 7.11395 16.3509 7.38137H9.88477C9.85769 7.65123 9.84375 7.92513 9.84375 8.20156H16.3976C16.3976 8.49192 16.3771 8.76088 16.3476 9.02174H9.88477C9.91265 9.29978 9.95367 9.57288 10.0078 9.84192H16.2016C16.1376 10.1076 16.0638 10.375 15.9711 10.6522H10.217C10.3039 10.9327 10.4097 11.205 10.5253 11.4707H15.6185C15.4774 11.7692 15.3175 12.0079 15.1412 12.2875H10.9413C11.1069 12.5746 11.2898 12.8485 11.4883 13.111L14.5097 13.156C14.2521 13.4652 13.9216 13.6514 13.6206 13.9221C13.6369 13.9352 13.1391 13.9204 12.159 13.9049C13.6501 15.4435 15.7341 16.403 18.046 16.403C22.5757 16.403 26.2475 12.7312 26.2475 8.20156C26.2475 3.67193 22.5765 0 18.0461 0Z" fill="#F4B459"/>
</svg>
