<svg width="41" height="13" viewBox="0 0 41 13" fill="none" xmlns="http://www.w3.org/2000/svg">
<path d="M16.7931 0.280762L14.7532 12.9744H18.0136L20.0522 0.280762H16.7931ZM26.6276 5.45143C25.4882 4.88879 24.7898 4.50904 24.7898 3.93358C24.8037 3.41036 25.3804 2.87432 26.6683 2.87432C27.7276 2.84771 28.5061 3.09664 29.0968 3.34433L29.3926 3.47639L29.8359 0.820563C29.1919 0.571628 28.1708 0.297338 26.9096 0.297338C23.6898 0.297338 21.4227 1.97135 21.4086 4.36556C21.382 6.13235 23.0318 7.11277 24.2664 7.70091C25.5277 8.30423 25.957 8.6954 25.957 9.23144C25.9431 10.0544 24.9372 10.4342 23.9985 10.4342C22.698 10.4342 21.9994 10.2386 20.9389 9.78001L20.5095 9.58443L20.0536 12.3445C20.8195 12.6849 22.228 12.9846 23.69 12.9999C27.1117 12.9999 29.3382 11.3512 29.3662 8.79959C29.3773 7.39987 28.5074 6.32779 26.6276 5.45143ZM38.1945 0.320045H35.672C34.8947 0.320045 34.3041 0.543628 33.9675 1.34128L29.1245 12.9744H32.5462L33.4886 10.4558H37.3168L37.8058 12.9846H40.8236L38.1945 0.320045ZM34.4375 7.91404C34.5036 7.92045 35.7509 3.80264 35.7509 3.80264L36.7441 7.91404C36.7441 7.91404 35.0815 7.91404 34.4375 7.91404ZM12.0289 0.280762L8.8345 8.90491L8.48652 7.20415C7.89587 5.24178 6.04411 3.10932 3.97754 2.05006L6.90264 12.9617H10.3524L15.4786 0.282154H12.0289V0.280762Z" fill="#2360BC"/>
<path d="M7.41177 1.9173C7.16284 0.949422 6.36895 0.296645 5.29074 0.282715H0.231787L0.179688 0.51758C4.12602 1.49048 7.43838 4.48411 8.51297 7.29999L7.41177 1.9173Z" fill="#EFC75E"/>
</svg>
