<svg width="62" height="62" viewBox="0 0 62 62" fill="none" xmlns="http://www.w3.org/2000/svg">
<path d="M59.3243 26.5593H2.67475C2.45254 26.5593 2.23944 26.4711 2.08231 26.3139C1.92519 26.1568 1.83691 25.9437 1.83691 25.7215V19.6103C1.83691 19.466 1.87416 19.3242 1.94506 19.1986C2.01596 19.0729 2.1181 18.9677 2.24159 18.8931L30.5605 1.79619C30.6911 1.71741 30.8407 1.67578 30.9933 1.67578C31.1458 1.67578 31.2954 1.71741 31.426 1.79619L59.7566 18.8931C59.8801 18.9677 59.9823 19.0729 60.0532 19.1986C60.1241 19.3242 60.1613 19.466 60.1613 19.6103V25.7215C60.1613 25.9436 60.0732 26.1565 59.9162 26.3136C59.7593 26.4707 59.5464 26.5591 59.3243 26.5593ZM3.51343 24.8836H58.4865V20.0828L30.9945 3.49197L3.51343 20.0812V24.8836Z" fill="#DB332D"/>
<path d="M31.0004 20.3699C30.0093 20.3699 29.0404 20.076 28.2163 19.5254C27.3923 18.9747 26.75 18.1921 26.3707 17.2764C25.9914 16.3608 25.8922 15.3532 26.0855 14.3811C26.2789 13.4091 26.7562 12.5162 27.457 11.8154C28.1578 11.1146 29.0507 10.6373 30.0228 10.4439C30.9948 10.2506 32.0024 10.3498 32.918 10.7291C33.8337 11.1084 34.6163 11.7507 35.167 12.5747C35.7176 13.3988 36.0115 14.3677 36.0115 15.3588C36.0099 16.6873 35.4815 17.961 34.542 18.9004C33.6026 19.8399 32.3289 20.3683 31.0004 20.3699ZM31.0004 12.0225C30.3407 12.0225 29.6958 12.2181 29.1473 12.5846C28.5988 12.9511 28.1713 13.472 27.9188 14.0815C27.6664 14.691 27.6003 15.3616 27.729 16.0086C27.8577 16.6557 28.1754 17.25 28.6419 17.7164C29.1083 18.1829 29.7026 18.5006 30.3497 18.6293C30.9967 18.758 31.6673 18.6919 32.2768 18.4395C32.8863 18.187 33.4072 17.7595 33.7737 17.211C34.1402 16.6625 34.3358 16.0176 34.3358 15.3579C34.3347 14.4737 33.9829 13.6259 33.3577 13.0006C32.7324 12.3754 31.8846 12.0236 31.0004 12.0225Z" fill="#DB332D"/>
<path d="M54.4361 31.8521H45.5207C45.0408 31.8514 44.5807 31.6604 44.2414 31.321C43.9022 30.9816 43.7114 30.5214 43.7109 30.0415V25.7216C43.7109 25.4994 43.7992 25.2863 43.9563 25.1292C44.1135 24.9721 44.3266 24.8838 44.5488 24.8838H55.408C55.6302 24.8838 55.8433 24.9721 56.0004 25.1292C56.1575 25.2863 56.2458 25.4994 56.2458 25.7216V30.044C56.2447 30.5235 56.0536 30.983 55.7144 31.3219C55.3752 31.6608 54.9156 31.8514 54.4361 31.8521ZM45.3874 26.557V30.0415C45.3874 30.0772 45.4015 30.1113 45.4267 30.1366C45.4518 30.1619 45.4859 30.1762 45.5215 30.1764H54.4361C54.4717 30.1762 54.5058 30.1619 54.5309 30.1366C54.556 30.1113 54.5701 30.0772 54.5701 30.0415V26.5595L45.3874 26.557Z" fill="#DB332D"/>
<path d="M53.676 48.7758H46.2812C46.059 48.7758 45.8459 48.6875 45.6888 48.5304C45.5316 48.3733 45.4434 48.1602 45.4434 47.9379V31.0136C45.4434 30.7914 45.5316 30.5783 45.6888 30.4212C45.8459 30.2641 46.059 30.1758 46.2812 30.1758H53.676C53.8982 30.1758 54.1113 30.2641 54.2684 30.4212C54.4255 30.5783 54.5138 30.7914 54.5138 31.0136V47.9379C54.5138 48.1602 54.4255 48.3733 54.2684 48.5304C54.1113 48.6875 53.8982 48.7758 53.676 48.7758ZM47.119 47.1001H52.8381V31.8515H47.119V47.1001Z" fill="#DB332D"/>
<path d="M55.408 54.0704H44.5488C44.3266 54.0704 44.1135 53.9821 43.9563 53.825C43.7992 53.6679 43.7109 53.4548 43.7109 53.2326V48.9102C43.7114 48.4303 43.9022 47.9701 44.2414 47.6307C44.5807 47.2913 45.0408 47.1003 45.5207 47.0996H54.4361C54.916 47.1003 55.376 47.2913 55.7153 47.6307C56.0546 47.9701 56.2454 48.4303 56.2458 48.9102V53.2326C56.2458 53.4548 56.1575 53.6679 56.0004 53.825C55.8433 53.9821 55.6302 54.0704 55.408 54.0704ZM45.3866 52.3947H54.5701V48.9102C54.5701 48.8745 54.556 48.8404 54.5309 48.8151C54.5058 48.7898 54.4717 48.7755 54.4361 48.7753H45.5207C45.485 48.7755 45.4509 48.7898 45.4258 48.8151C45.4007 48.8404 45.3866 48.8745 45.3866 48.9102V52.3947Z" fill="#DB332D"/>
<path d="M35.4577 31.8521H26.5431C26.0632 31.8514 25.6032 31.6604 25.2639 31.321C24.9246 30.9816 24.7338 30.5214 24.7334 30.0415V25.7216C24.7334 25.4994 24.8217 25.2863 24.9788 25.1292C25.1359 24.9721 25.349 24.8838 25.5712 24.8838H36.4296C36.6518 24.8838 36.8649 24.9721 37.0221 25.1292C37.1792 25.2863 37.2675 25.4994 37.2675 25.7216V30.044C37.2664 30.5235 37.0753 30.983 36.7361 31.3219C36.3969 31.6608 35.9372 31.8514 35.4577 31.8521ZM26.4091 26.5595V30.044C26.4091 30.0797 26.4232 30.1139 26.4483 30.1391C26.4734 30.1644 26.5075 30.1787 26.5431 30.1789H35.4577C35.4934 30.1787 35.5275 30.1644 35.5526 30.1391C35.5777 30.1139 35.5918 30.0797 35.5918 30.044V26.5595H26.4091Z" fill="#DB332D"/>
<path d="M34.6854 48.7758H27.3124C27.0902 48.7758 26.8771 48.6875 26.72 48.5304C26.5629 48.3733 26.4746 48.1602 26.4746 47.9379V31.0136C26.4746 30.7914 26.5629 30.5783 26.72 30.4212C26.8771 30.2641 27.0902 30.1758 27.3124 30.1758H34.6854C34.9076 30.1758 35.1207 30.2641 35.2779 30.4212C35.435 30.5783 35.5233 30.7914 35.5233 31.0136V47.9379C35.5233 48.1602 35.435 48.3733 35.2779 48.5304C35.1207 48.6875 34.9076 48.7758 34.6854 48.7758ZM28.1503 47.1001H33.8476V31.8515H28.1503V47.1001Z" fill="#DB332D"/>
<path d="M36.4296 54.0704H25.5712C25.349 54.0704 25.1359 53.9821 24.9788 53.825C24.8217 53.6679 24.7334 53.4548 24.7334 53.2326V48.9102C24.7338 48.4303 24.9246 47.9701 25.2639 47.6307C25.6032 47.2913 26.0632 47.1003 26.5431 47.0996H35.4577C35.9376 47.1003 36.3977 47.2913 36.737 47.6307C37.0762 47.9701 37.267 48.4303 37.2675 48.9102V53.2326C37.2675 53.4548 37.1792 53.6679 37.0221 53.825C36.8649 53.9821 36.6518 54.0704 36.4296 54.0704ZM26.4082 52.3947H35.5918V48.9102C35.5918 48.8745 35.5777 48.8404 35.5526 48.8151C35.5275 48.7898 35.4934 48.7755 35.4577 48.7753H26.5431C26.5075 48.7755 26.4734 48.7898 26.4483 48.8151C26.4232 48.8404 26.4091 48.8745 26.4091 48.9102L26.4082 52.3947Z" fill="#DB332D"/>
<path d="M17.3179 31.8521H8.4025C7.92259 31.8514 7.46254 31.6604 7.12327 31.321C6.784 30.9816 6.59322 30.5214 6.59277 30.0415V25.7216C6.59277 25.4994 6.68105 25.2863 6.83817 25.1292C6.9953 24.9721 7.2084 24.8838 7.43061 24.8838H18.2898C18.512 24.8838 18.7251 24.9721 18.8823 25.1292C19.0394 25.2863 19.1277 25.4994 19.1277 25.7216V30.044C19.1266 30.5235 18.9355 30.983 18.5963 31.3219C18.2571 31.6608 17.7974 31.8514 17.3179 31.8521ZM8.26845 26.5595V30.044C8.26845 30.0797 8.28255 30.1139 8.30766 30.1391C8.33278 30.1644 8.36687 30.1787 8.4025 30.1789H17.3179C17.3536 30.1787 17.3877 30.1644 17.4128 30.1391C17.4379 30.1139 17.452 30.0797 17.452 30.044V26.5595H8.26845Z" fill="#DB332D"/>
<path d="M16.5885 48.7758H9.13178C8.90957 48.7758 8.69647 48.6875 8.53934 48.5304C8.38222 48.3733 8.29395 48.1602 8.29395 47.9379V31.0136C8.29395 30.7914 8.38222 30.5783 8.53934 30.4212C8.69647 30.2641 8.90957 30.1758 9.13178 30.1758H16.5885C16.8107 30.1758 17.0239 30.2641 17.181 30.4212C17.3381 30.5783 17.4264 30.7914 17.4264 31.0136V47.9379C17.4264 48.1602 17.3381 48.3733 17.181 48.5304C17.0239 48.6875 16.8107 48.7758 16.5885 48.7758ZM9.96962 47.1001H15.7507V31.8515H9.96962V47.1001Z" fill="#DB332D"/>
<path d="M18.2898 54.0704H7.43061C7.2084 54.0704 6.9953 53.9821 6.83817 53.825C6.68105 53.6679 6.59277 53.4548 6.59277 53.2326V48.9102C6.59322 48.4303 6.784 47.9701 7.12327 47.6307C7.46254 47.2913 7.92259 47.1003 8.4025 47.0996H17.3179C17.7979 47.1003 18.2579 47.2913 18.5972 47.6307C18.9364 47.9701 19.1272 48.4303 19.1277 48.9102V53.2326C19.1277 53.4548 19.0394 53.6679 18.8823 53.825C18.7251 53.9821 18.512 54.0704 18.2898 54.0704ZM8.26845 52.3947H17.452V48.9102C17.452 48.8745 17.4379 48.8404 17.4128 48.8151C17.3877 48.7898 17.3536 48.7755 17.3179 48.7753H8.4025C8.36687 48.7755 8.33278 48.7898 8.30766 48.8151C8.28255 48.8404 8.26845 48.8745 8.26845 48.9102V52.3947Z" fill="#DB332D"/>
<path d="M59.4866 60.3248H2.51362C2.29141 60.3248 2.0783 60.2365 1.92118 60.0794C1.76405 59.9223 1.67578 59.7092 1.67578 59.487V53.2333C1.67578 53.0111 1.76405 52.798 1.92118 52.6409C2.0783 52.4838 2.29141 52.3955 2.51362 52.3955H59.4866C59.7088 52.3955 59.9219 52.4838 60.079 52.6409C60.2362 52.798 60.3244 53.0111 60.3244 53.2333V59.487C60.3244 59.7092 60.2362 59.9223 60.079 60.0794C59.9219 60.2365 59.7088 60.3248 59.4866 60.3248ZM3.35146 58.6491H58.6488V54.0712H3.35146V58.6491Z" fill="#DB332D"/>
</svg>
