<svg width="34" height="34" viewBox="0 0 34 34" fill="none" xmlns="http://www.w3.org/2000/svg">
<g clip-path="url(#clip0)">
<path d="M16.829 24.9756C14.9982 24.9756 13.5088 26.4635 13.5088 28.2926C13.5088 30.1216 14.9982 31.6096 16.829 31.6096C18.6599 31.6096 20.1493 30.1216 20.1493 28.2926C20.1493 26.4635 18.6599 24.9756 16.829 24.9756Z" fill="#DB332D"/>
<path d="M26.79 24.9756C24.9592 24.9756 23.4697 26.4635 23.4697 28.2926C23.4697 30.1216 24.9592 31.6096 26.79 31.6096C28.6209 31.6096 30.1103 30.1216 30.1103 28.2926C30.1103 26.4635 28.6209 24.9756 26.79 24.9756Z" fill="#DB332D"/>
<path d="M33.2517 11.6606L12.0388 6.21451C11.7023 6.12812 11.3451 6.22315 11.0961 6.46526C10.8471 6.70738 10.7424 7.06159 10.8198 7.39993L14.0805 21.6576H12.8037L8.90224 4.59746C8.81531 4.21735 8.51462 3.9229 8.13272 3.84401L1.19785 2.41136C0.659293 2.30026 0.13216 2.64664 0.0207972 3.18533C-0.0904997 3.72408 0.256008 4.25101 0.794762 4.36238L7.10289 5.66553L11.0387 22.8756C11.1423 23.3285 11.5451 23.6497 12.0097 23.6497H31.6093C32.1043 23.6497 32.5276 23.2813 32.5959 22.7905L33.9904 12.7613C34.0601 12.2601 33.7423 11.7865 33.2517 11.6606ZM20.0323 18.0099C20.0323 18.5594 19.5863 19.005 19.0362 19.005C18.486 19.005 18.0401 18.5594 18.0401 18.0099V13.6314C18.0401 13.0819 18.486 12.6363 19.0362 12.6363C19.5863 12.6363 20.0323 13.0819 20.0323 13.6314V18.0099ZM24.2952 18.0098C24.2952 18.5594 23.8492 19.0049 23.2991 19.0049C22.749 19.0049 22.303 18.5594 22.303 18.0098V14.9582C22.303 14.4086 22.749 13.9631 23.2991 13.9631C23.8492 13.9631 24.2952 14.4086 24.2952 14.9582V18.0098ZM28.5581 18.0098C28.5581 18.5594 28.1121 19.0049 27.562 19.0049C27.0119 19.0049 26.5659 18.5594 26.5659 18.0098V16.0196C26.5659 15.47 27.0119 15.0245 27.562 15.0245C28.1121 15.0245 28.5581 15.47 28.5581 16.0196V18.0098Z" fill="#DB332D"/>
</g>
<defs>
<clipPath id="clip0">
<rect width="34" height="34" fill="white"/>
</clipPath>
</defs>
</svg>
