<svg width="13" height="10" viewBox="0 0 13 10" fill="none" xmlns="http://www.w3.org/2000/svg">
<path d="M11.9627 0.663405L11.9621 0.662825C11.7459 0.446106 11.3878 0.445228 11.1693 0.663175L11.9627 0.663405ZM11.9627 0.663405L12.3374 1.03768C12.3374 1.03768 12.3374 1.03769 12.3374 1.0377C12.5541 1.2549 12.5542 1.61376 12.3376 1.83102C12.3375 1.83107 12.3375 1.83112 12.3374 1.83116L4.83875 9.32982C4.62154 9.5468 4.26284 9.5468 4.04564 9.32982L0.662731 5.94342C0.66273 5.94342 0.662728 5.94342 0.662727 5.94342C0.445843 5.7263 0.445758 5.3678 0.66247 5.15057C0.662557 5.15049 0.662644 5.1504 0.662731 5.15031L1.03719 4.77629L1.03777 4.77571C1.25444 4.55858 1.61286 4.55858 1.82951 4.77546L1.82977 4.77572L4.09067 7.03575L4.44425 7.38919L4.79774 7.03566L11.1691 0.663386L11.9627 0.663405Z" fill="#2E2C34" stroke="#4F4F4F"/>
</svg>
