<svg width="16" height="15" viewBox="0 0 16 15" fill="none" xmlns="http://www.w3.org/2000/svg">
<path d="M9.21854 7.45026L15.894 1.09265C15.894 0.993309 16 0.893972 16 0.695296C16 0.496621 15.894 0.397283 15.7881 0.198608C15.3642 -0.0994057 14.8344 -0.0994057 14.4106 0.198608L8.05298 6.25821L1.69536 0.0992698C1.27152 -6.79102e-05 0.635762 -0.0994057 0.211921 0.198608C0.10596 0.397283 0 0.496621 0 0.695296C0 0.893972 0.10596 0.993309 0.211921 1.09265L6.88742 7.45026L0.10596 13.9072C0 14.0066 0 14.2052 0 14.3046C0 14.5032 0.10596 14.6026 0.211921 14.8013C0.529801 15.0993 1.16556 15.0993 1.5894 14.8013L7.94702 8.64231L14.4106 14.8013C14.7285 15.0993 15.3642 15.0993 15.7881 14.8013C16 14.7019 16 14.5032 16 14.3046C16 14.1059 16 14.0066 15.7881 13.9072L9.21854 7.45026Z" fill="#DB332D"/>
</svg>
