<svg width="64" height="64" viewBox="0 0 64 64" fill="none" xmlns="http://www.w3.org/2000/svg">
<path d="M52.3774 42.6895H45.9639V44.8273H52.3774V42.6895Z" fill="#DB332D"/>
<path d="M43.8257 42.6895H37.4121V44.8273H43.8257V42.6895Z" fill="#DB332D"/>
<path d="M35.2749 42.6895H28.8613V44.8273H35.2749V42.6895Z" fill="#DB332D"/>
<path d="M63.0529 22.1695L41.902 1.01534C41.3014 0.408991 40.483 0.0682695 39.6295 0.0693384H39.6198C38.7719 0.0697393 37.9598 0.410594 37.3655 1.01534L14.9287 23.449H3.20679C1.4357 23.449 0 24.8847 0 26.6557V56.5858C0 58.3568 1.4357 59.7925 3.20679 59.7925H19.044L22.2337 62.9854C22.8343 63.5918 23.6527 63.9325 24.5063 63.9314H24.5148C25.363 63.9312 26.1757 63.5903 26.7703 62.9854L29.9663 59.7925H54.5154C56.2864 59.7925 57.7222 58.3568 57.7222 56.5858V32.0367L63.0476 26.7113C63.6554 26.1163 63.9985 25.3021 64 24.4516C64.0032 23.5946 63.6619 22.7723 63.0529 22.1695ZM49.4551 11.5945L37.6006 23.449H28.5233L44.9164 7.05586L49.4551 11.5945ZM38.8791 2.52253C39.2857 2.10605 39.9529 2.09803 40.3696 2.50476C40.3756 2.51064 40.3816 2.51652 40.3873 2.52253L43.4049 5.54439L25.4993 23.449H17.9516L38.8791 2.52253ZM25.2566 61.4783C25.0612 61.6824 24.791 61.7981 24.5084 61.7989C24.2219 61.7983 23.9477 61.6828 23.7473 61.4783L22.068 59.7925H26.9434L25.2566 61.4783ZM55.5843 56.5858C55.5843 57.1761 55.1057 57.6547 54.5154 57.6547H3.20679C2.61647 57.6547 2.13786 57.1761 2.13786 56.5858V41.6208H55.5843V56.5858ZM55.5843 39.4829H2.13786V33.0693H55.5843V39.4829ZM55.5843 30.9315H2.13786V26.6557C2.13786 26.0654 2.61647 25.5868 3.20679 25.5868H54.5154C55.1057 25.5868 55.5843 26.0654 55.5843 26.6557V30.9315ZM61.5414 25.1945L57.7222 29.0138V26.6557C57.7222 24.8847 56.2864 23.449 54.5154 23.449H40.6193L50.9622 13.106L61.5372 23.6809C61.7425 23.8821 61.8581 24.1577 61.8578 24.4452C61.8576 24.7274 61.7435 24.9976 61.5414 25.1945Z" fill="#DB332D"/>
<path d="M10.2523 55.5458C10.4084 55.4109 10.5546 55.2647 10.6895 55.1087C12.1031 56.7551 14.5318 57.0679 16.3164 55.8334C17.4682 55.0281 18.1595 53.7156 18.172 52.3102C18.172 49.9488 16.2577 48.0345 13.8963 48.0345C13.6841 48.0316 13.4722 48.0495 13.2635 48.0879L13.2357 48.0954C13.225 48.0954 13.2144 48.0954 13.2047 48.0954C12.2255 48.2582 11.3349 48.7607 10.6895 49.515C9.14494 47.7288 6.44469 47.533 4.65864 49.0778C2.87246 50.6224 2.67671 53.3226 4.22145 55.1087C5.76605 56.8948 8.46616 57.0906 10.2523 55.5458ZM13.6259 50.1948C13.715 50.1778 13.8056 50.1703 13.8963 50.1723C15.0771 50.1723 16.0342 51.1294 16.0342 52.3102C16.0331 52.7625 15.8857 53.2024 15.6141 53.5641C15.5756 53.6164 15.5457 53.6709 15.5019 53.7255C15.4944 53.734 15.4837 53.7394 15.4751 53.7479C15.0713 54.1938 14.4979 54.4482 13.8963 54.4481C12.7158 54.4279 11.775 53.4546 11.7952 52.2741C11.8131 51.2259 12.5884 50.3452 13.6259 50.1948ZM7.48275 50.1723C8.66352 50.1723 9.62061 51.1294 9.62061 52.3102C9.62061 53.491 8.66352 54.4481 7.48275 54.4481C6.30198 54.4481 5.34489 53.491 5.34489 52.3102C5.34489 51.1294 6.30198 50.1723 7.48275 50.1723Z" fill="#DB332D"/>
</svg>
