<svg width="64" height="64" viewBox="0 0 64 64" fill="none" xmlns="http://www.w3.org/2000/svg">
<path d="M59.6921 51.7803L55.9639 38.7313L54.8068 34.491C54.2172 32.3413 52.9387 30.4445 51.1673 29.0913C49.396 27.7382 47.2297 27.0035 45.0006 27H39.2368L38.0006 26.382V23.2831C38.8495 22.3222 39.4545 21.1711 39.7645 19.927C40.5434 19.7756 41.2596 19.396 41.8221 18.8363C42.3845 18.2767 42.7678 17.5624 42.9231 16.7843C43.0785 16.0062 42.9988 15.1995 42.6943 14.4668C42.3899 13.7341 41.8743 13.1086 41.2132 12.6698C41.3235 12.0342 41.2497 11.3803 41.0006 10.7852V7C40.9991 5.67437 40.4719 4.40347 39.5345 3.46611C38.5972 2.52875 37.3263 2.00149 36.0006 2H28.0006C26.675 2.00149 25.4041 2.52875 24.4667 3.46611C23.5294 4.40347 23.0021 5.67437 23.0006 7V10.7852C22.7514 11.3806 22.6776 12.0348 22.7881 12.6707C22.5666 12.8174 22.36 12.9855 22.1714 13.1725C21.6586 13.6858 21.295 14.3289 21.1197 15.0329C20.9443 15.737 20.9637 16.4754 21.1759 17.1693C21.3881 17.8631 21.7849 18.4862 22.3241 18.9718C22.8632 19.4574 23.5242 19.7872 24.2364 19.9259C24.5463 21.1704 25.1515 22.322 26.0006 23.2831V26.382L24.7645 27H19.0006C16.7717 27.004 14.6052 27.7367 12.8314 29.0864C11.0545 30.4356 9.77542 32.3363 9.19463 34.4905L8.03738 38.7313L4.30888 51.7812C3.96801 52.9744 3.90878 54.2304 4.13585 55.4503C4.36292 56.6703 4.87009 57.8208 5.61742 58.8114C6.36476 59.802 7.33185 60.6056 8.44255 61.1589C9.55325 61.7122 10.7772 62.0002 12.0181 62H22.3924C23.0839 61.9992 23.7469 61.7242 24.2358 61.2352C24.7248 60.7462 24.9999 60.0833 25.0006 59.3918V54.6082C24.9999 53.9167 24.7248 53.2538 24.2358 52.7648C23.7469 52.2758 23.0839 52.0008 22.3924 52H18.2205L18.5121 50.5419C18.5932 50.1399 18.5896 49.7255 18.5015 49.325C18.4135 48.9245 18.2429 48.5467 18.0006 48.2159V44H28.0006V49C28.0006 49.2652 28.106 49.5196 28.2935 49.7071C28.4811 49.8946 28.7354 50 29.0006 50H35.0006C35.2658 50 35.5202 49.8946 35.7077 49.7071C35.8953 49.5196 36.0006 49.2652 36.0006 49V44H46.0006V48.2181C45.7587 48.5488 45.5881 48.9263 45.4999 49.3264C45.4117 49.7266 45.4077 50.1407 45.4881 50.5425L45.7806 52H41.6094C40.9177 52.0008 40.2546 52.2759 39.7656 52.7649C39.2765 53.254 39.0014 53.9171 39.0006 54.6087V59.3913C39.0015 59.5964 39.0267 59.8008 39.0756 60H27.0006V62H51.9831C53.2241 62.0001 54.4481 61.712 55.5588 61.1586C56.6695 60.6052 57.6366 59.8015 58.3839 58.8108C59.1312 57.8201 59.6383 56.6695 59.8653 55.4495C60.0924 54.2295 60.0331 52.9734 59.6921 51.7803ZM40.0006 14.7484C40.103 14.663 40.2004 14.5717 40.2923 14.475C40.5378 14.6814 40.7299 14.9441 40.8522 15.2407C40.9745 15.5372 41.0234 15.8589 40.9948 16.1784C40.9662 16.498 40.8608 16.8058 40.6878 17.0759C40.5147 17.346 40.279 17.5704 40.0006 17.7299V14.7484ZM24.0006 17.7294C23.7351 17.5764 23.5084 17.3644 23.338 17.1097C23.1676 16.855 23.058 16.5646 23.0179 16.2608C22.9777 15.957 23.008 15.6481 23.1063 15.3579C23.2047 15.0677 23.3685 14.804 23.5851 14.5872C23.6246 14.548 23.6672 14.5122 23.7101 14.4761C23.8017 14.5719 23.8987 14.6624 24.0006 14.747V17.7294ZM40.0006 29H45.0006C46.7911 29.0028 48.5312 29.5929 49.954 30.6798C51.3768 31.7667 52.4037 33.2904 52.8773 35.0171L53.767 38.2776L48.0006 39.7192V32C48.0006 31.7348 47.8953 31.4804 47.7077 31.2929C47.5202 31.1054 47.2658 31 47.0006 31H40.0006V29ZM38.0006 18C38.0006 19.5913 37.3685 21.1174 36.2433 22.2426C35.118 23.3679 33.5919 24 32.0006 24C30.4093 24 28.8832 23.3679 27.758 22.2426C26.6328 21.1174 26.0006 19.5913 26.0006 18V15.5174C26.0535 15.5197 26.1063 15.5221 26.1595 15.5221C26.2919 15.522 26.4243 15.5147 26.5559 15.5L28.8961 15.24C30.2888 15.0852 33.7125 15.0852 35.1051 15.24L37.4454 15.5C37.6297 15.52 37.8154 15.5255 38.0006 15.5165V18ZM25.0006 7C25.0016 6.20463 25.3179 5.44211 25.8803 4.8797C26.4427 4.31729 27.2053 4.00093 28.0006 4H36.0006C36.796 4.00093 37.5585 4.31729 38.1209 4.8797C38.6833 5.44211 38.9997 6.20463 39.0006 7V10H37.0006V7C37.0006 6.73478 36.8953 6.48043 36.7077 6.29289C36.5202 6.10536 36.2658 6 36.0006 6H28.0006C27.7354 6 27.4811 6.10536 27.2935 6.29289C27.106 6.48043 27.0006 6.73478 27.0006 7V10H25.0006V7ZM35.0006 8V10H29.0006V8H35.0006ZM25.0014 12.9078C24.8144 12.6434 24.7235 12.3231 24.7436 12H39.2576C39.2698 12.2087 39.2363 12.4174 39.1595 12.6118C39.0826 12.8062 38.9644 12.9815 38.8129 13.1255C38.6614 13.2695 38.4803 13.3787 38.2823 13.4455C38.0842 13.5124 37.874 13.5352 37.6663 13.5125L35.3261 13.2525C33.7721 13.0799 30.2291 13.0799 28.6751 13.2525L26.335 13.5125C26.0787 13.543 25.8189 13.5027 25.5839 13.3961C25.3488 13.2895 25.1473 13.1206 25.0014 12.9078ZM22.3924 54C22.5536 54.0002 22.7082 54.0643 22.8223 54.1784C22.9363 54.2924 23.0004 54.447 23.0006 54.6082V59.3918C23.0004 59.553 22.9363 59.7076 22.8223 59.8216C22.7082 59.9357 22.5536 59.9998 22.3924 60H12.0181C11.0867 60.0001 10.168 59.784 9.33439 59.3686C8.50074 58.9533 7.77489 58.3501 7.214 57.6065C6.65311 56.863 6.2725 55.9994 6.10214 55.0837C5.93178 54.168 5.97632 53.2253 6.23225 52.3298L9.6965 40.2048L15.7105 41.7084L13.7184 47.6857C13.1961 48.1177 12.8382 48.716 12.7048 49.3805L12.1808 52H10.0006V54H13.0006C13.2318 54 13.4559 53.9199 13.6346 53.7734C13.8134 53.6268 13.9359 53.4228 13.9813 53.1961L14.6659 49.7728C14.7099 49.5551 14.8278 49.3593 14.9995 49.2185C15.1712 49.0777 15.3863 49.0005 15.6084 49C15.7506 49 15.8911 49.0315 16.0197 49.0923C16.1483 49.1532 16.2617 49.2418 16.3519 49.3518C16.4421 49.4619 16.5067 49.5905 16.5411 49.7286C16.5755 49.8666 16.5789 50.0105 16.5509 50.15L16.02 52.8042C15.991 52.9493 15.9946 53.099 16.0305 53.2425C16.0664 53.386 16.1336 53.5197 16.2274 53.6341C16.3212 53.7485 16.4392 53.8406 16.5729 53.9039C16.7066 53.9672 16.8527 54 17.0006 54H22.3924ZM17.0006 31C16.7354 31 16.4811 31.1054 16.2935 31.2929C16.106 31.4804 16.0006 31.7348 16.0006 32V39.7192L10.2343 38.2776L11.124 35.017C11.595 33.2889 12.6212 31.7636 14.0446 30.6763C15.468 29.5889 17.2095 28.9999 19.0006 29H24.0006V31H17.0006ZM28.0006 42H18.0006V33H28.0006V42ZM26.0006 31V28.618L26.6835 28.2766L28.6287 31H26.0006ZM34.0006 48H30.0006V44H34.0006V48ZM34.0006 42H30.0006V33H34.0006V42ZM32.9147 31H31.0865L28.0006 26.6796V24.9237C29.2158 25.6287 30.5957 26 32.0006 26C33.4055 26 34.7854 25.6287 36.0006 24.9237V26.6796L32.9147 31ZM35.3725 31L37.3177 28.2766L38.0006 28.618V31H35.3725ZM36.0006 42V33H46.0006V42H36.0006ZM56.2381 58.2375C55.6807 58.798 55.0175 59.2424 54.2872 59.545C53.5568 59.8475 52.7737 60.0022 51.9831 60H41.6094C41.448 59.9998 41.2933 59.9356 41.1791 59.8215C41.065 59.7074 41.0008 59.5526 41.0006 59.3913V54.6087C41.0008 54.4474 41.065 54.2926 41.1791 54.1785C41.2933 54.0644 41.448 54.0002 41.6094 54H47.0006C47.1486 54 47.2947 53.9672 47.4285 53.9039C47.5622 53.8406 47.6803 53.7484 47.7741 53.634C47.8679 53.5195 47.9351 53.3857 47.9709 53.2421C48.0068 53.0986 48.0103 52.9488 47.9813 52.8037L47.4499 50.15C47.4272 50.0379 47.4247 49.9226 47.4425 49.8096C47.4793 49.5839 47.5951 49.3785 47.7692 49.2302C47.9434 49.0819 48.1645 49.0003 48.3932 49C48.6162 49.0004 48.8321 49.078 49.0044 49.2196C49.1761 49.3593 49.2932 49.555 49.335 49.7724L50.02 53.1961C50.0653 53.4228 50.1878 53.6268 50.3666 53.7734C50.5454 53.9199 50.7694 54 51.0006 54H54.0006V52H51.8204L51.2964 49.3812C51.1636 48.7147 50.8051 48.1143 50.2814 47.6813L48.2908 41.7084L54.3048 40.2048L57.7689 52.3298C58.0636 53.3615 58.0771 54.4533 57.8079 55.4921C57.5388 56.5308 56.9968 57.4787 56.2381 58.2375Z" fill="#DB332D"/>
</svg>
