<svg width="24" height="24" viewBox="0 0 24 24" fill="none" xmlns="http://www.w3.org/2000/svg">
<path fill-rule="evenodd" clip-rule="evenodd" d="M8 14H2C0.9 14 0 14.9 0 16V22C0 23.1 0.9 24 2 24H8C9.1 24 10 23.1 10 22V16C10 14.9 9.1 14 8 14ZM8 22H2V16H8V22ZM8 0H2C0.9 0 0 0.9 0 2V8C0 9.1 0.9 10 2 10H8C9.1 10 10 9.1 10 8V2C10 0.9 9.1 0 8 0ZM8 8H2V2H8V8ZM22 14H16C14.9 14 14 14.9 14 16V22C14 23.1 14.9 24 16 24H22C23.1 24 24 23.1 24 22V16C24 14.9 23.1 14 22 14ZM22 22H16V16H22V22ZM22 0H16C14.9 0 14 0.9 14 2V8C14 9.1 14.9 10 16 10H22C23.1 10 24 9.1 24 8V2C24 0.9 23.1 0 22 0ZM22 8H16V2H22V8Z" fill="#B1B0B4"/>
</svg>
