<svg width="21" height="20" viewBox="0 0 21 20" fill="none" xmlns="http://www.w3.org/2000/svg">
<path d="M2.56821 0.000732422H17.4346C18.847 0.000732422 20.0016 1.15575 20.0016 2.56813V17.4345C20.0016 18.8465 18.847 20.0007 17.4346 20.0007H2.56821C1.15583 20.0007 0 18.8464 0 17.4345V2.56813C0 1.15575 1.15583 0.000732422 2.56821 0.000732422ZM14.5709 2.22204C14.075 2.22204 13.6705 2.62813 13.6705 3.12379V5.27822C13.6705 5.77405 14.075 6.17923 14.5709 6.17923H16.8313C17.3264 6.17923 17.7317 5.77409 17.7317 5.27822V3.12376C17.7317 2.62813 17.3263 2.222 16.8313 2.222C16.8313 2.22204 14.5709 2.22204 14.5709 2.22204ZM17.7404 8.45844H15.9805C16.1474 9.00348 16.2379 9.57826 16.2379 10.1758C16.2379 13.5016 13.4532 16.199 10.0196 16.199C6.58689 16.199 3.80218 13.5016 3.80218 10.1758C3.80218 9.57826 3.89351 9.00348 4.05958 8.45844H2.2235V16.9079C2.2235 17.3455 2.58079 17.7014 3.01798 17.7014H16.9462C17.3838 17.7014 17.7404 17.3455 17.7404 16.9079V8.45844ZM10.0197 6.06559C7.80215 6.06559 6.00333 7.80761 6.00333 9.95844C6.00333 12.1071 7.80215 13.8504 10.0197 13.8504C12.2384 13.8504 14.0373 12.1071 14.0373 9.95844C14.0373 7.80753 12.2384 6.06559 10.0197 6.06559Z" fill="white"/>
</svg>
