<svg width="60" height="60" viewBox="0 0 60 60" fill="none" xmlns="http://www.w3.org/2000/svg">
<path d="M51.991 11C51.9934 10.7361 51.8913 10.482 51.707 10.293L41.707 0.293C41.5189 0.1075 41.2641 0.00525 41 0.009V0H11C9.34312 0 8 1.34312 8 3V57C8 58.6569 9.34312 60 11 60H49C50.6569 60 52 58.6569 52 57V11H51.991ZM42 3.414L48.586 10H43C42.4478 10 42 9.55225 42 9V3.414ZM50 57C50 57.5522 49.5522 58 49 58H11C10.4478 58 10 57.5522 10 57V3C10 2.44775 10.4478 2 11 2H40V9C40 10.6569 41.3431 12 43 12H50V57Z" fill="#DB332D"/>
<path d="M18 27C16.3431 27 15 28.3431 15 30C15 31.6569 16.3431 33 18 33C19.6569 33 21 31.6569 21 30C21 28.3431 19.6569 27 18 27ZM18 31C17.4478 31 17 30.5522 17 30C17 29.4478 17.4478 29 18 29C18.5522 29 19 29.4478 19 30C19 30.5522 18.5522 31 18 31Z" fill="#DB332D"/>
<path d="M45 29H25V31H45V29Z" fill="#DB332D"/>
<path d="M18 17C16.3431 17 15 18.3431 15 20C15 21.6569 16.3431 23 18 23C19.6569 23 21 21.6569 21 20C21 18.3431 19.6569 17 18 17ZM18 21C17.4478 21 17 20.5522 17 20C17 19.4478 17.4478 19 18 19C18.5522 19 19 19.4478 19 20C19 20.5522 18.5522 21 18 21Z" fill="#DB332D"/>
<path d="M45 19H25V21H45V19Z" fill="#DB332D"/>
<path d="M18 37C16.3431 37 15 38.3431 15 40C15 41.6569 16.3431 43 18 43C19.6569 43 21 41.6569 21 40C21 38.3431 19.6569 37 18 37ZM18 41C17.4478 41 17 40.5522 17 40C17 39.4478 17.4478 39 18 39C18.5522 39 19 39.4478 19 40C19 40.5522 18.5522 41 18 41Z" fill="#DB332D"/>
<path d="M45 39H25V41H45V39Z" fill="#DB332D"/>
<path d="M18 47C16.3431 47 15 48.3431 15 50C15 51.6569 16.3431 53 18 53C19.6569 53 21 51.6569 21 50C21 48.3431 19.6569 47 18 47ZM18 51C17.4478 51 17 50.5522 17 50C17 49.4478 17.4478 49 18 49C18.5522 49 19 49.4478 19 50C19 50.5522 18.5522 51 18 51Z" fill="#DB332D"/>
<path d="M45 49H25V51H45V49Z" fill="#DB332D"/>
</svg>
