<svg width="18" height="18" viewBox="0 0 18 18" fill="none" xmlns="http://www.w3.org/2000/svg">
<path d="M2.9383 5.88013H0.587673C0.264516 5.88013 0 6.14331 0 6.46776V17.0456C0 17.3699 0.263356 17.6332 0.587673 17.6332H2.9383C3.26261 17.6332 3.52597 17.3699 3.52597 17.0456V6.46776C3.52597 6.14331 3.26142 5.88013 2.9383 5.88013Z" fill="#DB332D"/>
<path d="M16.5326 5.88012C16.438 5.86409 12.0067 5.88012 12.0067 5.88012L12.6256 4.1915C13.0527 3.02522 12.7762 1.24445 11.5912 0.611352C11.2054 0.405195 10.6663 0.30166 10.2316 0.411066C9.98238 0.473785 9.76332 0.638809 9.63275 0.859907C9.4826 1.11419 9.4981 1.41102 9.44463 1.69297C9.30903 2.40812 8.97111 3.08808 8.44781 3.59844C7.53543 4.48829 4.70117 7.0554 4.70117 7.0554V16.458H14.4955C15.817 16.4587 16.6832 14.9829 16.0313 13.8301C16.8083 13.3324 17.0741 12.2842 16.619 11.4794C17.396 10.9818 17.6617 9.93361 17.2067 9.12881C18.5473 8.27019 18.0991 6.14506 16.5326 5.88012Z" fill="#DB332D"/>
</svg>
