<svg width="50" height="64" viewBox="0 0 50 64" fill="none" xmlns="http://www.w3.org/2000/svg">
<path d="M49.75 10.4394L39.3106 0H8.25V34.0342C3.77537 34.4162 0.25 38.178 0.25 42.75C0.25 45.375 1.4135 47.7318 3.25 49.337V64H5.31063L9 60.3106L12.6894 64H14.75V57.5H49.75V10.4394ZM39.75 2.56063L47.1894 10H39.75V2.56063ZM1.75 42.75C1.75 38.7524 5.00237 35.5 9 35.5C12.9976 35.5 16.25 38.7524 16.25 42.75C16.25 46.7476 12.9976 50 9 50C5.00237 50 1.75 46.7476 1.75 42.75ZM9 58.1894L4.75 62.4394V50.3949C6.00938 51.0977 7.45825 51.5001 9 51.5001C10.5417 51.5001 11.9906 51.0977 13.25 50.3949V62.4394L9 58.1894ZM14.75 56V49.337C16.5865 47.7318 17.75 45.375 17.75 42.75C17.75 38.1781 14.2246 34.4164 9.75 34.0342V1.5H38.25V11.5H48.25V56H14.75Z" fill="#DB332D"/>
<path d="M15 8H27V9.5H15V8Z" fill="#DB332D"/>
<path d="M15 12H23V13.5H15V12Z" fill="#DB332D"/>
<path d="M15 18H43V19.5H15V18Z" fill="#DB332D"/>
<path d="M15 22H43V23.5H15V22Z" fill="#DB332D"/>
<path d="M15 30H43V31.5H15V30Z" fill="#DB332D"/>
<path d="M19 34H39V35.5H19V34Z" fill="#DB332D"/>
<path d="M15 26H43V27.5H15V26Z" fill="#DB332D"/>
<path d="M31 40H43V41.5H31V40Z" fill="#DB332D"/>
<path d="M35 44H43V45.5H35V44Z" fill="#DB332D"/>
<path d="M9 47.5C11.6191 47.5 13.75 45.3691 13.75 42.75C13.75 40.1309 11.6191 38 9 38C6.38088 38 4.25 40.1309 4.25 42.75C4.25 45.3691 6.38088 47.5 9 47.5ZM9 39.5C10.7921 39.5 12.25 40.9579 12.25 42.75C12.25 44.5421 10.7921 46 9 46C7.20788 46 5.75 44.5421 5.75 42.75C5.75 40.9579 7.20788 39.5 9 39.5Z" fill="#DB332D"/>
</svg>
