<svg width="16" height="16" viewBox="0 0 16 16" fill="none" xmlns="http://www.w3.org/2000/svg">
<path d="M5.99994 7.99992C5.99994 6.89728 6.89728 5.99994 7.99992 5.99994H10.6666V0.66665C10.6666 0.298653 10.3686 0 9.9999 0H0.66665C0.297997 0 0 0.298653 0 0.66665V15.3332C0 15.7012 0.297997 15.9998 0.66665 15.9998H9.9999C10.3686 15.9998 10.6666 15.7012 10.6666 15.3332V10.6666V9.9999H7.99992C6.89728 9.9999 5.99994 9.10257 5.99994 7.99992Z" fill="#C5C5C5"/>
<path d="M15.8501 8.42118C15.8521 8.41871 15.8538 8.41605 15.8558 8.41355C15.8672 8.39912 15.8783 8.3844 15.8885 8.36902C15.8933 8.36184 15.8974 8.35434 15.9019 8.34699C15.9087 8.33596 15.9156 8.32502 15.9217 8.31359C15.9267 8.30421 15.9309 8.29452 15.9354 8.28496C15.9401 8.27505 15.9451 8.2653 15.9493 8.25515C15.9538 8.24421 15.9575 8.23306 15.9614 8.22196C15.9647 8.21274 15.9683 8.20368 15.9711 8.19427C15.9751 8.18121 15.9781 8.16799 15.9813 8.15477C15.9831 8.14702 15.9854 8.13943 15.987 8.13159C15.9906 8.11343 15.9932 8.09515 15.9953 8.07681C15.9957 8.07365 15.9963 8.07059 15.9967 8.0674C16.0012 8.02259 16.0012 7.9774 15.9967 7.93259C15.9963 7.9294 15.9957 7.92634 15.9953 7.92318C15.9932 7.90484 15.9906 7.88656 15.987 7.8684C15.9854 7.86056 15.9832 7.85297 15.9813 7.84522C15.9781 7.832 15.9751 7.81875 15.9711 7.80572C15.9683 7.79631 15.9647 7.78725 15.9614 7.77803C15.9575 7.76693 15.9538 7.75575 15.9493 7.74484C15.9451 7.73469 15.9402 7.72494 15.9354 7.71503C15.9309 7.70547 15.9267 7.69581 15.9217 7.6864C15.9155 7.67497 15.9087 7.66403 15.9019 7.653C15.8974 7.64565 15.8933 7.63815 15.8885 7.63097C15.8783 7.61559 15.8672 7.60087 15.8558 7.58644C15.8538 7.58394 15.8521 7.58131 15.8501 7.57881C15.8351 7.56041 15.8191 7.54284 15.8023 7.52616L13.1381 4.86199C12.8774 4.60134 12.4561 4.60134 12.1954 4.86199C11.9348 5.12265 11.9348 5.54399 12.1954 5.80464L13.7241 7.33328H8.00015C7.63149 7.33328 7.3335 7.63194 7.3335 7.99993C7.3335 8.36793 7.63149 8.66658 8.00015 8.66658H13.7241L12.1954 10.1952C11.9348 10.4559 11.9348 10.8772 12.1954 11.1379C12.3254 11.2679 12.4961 11.3332 12.6668 11.3332C12.8374 11.3332 13.0081 11.2679 13.1381 11.1379L15.8023 8.47371C15.8191 8.45715 15.8351 8.43958 15.8501 8.42118Z" fill="#C5C5C5"/>
</svg>
