<svg width="22" height="22" viewBox="0 0 22 22" fill="none" xmlns="http://www.w3.org/2000/svg">
<g clip-path="url(#clip0)">
<path d="M15.7947 19.6968C15.5667 19.2806 15.0444 19.128 14.6281 19.3561C13.5233 19.9614 12.2688 20.2814 11 20.2814C6.83002 20.2814 3.4375 16.8888 3.4375 12.7187C3.4375 12.244 3.05276 11.8594 2.57813 11.8594C2.10349 11.8594 1.71875 12.2442 1.71875 12.7188C1.71875 15.198 2.68417 17.5287 4.43717 19.2817C6.19017 21.0347 8.52089 22.0001 11 22.0001C12.5566 22.0001 14.0968 21.607 15.454 20.8634C15.8702 20.6353 16.0228 20.113 15.7947 19.6968Z" fill="#DB332D"/>
<path d="M17.5629 6.1559C15.8099 4.4029 13.4792 3.43747 11 3.43747H7.85209L9.80601 1.464C10.1399 1.1267 10.1372 0.582582 9.79995 0.248671C9.46265 -0.0852394 8.91858 -0.0825324 8.58462 0.25473L6.37603 2.48546C5.38942 3.48195 5.38371 5.10905 6.36331 6.1125L8.53268 8.33472C8.70107 8.50724 8.92425 8.59378 9.14769 8.59378C9.36412 8.59378 9.58081 8.51248 9.74796 8.34937C10.0876 8.01782 10.0941 7.47375 9.76257 7.13413L7.83181 5.15623H11C15.17 5.15623 18.5625 8.54875 18.5625 12.7187C18.5625 14.0261 18.2239 15.3142 17.5832 16.4438C17.349 16.8566 17.4939 17.3811 17.9067 17.6153C18.0406 17.6912 18.1862 17.7273 18.3299 17.7273C18.6292 17.7273 18.92 17.5707 19.0782 17.2917C19.8653 15.9041 20.2813 14.3228 20.2813 12.7187C20.2813 10.2396 19.3159 7.9089 17.5629 6.1559Z" fill="#DB332D"/>
</g>
<defs>
<clipPath id="clip0">
<rect width="22" height="22" fill="white"/>
</clipPath>
</defs>
</svg>
