<svg width="16" height="16" viewBox="0 0 16 16" fill="none" xmlns="http://www.w3.org/2000/svg">
<path fill-rule="evenodd" clip-rule="evenodd" d="M15 0H1C0.4 0 0 0.4 0 1V15C0 15.6 0.4 16 1 16H15C15.6 16 16 15.6 16 15V1C16 0.4 15.6 0 15 0ZM1.7 1.5C1.7 1.8 1.4 2 1.2 2C0.9 2 0.7 1.8 0.7 1.5C0.7 1.2 0.9 1 1.2 1C1.4 1 1.7 1.2 1.7 1.5ZM13 13H3V12H13V13ZM3 10V6H7V10H3ZM13 10H9V9H13V10ZM13 7H9V6H13V7ZM14.2 2H3.2C2.9 2 2.7 1.8 2.7 1.5C2.7 1.2 2.9 1 3.2 1H14.2C14.5 1 14.7 1.2 14.7 1.5C14.7 1.8 14.4 2 14.2 2Z" fill="#C5C5C5"/>
</svg>
