<svg width="36" height="36" viewBox="0 0 36 36" fill="none" xmlns="http://www.w3.org/2000/svg">
<g clip-path="url(#clip0)">
<path d="M34.4588 27.0042L26.9053 19.4507C26.1394 18.6863 25.1009 18.1439 23.9698 17.9714L27.2998 14.6415C29.6589 15.061 32.1089 14.3048 33.818 12.5956C36.0256 10.388 36.6051 7.01297 35.2599 4.19716C34.9464 3.541 34.0769 3.3925 33.5634 3.9062L31.1454 6.32433H29.6547V4.8337L32.0728 2.41558C32.5869 1.90152 32.4374 1.03231 31.7819 0.719213C28.9661 -0.625939 25.591 -0.0464922 23.3834 2.16118C21.6742 3.87034 20.9179 6.32018 21.3376 8.67945L17.2449 12.7721L11.4894 7.01669L12.2347 6.27131C12.7198 5.78636 12.6187 4.97432 12.0317 4.62213L4.57867 0.150243C4.16397 -0.0986641 3.63304 -0.033203 3.29104 0.308798L0.309714 3.29005C-0.0322869 3.63205 -0.0976074 4.16291 0.151159 4.57769L4.62311 12.0309C4.97854 12.6234 5.79115 12.715 6.2723 12.2339L7.01768 11.4885L12.7731 17.2439L8.68043 21.3366C6.3213 20.917 3.87133 21.6733 2.16217 23.3825C-0.0455058 25.5901 -0.625022 28.9651 0.720199 31.7809C1.03372 32.437 1.90314 32.5855 2.41663 32.0718L4.83468 29.6537H6.32531V31.1443L3.90719 33.5625C3.39306 34.0765 3.54262 34.9457 4.19814 35.2588C5.21022 35.7424 6.2943 35.9772 7.37072 35.9771C9.28899 35.9771 11.1824 35.231 12.5966 33.8169C14.3057 32.1078 15.062 29.6579 14.6424 27.2987L17.9725 23.9686C18.145 25.0998 18.6877 26.1386 19.4525 26.9049L27.0052 34.4576C29.0569 36.5094 32.3952 36.5186 34.459 34.4574C36.5132 32.4021 36.5131 29.0586 34.4588 27.0042ZM5.73623 9.7887L2.38225 4.19877L4.19969 2.3814L9.78954 5.73532C9.4005 6.12436 6.26154 9.26339 5.73623 9.7887ZM8.50817 9.99795C9.47911 9.02693 9.18577 9.32035 9.99886 8.50725L15.7542 14.2626L14.2636 15.7533L8.50817 9.99795ZM12.7435 26.2163C12.4775 26.4824 12.3733 26.8701 12.4704 27.2337C12.9552 29.0485 12.4323 30.9998 11.1059 32.3264C9.91365 33.5186 8.24513 34.0461 6.63328 33.8178L8.12461 32.3264C8.32226 32.1288 8.43335 31.8607 8.43335 31.5812V28.5998C8.43335 28.0177 7.96142 27.5457 7.3793 27.5457H4.39797C4.11834 27.5457 3.85031 27.6568 3.65266 27.8545L2.16133 29.3458C1.93302 27.7338 2.46058 26.0653 3.65266 24.8732C4.97911 23.5468 6.93056 23.0239 8.7454 23.5087C9.10899 23.6057 9.49662 23.5017 9.76275 23.2356C9.99683 23.0016 22.769 10.2294 23.2366 9.76184C23.5026 9.49578 23.6068 9.10807 23.5096 8.74449C23.0249 6.92972 23.5478 4.97833 24.8742 3.65174C26.0664 2.45959 27.7347 1.93182 29.3468 2.16041L27.8555 3.65174C27.6578 3.84939 27.5467 4.11749 27.5467 4.39699V7.37824C27.5467 7.96036 28.0187 8.4323 28.6008 8.4323H31.5821C31.8617 8.4323 32.1298 8.3212 32.3274 8.12356L33.8187 6.63222C34.0471 8.24428 33.5195 9.91273 32.3274 11.1048C31.001 12.4313 29.0494 12.954 27.2347 12.4694C26.8711 12.3723 26.4835 12.4763 26.2173 12.7424L12.7435 26.2163ZM32.9687 32.9668C31.733 34.2008 29.7269 34.1984 28.4959 32.9673L20.9438 25.4152C19.8762 24.3455 19.5494 22.4819 20.9837 20.9828C22.4827 19.5484 24.3464 19.8754 25.4154 20.9421L32.9681 28.4948C34.2008 29.7275 34.2007 31.7338 32.9687 32.9668Z" fill="#DB332D"/>
<path d="M31.454 29.9624L24.0054 22.5138C23.5938 22.1022 22.9264 22.1022 22.5148 22.5138C22.1032 22.9254 22.1032 23.5928 22.5148 24.0044L29.9633 31.453C30.3749 31.8646 31.0424 31.8646 31.454 31.453C31.8656 31.0414 31.8656 30.374 31.454 29.9624Z" fill="#DB332D"/>
</g>
<defs>
<clipPath id="clip0">
<rect width="36" height="36" fill="white"/>
</clipPath>
</defs>
</svg>
