<svg width="17" height="18" viewBox="0 0 17 18" fill="none" xmlns="http://www.w3.org/2000/svg">
<path d="M13.152 11.2225C12.2368 11.2225 11.4207 11.6586 10.8987 12.3326L6.52753 9.89097C6.62996 9.59691 6.68612 9.27973 6.68612 8.95264C6.68612 8.62224 6.62996 8.30837 6.52423 8.01101L10.8921 5.57269C11.4108 6.25 12.2302 6.68943 13.1487 6.68943C14.7148 6.68943 15.9934 5.4141 15.9934 3.84471C15.9934 2.27533 14.7181 1 13.1487 1C11.5793 1 10.304 2.27533 10.304 3.84471C10.304 4.17511 10.3601 4.49229 10.4659 4.78634L6.10132 7.22467C5.5826 6.54405 4.76322 6.10793 3.84471 6.10793C2.27863 6.10793 1 7.38326 1 8.95264C1 10.522 2.27863 11.7974 3.84802 11.7974C4.76652 11.7974 5.5859 11.3579 6.10793 10.6773L10.4758 13.1189C10.37 13.4163 10.3106 13.7368 10.3106 14.0672C10.3106 15.6333 11.5859 16.9119 13.1553 16.9119C14.7247 16.9119 16 15.6366 16 14.0672C16 12.4978 14.7214 11.2225 13.152 11.2225ZM13.152 1.89537C14.2291 1.89537 15.1046 2.77092 15.1046 3.84802C15.1046 4.92511 14.2291 5.80066 13.152 5.80066C12.0749 5.80066 11.1993 4.92511 11.1993 3.84802C11.1993 2.77092 12.0782 1.89537 13.152 1.89537ZM3.84802 10.9053C2.77093 10.9053 1.89537 10.0297 1.89537 8.95264C1.89537 7.87555 2.77093 7 3.84802 7C4.92511 7 5.80066 7.87555 5.80066 8.95264C5.80066 10.0297 4.92181 10.9053 3.84802 10.9053ZM13.152 16.0165C12.0749 16.0165 11.1993 15.141 11.1993 14.0639C11.1993 12.9868 12.0749 12.1112 13.152 12.1112C14.2291 12.1112 15.1046 12.9868 15.1046 14.0639C15.1046 15.141 14.2291 16.0165 13.152 16.0165Z" fill="#74707C" stroke="#74707C"/>
</svg>
