<svg width="64" height="64" viewBox="0 0 64 64" fill="none" xmlns="http://www.w3.org/2000/svg">
<g clip-path="url(#clip0)">
<path d="M63.8646 21.0538L57.8499 9.20077V4.50001C57.8499 3.80975 57.2904 3.25 56.5998 3.25H7.39978C6.70953 3.25 6.14977 3.80975 6.14977 4.50001V9.2014L0.135251 21.0538C0.0463752 21.2291 0 21.4229 0 21.6194V24.6946C0 28.3486 2.66301 31.3906 6.14977 31.9867V58.25H4.87064C4.18027 58.25 3.62064 58.8097 3.62064 59.5C3.62064 60.1902 4.18027 60.75 4.87064 60.75H7.39015C7.39328 60.75 7.39653 60.7505 7.39978 60.7505H41.5999H51.6001H56.6001H59.1292C59.8195 60.7505 60.3792 60.1907 60.3792 59.5005C60.3792 58.8102 59.8195 58.2505 59.1292 58.2505H57.8501V31.9867C61.337 31.3906 64 28.3487 64 24.6946V21.6194C64 21.4229 63.9536 21.2291 63.8646 21.0538ZM8.64978 5.75001H55.3498V8.25039H46.7602H36.92H27.0801H17.2398H8.64978V5.75001ZM39.3935 21.4932L38.3034 10.7504H45.8342L49.2001 21.8054V24.6946C49.2001 27.3963 47.0019 29.5944 44.3 29.5944C41.5982 29.5944 39.3999 27.3963 39.3999 24.6946V21.6194C39.3999 21.5773 39.3978 21.5352 39.3935 21.4932ZM36.8999 21.6827V24.6946H36.8998C36.8998 27.3963 34.7018 29.5944 32.0001 29.5944C29.2982 29.5944 27.1 27.3963 27.1 24.6946V21.6827L28.2097 10.7504H35.7905L36.8999 21.6827ZM25.697 10.7505L24.6065 21.4933C24.6021 21.5352 24.6 21.5773 24.6 21.6194V24.6946C24.6 27.3963 22.402 29.5944 19.7001 29.5944C16.9982 29.5944 14.8002 27.3963 14.8002 24.6946V21.8056L18.1662 10.7505H25.697ZM2.50001 24.6946V21.9184L8.16728 10.7504H15.5527L12.3543 21.2553C12.3184 21.3733 12.3 21.4961 12.3 21.6194V24.6946C12.3 27.3963 10.1018 29.5944 7.39978 29.5944C4.69802 29.5944 2.50001 27.3963 2.50001 24.6946ZM50.3501 58.2505H42.8499V54.5002V49.5002H44.1C44.7904 49.5002 45.3501 48.9406 45.3501 48.2502C45.3501 47.5599 44.7904 47.0002 44.1 47.0002H42.8499V38.2504H50.3501V58.2505ZM55.3498 58.2505H52.8498V37.0004C52.8498 36.3101 52.2902 35.7504 51.5998 35.7504H41.5997H12.3999C11.7094 35.7504 11.1499 36.3101 11.1499 37.0004V54.5002C11.1499 55.1906 11.7094 55.7502 12.3999 55.7502H40.3499V58.2505H8.64978V31.9867C10.6865 31.6386 12.4422 30.457 13.5501 28.8049C14.8791 30.7867 17.1394 32.0944 19.7 32.0944C22.2605 32.0944 24.5207 30.7867 25.8499 28.8049C27.179 30.7867 29.4395 32.0944 32 32.0944C34.5603 32.0944 36.8208 30.7869 38.1497 28.8049C39.4788 30.7869 41.7393 32.0944 44.2998 32.0944C46.8603 32.0944 49.1208 30.7867 50.4498 28.8049C51.5576 30.457 53.3132 31.6386 55.3498 31.9867V58.2505ZM25.8414 38.2504H30.1964L27.8195 40.6269C27.3314 41.1149 27.3314 41.9064 27.8194 42.3947C28.0635 42.6388 28.3834 42.7609 28.7034 42.7609C29.0232 42.7609 29.343 42.6388 29.5871 42.3948L33.732 38.2504H40.3498V53.2502H13.6499V50.4418L25.8414 38.2504ZM13.6499 46.9062V38.2504H22.3057L13.6499 46.9062ZM61.5 24.6946C61.5 27.3963 59.3019 29.5944 56.6001 29.5944C53.8982 29.5944 51.7001 27.3963 51.7001 24.6946V21.6194C51.7001 21.4961 51.6818 21.3733 51.6458 21.2553L48.4474 10.7504H55.8327L61.5 21.9184V24.6946Z" fill="#DB332D"/>
<path d="M26.142 45.3211C26.4608 45.3211 26.7795 45.1999 27.0234 44.9576L27.0443 44.9368C27.5339 44.4502 27.5362 43.6587 27.0495 43.1691C26.5627 42.6794 25.7711 42.677 25.2816 43.1639L25.2608 43.1847C24.7711 43.6713 24.769 44.4629 25.2555 44.9524C25.4999 45.1982 25.8209 45.3211 26.142 45.3211Z" fill="#DB332D"/>
<path d="M1.27951 58.25H1.25C0.559627 58.25 0 58.8098 0 59.5C0 60.1903 0.559627 60.75 1.25 60.75H1.27951C1.96976 60.75 2.52951 60.1903 2.52951 59.5C2.52951 58.8098 1.96988 58.25 1.27951 58.25Z" fill="#DB332D"/>
<path d="M62.7502 58.2505H62.7207C62.0303 58.2505 61.4707 58.8102 61.4707 59.5005C61.4707 60.1907 62.0303 60.7505 62.7207 60.7505H62.7502C63.4406 60.7505 64.0002 60.1907 64.0002 59.5005C64.0002 58.8102 63.4406 58.2505 62.7502 58.2505Z" fill="#DB332D"/>
</g>
<defs>
<clipPath id="clip0">
<rect width="64" height="64" fill="white"/>
</clipPath>
</defs>
</svg>
