<svg width="22" height="22" viewBox="0 0 22 22" fill="none" xmlns="http://www.w3.org/2000/svg">
<g clip-path="url(#clip0)">
<path d="M11 4.21094C7.25652 4.21094 4.21094 7.25652 4.21094 11C4.21094 14.7435 7.25652 17.7891 11 17.7891C14.7435 17.7891 17.7891 14.7435 17.7891 11C17.7891 7.25652 14.7435 4.21094 11 4.21094ZM11.6445 11.6445H7.26172V10.3555H10.3555V5.34239H11.6445V11.6445Z" fill="#BBB6BF"/>
<path d="M18.7782 3.22182C16.7006 1.14421 13.9382 0 11 0C8.06184 0 5.29942 1.14421 3.22182 3.22182C1.14421 5.29942 0 8.06184 0 11C0 13.9382 1.14421 16.7006 3.22182 18.7782C5.29942 20.8558 8.06184 22 11 22C13.9382 22 16.7006 20.8558 18.7782 18.7782C20.8558 16.7006 22 13.9382 22 11C22 8.06184 20.8558 5.29942 18.7782 3.22182ZM11 19.0781C6.54568 19.0781 2.92188 15.4543 2.92188 11C2.92188 6.54568 6.54568 2.92188 11 2.92188C15.4543 2.92188 19.0781 6.54568 19.0781 11C19.0781 15.4543 15.4543 19.0781 11 19.0781Z" fill="#BBB6BF"/>
</g>
<defs>
<clipPath id="clip0">
<rect width="22" height="22" fill="white"/>
</clipPath>
</defs>
</svg>
