<svg width="49" height="49" viewBox="0 0 49 49" fill="none" xmlns="http://www.w3.org/2000/svg">
<path d="M45.5698 22.1421L44.3009 17.0665C44.6478 16.9928 44.9081 16.685 44.9081 16.3163V15.4979C44.9081 13.7211 43.4625 12.2756 41.6858 12.2756H35.9061V10.5876C35.9061 9.71322 35.1948 9.00195 34.3205 9.00195H4.85904C3.9847 9.00195 3.27343 9.71322 3.27343 10.5876V24.4999C3.27343 24.9236 3.61691 25.2672 4.04068 25.2672C4.46436 25.2672 4.80793 24.9237 4.80793 24.4999V10.5876C4.80793 10.5593 4.83081 10.5365 4.85904 10.5365H34.3204C34.3486 10.5365 34.3715 10.5593 34.3715 10.5876V24.5001C34.3715 24.9238 34.715 25.2674 35.1387 25.2674C35.5624 25.2674 35.906 24.9239 35.906 24.5001V23.6304H44.9565C44.9573 23.6304 44.9579 23.6306 44.9586 23.6306C44.9593 23.6306 44.96 23.6305 44.9607 23.6305C46.0744 23.6312 47.02 24.3622 47.3448 25.3695H44.9591C44.5354 25.3695 44.1919 25.713 44.1919 26.1367V27.7734C44.1919 29.099 45.2703 30.1774 46.5958 30.1774H47.4654V33.5532H45.4593C44.8003 31.6503 42.9914 30.2796 40.8672 30.2796C38.7431 30.2796 36.9341 31.6503 36.2752 33.5532H35.9058V27.7734C35.9058 27.3497 35.5623 27.0061 35.1385 27.0061C34.7149 27.0061 34.3713 27.3496 34.3713 27.7734V33.553H18.4532C17.7942 31.6501 15.9853 30.2794 13.8612 30.2794C11.737 30.2794 9.92805 31.6501 9.26913 33.553H4.85904C4.83081 33.553 4.80793 33.5301 4.80793 33.5019V31.8139H8.13256C8.55624 31.8139 8.89982 31.4705 8.89982 31.0467C8.89982 30.6229 8.55634 30.2794 8.13256 30.2794H0.767252C0.343574 30.2794 0 30.6229 0 31.0467C0 31.4705 0.343479 31.8139 0.767252 31.8139H3.27353V33.5019C3.27353 34.3762 3.98479 35.0875 4.85913 35.0875H9.00346C9.00327 35.1045 9.00212 35.1214 9.00212 35.1386C9.00212 37.8179 11.182 39.9976 13.8612 39.9976C16.5404 39.9976 18.7202 37.8179 18.7202 35.1386C18.7202 35.1213 18.7191 35.1045 18.7189 35.0875H36.0095C36.0094 35.1045 36.0082 35.1214 36.0082 35.1386C36.0082 37.8179 38.188 39.9976 40.8672 39.9976C43.5465 39.9976 45.7263 37.8179 45.7263 35.1386C45.7263 35.1213 45.7251 35.1045 45.7249 35.0875H48.2327C48.6563 35.0875 48.9999 34.744 48.9999 34.3202V26.1365C49 24.1161 47.5092 22.4373 45.5698 22.1421ZM35.9061 13.81H41.6858C42.6165 13.81 43.3737 14.5672 43.3737 15.4979V15.549H35.9061V13.81ZM35.9061 22.096V17.0834H42.7235L43.9766 22.096H35.9061ZM13.8612 38.4634C12.028 38.4634 10.5365 36.9721 10.5365 35.1388C10.5365 33.3055 12.028 31.8141 13.8612 31.8141C15.6944 31.8141 17.1858 33.3055 17.1858 35.1388C17.1858 36.9721 15.6944 38.4634 13.8612 38.4634ZM40.8674 38.4634C39.0342 38.4634 37.5428 36.9721 37.5428 35.1388C37.5428 33.3055 39.0342 31.8141 40.8674 31.8141C42.7006 31.8141 44.1921 33.3055 44.1921 35.1388C44.1921 36.9721 42.7006 38.4634 40.8674 38.4634ZM47.4656 28.6429H46.596C46.1166 28.6429 45.7265 28.2528 45.7265 27.7734V26.9038H47.4655V28.6429H47.4656Z" fill="#DB332D"/>
<path d="M13.8612 33.5532C12.9869 33.5532 12.2756 34.2645 12.2756 35.1388C12.2756 36.0132 12.9869 36.7244 13.8612 36.7244C14.7356 36.7244 15.4469 36.0132 15.4469 35.1388C15.4469 34.2645 14.7356 33.5532 13.8612 33.5532Z" fill="#DB332D"/>
<path d="M40.8673 33.5532C39.993 33.5532 39.2817 34.2645 39.2817 35.1388C39.2817 36.0132 39.993 36.7244 40.8673 36.7244C41.7417 36.7244 42.453 36.0132 42.453 35.1388C42.453 34.2645 41.7417 33.5532 40.8673 33.5532Z" fill="#DB332D"/>
<path d="M31.8653 30.2798H20.4081C19.9844 30.2798 19.6409 30.6233 19.6409 31.047C19.6409 31.4708 19.9843 31.8143 20.4081 31.8143H31.8653C32.289 31.8143 32.6326 31.4708 32.6326 31.047C32.6326 30.6233 32.2891 30.2798 31.8653 30.2798Z" fill="#DB332D"/>
<path d="M12.2244 27.0062H2.40397C1.98029 27.0062 1.63672 27.3497 1.63672 27.7735C1.63672 28.1973 1.9802 28.5407 2.40397 28.5407H12.2244C12.6481 28.5407 12.9917 28.1973 12.9917 27.7735C12.9917 27.3497 12.6481 27.0062 12.2244 27.0062Z" fill="#DB332D"/>
<path d="M26.6793 16.5921C26.3797 16.2925 25.8938 16.2925 25.5943 16.5922L18.7714 23.4149L15.2221 19.8656C14.9224 19.566 14.4366 19.566 14.1371 19.8656C13.8374 20.1653 13.8374 20.6509 14.1371 20.9506L18.229 25.0425C18.3788 25.1923 18.5751 25.2672 18.7714 25.2672C18.9677 25.2672 19.1642 25.1923 19.3139 25.0425L26.6792 17.6772C26.9788 17.3774 26.9788 16.8917 26.6793 16.5921Z" fill="#DB332D"/>
</svg>
