<svg width="27" height="27" viewBox="0 0 27 27" fill="none" xmlns="http://www.w3.org/2000/svg">
<path d="M13.5 2.28174C6.04408 2.28174 0 8.32582 0 15.7818C0 19.0307 1.14832 22.0116 3.06052 24.341C3.35553 21.9788 5.71484 19.981 9.02314 19.0349C10.2318 20.161 11.793 20.8443 13.5 20.8443C15.1668 20.8443 16.6974 20.1954 17.8937 19.1165C21.2306 20.1453 23.5393 22.2599 23.6152 24.7177C25.7198 22.3368 27 19.2097 27 15.7818C27 8.32582 20.9559 2.28174 13.5 2.28174ZM13.5 19.2456C12.6382 19.2456 11.8262 19.0088 11.1051 18.5987C9.36746 17.6099 8.17104 15.5865 8.17104 13.2504C8.17104 9.94474 10.5615 7.25524 13.5 7.25524C16.4388 7.25524 18.829 9.94474 18.829 13.2504C18.829 15.6224 17.5952 17.6708 15.8143 18.6424C15.1127 19.0249 14.3299 19.2456 13.5 19.2456Z" fill="#DB332D"/>
</svg>
