<svg width="23" height="13" viewBox="0 0 23 13" fill="none" xmlns="http://www.w3.org/2000/svg">
<path fill-rule="evenodd" clip-rule="evenodd" d="M11.2243 12.7382H12.5154C12.5154 12.7382 12.9054 12.6953 13.1045 12.4807C13.2878 12.2836 13.2819 11.9136 13.2819 11.9136C13.2819 11.9136 13.2567 10.1811 14.0607 9.92603C14.8534 9.67473 15.8712 11.6004 16.95 12.3408C17.7658 12.9012 18.3857 12.7783 18.3857 12.7783L21.2702 12.7382C21.2702 12.7382 22.7792 12.6452 22.0637 11.4588C22.0051 11.3617 21.647 10.5811 19.919 8.97712C18.1103 7.29835 18.3525 7.56989 20.5313 4.66598C21.8582 2.89748 22.3886 1.81779 22.2229 1.35536C22.0649 0.914923 21.089 1.03134 21.089 1.03134L17.8411 1.05157C17.8411 1.05157 17.6004 1.01873 17.4218 1.12547C17.2473 1.23015 17.135 1.47412 17.135 1.47412C17.135 1.47412 16.621 2.84265 15.9354 4.0065C14.4892 6.46234 13.9109 6.59195 13.6746 6.43947C13.1247 6.08407 13.262 5.01171 13.262 4.24988C13.262 1.86999 13.6229 0.877682 12.5591 0.620809C12.206 0.535477 11.9462 0.479176 11.0434 0.470086C9.88449 0.458063 8.90362 0.473604 8.34823 0.745726C7.97876 0.926652 7.69373 1.32985 7.86733 1.35302C8.08197 1.38175 8.56816 1.48409 8.82591 1.83509C9.15873 2.28785 9.14701 3.30479 9.14701 3.30479C9.14701 3.30479 9.33819 6.10635 8.70041 6.45442C8.26261 6.69312 7.66206 6.20576 6.37271 3.97776C5.71205 2.83649 5.21326 1.57499 5.21326 1.57499C5.21326 1.57499 5.11708 1.33923 4.94554 1.21314C4.73734 1.06037 4.44645 1.01169 4.44645 1.01169L1.36015 1.03192C1.36015 1.03192 0.89684 1.04483 0.726764 1.24628C0.575454 1.42545 0.714741 1.79609 0.714741 1.79609C0.714741 1.79609 3.131 7.44908 5.86688 10.2979C8.3755 12.9097 11.2243 12.7382 11.2243 12.7382Z" fill="white"/>
</svg>
