<svg width="22" height="22" viewBox="0 0 22 22" fill="none" xmlns="http://www.w3.org/2000/svg">
<path d="M5.1411 4.46094L13.9115 2.06701L13.447 1.12821C13.1431 0.517988 12.402 0.265995 11.7917 0.569869L3.94043 4.46094H5.1411Z" fill="#BBB6BF"/>
<path d="M16.634 2.13623C16.5253 2.13623 16.4166 2.15105 16.3079 2.1807L14.2475 2.74398L7.95508 4.46098H15.0974H18.2102L17.8248 3.04785C17.6766 2.49693 17.1775 2.13623 16.634 2.13623Z" fill="#BBB6BF"/>
<path d="M19.4974 5.32568H19.2157H18.8328H18.4499H15.5272H4.78787H3.37967H2.19382H1.97395H1.23773C0.847389 5.32568 0.499045 5.50603 0.271757 5.79014C0.167996 5.92108 0.0889388 6.07178 0.0444694 6.23731C0.0172937 6.34107 0 6.44977 0 6.56094V6.70918V8.11737V20.3242C0 21.0061 0.553397 21.5595 1.23526 21.5595H19.4949C20.1768 21.5595 20.7302 21.0061 20.7302 20.3242V16.8778H13.4001C12.2414 16.8778 11.3002 15.9366 11.3002 14.7779V13.6464V13.2635V12.8805V12.0307C11.3002 11.4625 11.5274 10.9461 11.8956 10.5682C12.2217 10.2321 12.659 10.0049 13.1481 9.94803C13.2296 9.93817 13.3136 9.93321 13.3976 9.93321H19.7024H20.0853H20.4683H20.7302V6.56094C20.7326 5.87908 20.1792 5.32568 19.4974 5.32568Z" fill="#BBB6BF"/>
<path d="M21.597 11.1141C21.4735 11.0005 21.3277 10.914 21.1646 10.8572C21.0386 10.8152 20.9052 10.7905 20.7644 10.7905H20.7323H20.7076H20.3247H18.9436H13.3998C12.7179 10.7905 12.1646 11.3439 12.1646 12.0258V12.6409V13.0239V13.4068V14.7755C12.1646 15.4573 12.7179 16.0107 13.3998 16.0107H20.7323H20.7644C20.9052 16.0107 21.0386 15.986 21.1646 15.944C21.3277 15.8897 21.4735 15.8007 21.597 15.6871C21.844 15.4623 21.9997 15.1362 21.9997 14.7755V12.0258C21.9997 11.6651 21.844 11.3389 21.597 11.1141ZM15.979 13.6464C15.979 13.9874 15.7023 14.2641 15.3614 14.2641H14.9513C14.6104 14.2641 14.3337 13.9874 14.3337 13.6464V13.2363C14.3337 13.0387 14.4251 12.8632 14.5708 12.7521C14.6771 12.6705 14.808 12.6187 14.9513 12.6187H15.0551H15.3614C15.7023 12.6187 15.979 12.8954 15.979 13.2363V13.6464Z" fill="#BBB6BF"/>
</svg>
