<svg width="64" height="64" viewBox="0 0 64 64" fill="none" xmlns="http://www.w3.org/2000/svg">
<g clip-path="url(#clip0)">
<path d="M60.9487 37.4867H59.991V28.8598C59.991 27.4941 59.3112 26.2848 58.2731 25.5501V24.3755C58.2731 22.6716 56.887 21.2855 55.1831 21.2855H54.468L57.2041 17.2705C58.1212 15.9247 57.7725 14.0836 56.4267 13.1663L37.8604 0.513843C37.2085 0.0694682 36.4227 -0.0945318 35.6472 0.0525932C34.8721 0.199468 34.2005 0.639343 33.7562 1.29134L17.7311 24.8067H13.2717L14.3476 13.9155C14.3597 13.7927 14.4395 13.6863 14.5507 13.6445C15.9369 13.1218 17.1381 12.1458 17.9331 10.8963C17.9957 10.798 18.1139 10.7417 18.2361 10.7541L25.2305 11.4451C25.732 11.4937 26.1781 11.1285 26.2276 10.6272C26.2771 10.126 25.911 9.67959 25.4097 9.63009L18.4154 8.93909C17.6035 8.85959 16.8292 9.23372 16.3942 9.91722C15.8097 10.836 14.9265 11.5535 13.9074 11.9377C13.1402 12.227 12.6135 12.916 12.5325 13.7361L11.439 24.8066H10.2761L11.9776 7.58109C12.0389 6.96109 12.5922 6.50559 13.213 6.56772L27.3472 7.96397C27.8485 8.01234 28.2949 7.64734 28.3444 7.14609C28.3939 6.64484 28.0277 6.19847 27.5265 6.14897L13.3922 4.75272C11.7717 4.59284 10.3226 5.78097 10.1625 7.40172L8.79098 21.2855H6.45535C4.7516 21.2855 3.36535 22.6716 3.36535 24.3755V25.1767C1.97148 25.8185 1.00098 27.2275 1.00098 28.8598V59.9467C1.00098 62.1817 2.81923 64 5.05435 64H55.9377C58.1727 64 59.991 62.1817 59.991 59.9467V51.32H60.9487C62.0792 51.32 62.9989 50.4003 62.9989 49.27V39.5368C62.999 38.4063 62.0792 37.4867 60.9487 37.4867ZM55.1831 23.1095C55.8814 23.1093 56.4492 23.6773 56.4492 24.3756V24.8402C56.2815 24.819 56.1111 24.8068 55.9377 24.8068H52.0684L53.225 23.1095H55.1831ZM35.2634 2.31834C35.4333 2.06897 35.6902 1.90072 35.9867 1.84447C36.0576 1.83109 36.1287 1.82434 36.1994 1.82434C36.424 1.82434 36.6435 1.89159 36.8332 2.02084L55.3996 14.6733C55.9144 15.0242 56.0479 15.7285 55.6971 16.2432L49.8614 24.8065H48.4609L51.322 20.6081C51.786 19.9272 51.8242 19.0607 51.4215 18.3466C50.8862 17.3978 50.6692 16.2807 50.8105 15.2008C50.9155 14.3975 50.562 13.6132 49.888 13.154L40.2632 6.59497C39.5891 6.13559 38.7299 6.09347 38.0206 6.48509C37.0675 7.01134 35.9484 7.21797 34.8696 7.06697C34.0696 6.95472 33.2582 7.31597 32.8011 7.98659L21.3387 24.8066H19.9382L35.2634 2.31834ZM35.665 17.8047C31.6936 17.8047 28.4336 20.9013 28.168 24.8066H23.5456L34.308 9.01372C34.3081 9.01372 34.3081 9.01372 34.3081 9.01372C34.3692 8.92384 34.4706 8.87034 34.5747 8.87034C34.5886 8.87034 34.6025 8.87134 34.6164 8.87322C36.0836 9.07847 37.6055 8.79772 38.902 8.08184C39.004 8.02534 39.135 8.03347 39.236 8.10222L48.8609 14.6613C48.9616 14.7301 49.017 14.8491 49.002 14.9646C48.8099 16.4332 49.1051 17.9525 49.833 19.2427C49.8914 19.3463 49.8842 19.4791 49.815 19.581L46.254 24.8065H43.1624C42.8965 20.9013 39.6366 17.8047 35.665 17.8047ZM41.3335 24.8067H29.9966C30.2579 21.9081 32.6996 19.6287 35.665 19.6287C38.6305 19.6286 41.0724 21.9081 41.3335 24.8067ZM5.18923 24.3755C5.18923 23.6772 5.7571 23.1092 6.45535 23.1092H8.61085L8.44323 24.8066H5.18923V24.3755ZM2.82485 28.8598C2.82485 27.6306 3.82498 26.6305 5.05435 26.6305H55.9377C57.1671 26.6305 58.1671 27.6306 58.1671 28.8598V31.3903H2.82485V28.8598ZM58.1671 59.9467C58.1671 61.176 57.1671 62.1761 55.9377 62.1761H5.05435C3.82498 62.1761 2.82485 61.176 2.82485 59.9467V57.4162H7.7426C8.24635 57.4162 8.65448 57.008 8.65448 56.5043C8.65448 56.0007 8.24623 55.5925 7.7426 55.5925H2.82485V33.2142H58.1671V37.4867H49.4964H49.4962C46.7642 37.4867 44.3977 39.0792 43.2746 41.3843C43.2709 41.3921 43.2666 41.3996 43.2627 41.4073C43.2532 41.427 43.245 41.4473 43.2357 41.4671C43.102 41.7512 42.9857 42.0453 42.8911 42.3488C42.8909 42.3497 42.8906 42.3505 42.8904 42.3513C42.6885 43 42.5796 43.6891 42.5796 44.4033C42.5796 48.2172 45.6824 51.32 49.4961 51.32H49.4962H58.167V55.5925H13.5819C13.0781 55.5925 12.67 56.0007 12.67 56.5043C12.67 57.008 13.0782 57.4162 13.5819 57.4162H58.1671V59.9467ZM61.1751 49.2698C61.1751 49.3946 61.0736 49.4961 60.9487 49.4961H49.4965C47.5658 49.4961 45.8826 48.4162 45.0192 46.8288C44.98 46.7567 44.9425 46.6835 44.9066 46.6093C44.835 46.461 44.7704 46.3086 44.7132 46.1526C44.513 45.6068 44.4037 45.0176 44.4037 44.4033C44.4037 43.7891 44.5131 43.1998 44.7132 42.6541C44.7705 42.4982 44.8351 42.3458 44.9066 42.1973C44.9425 42.1232 44.98 42.05 45.0192 41.9778C45.8826 40.3905 47.5658 39.3106 49.4965 39.3106H60.9487C61.0735 39.3106 61.1751 39.4121 61.1751 39.5368V49.2698Z" fill="#DB332D"/>
<path d="M49.7107 40.7031C47.6705 40.7031 46.0107 42.363 46.0107 44.4031C46.0107 46.4432 47.6705 48.103 49.7107 48.103C51.751 48.103 53.4107 46.4432 53.4107 44.4031C53.4107 42.363 51.751 40.7031 49.7107 40.7031ZM49.7107 46.2791C48.6762 46.2791 47.8346 45.4375 47.8346 44.4031C47.8346 43.3687 48.6762 42.527 49.7107 42.527C50.7452 42.527 51.5869 43.3686 51.5869 44.4031C51.5869 45.4376 50.7452 46.2791 49.7107 46.2791Z" fill="#DB332D"/>
</g>
<defs>
<clipPath id="clip0">
<rect width="64" height="64" fill="white"/>
</clipPath>
</defs>
</svg>
