<svg width="25" height="25" viewBox="0 0 25 25" fill="none" xmlns="http://www.w3.org/2000/svg">
<g clip-path="url(#clip0)">
<path d="M24.7614 20.9187L14.0242 2.32134C13.7061 1.77032 13.1363 1.44136 12.5 1.44136C11.8637 1.44136 11.2939 1.77032 10.9758 2.32134L0.238623 20.9187C-0.079541 21.4697 -0.079541 22.1277 0.238623 22.6787C0.556738 23.2297 1.12651 23.5587 1.76279 23.5587H23.2372C23.8735 23.5587 24.4433 23.2297 24.7614 22.6787C25.0795 22.1277 25.0795 21.4697 24.7614 20.9187ZM23.4913 21.9454C23.4597 22.0002 23.3845 22.0921 23.2373 22.0921H1.76279C1.61543 22.0921 1.54033 22.0002 1.50879 21.9454C1.4772 21.8906 1.43511 21.7797 1.50879 21.6521L12.2459 3.05464C12.3196 2.92705 12.4367 2.90796 12.5 2.90796C12.5632 2.90796 12.6803 2.92701 12.754 3.05464L23.4912 21.6521C23.5649 21.7797 23.5229 21.8906 23.4913 21.9454Z" fill="#E54545"/>
<path d="M13.2342 8.11011H11.7676V15.9322H13.2342V8.11011Z" fill="#E54545"/>
<path d="M12.5003 19.3545C13.0403 19.3545 13.478 18.9167 13.478 18.3767C13.478 17.8367 13.0403 17.3989 12.5003 17.3989C11.9602 17.3989 11.5225 17.8367 11.5225 18.3767C11.5225 18.9167 11.9602 19.3545 12.5003 19.3545Z" fill="#E54545"/>
</g>
<defs>
<clipPath id="clip0">
<rect width="25" height="25" fill="white"/>
</clipPath>
</defs>
</svg>
