<svg width="24" height="24" viewBox="0 0 24 24" fill="none" xmlns="http://www.w3.org/2000/svg">
<path d="M22.2026 4.13788H1.79742C0.804703 4.13788 0 4.94258 0 5.9353V18.0647C0 19.0573 0.804703 19.8621 1.79742 19.8621H22.2026C23.1952 19.8621 24 19.0574 24 18.0647V5.9353C24 4.94258 23.1953 4.13788 22.2026 4.13788Z" fill="#82C3D2"/>
<path d="M2.78973 6.02094C2.75227 5.86241 2.74295 5.80391 2.8141 5.7328C2.84879 5.69811 2.84879 5.64191 2.8141 5.60722C2.77941 5.57253 2.72321 5.57253 2.68852 5.60722C2.54452 5.75127 2.57888 5.90075 2.61615 6.059C2.50262 6.02192 2.38487 6.04944 2.32177 6.12903C2.29046 6.16874 2.2299 6.28011 2.34338 6.45796C2.36977 6.49925 2.42434 6.51139 2.46601 6.48524C2.5074 6.45885 2.51945 6.40386 2.49305 6.36261C2.45049 6.29563 2.44923 6.25433 2.46113 6.23924C2.4752 6.22138 2.51879 6.21196 2.56445 6.22813C2.59393 6.23835 2.66246 6.27374 2.66246 6.38061C2.66246 6.46597 2.62299 6.54421 2.55418 6.59507C2.48523 6.64607 2.39598 6.66046 2.30996 6.63374C2.20374 6.6013 2.12954 6.48941 2.12954 6.36158C2.12954 6.27013 2.14913 6.17769 2.18513 6.09669C2.19085 6.08474 2.3266 5.80353 2.36157 5.69872C2.43071 5.49139 2.36045 5.38714 2.31249 5.3436C2.24832 5.28514 2.15452 5.27057 2.0738 5.30596C2.06152 5.31139 2.0514 5.31927 2.04076 5.32658C2.03012 5.31922 2.01995 5.31139 2.00771 5.30596C1.92704 5.27057 1.83329 5.2851 1.76902 5.3436C1.72107 5.38714 1.6508 5.49144 1.71995 5.69872C1.75491 5.80353 1.89062 6.08474 1.89516 6.09411C1.93234 6.17774 1.95198 6.27017 1.95198 6.36163C1.95198 6.4895 1.87782 6.60135 1.77155 6.63378C1.68521 6.66046 1.59624 6.64625 1.52734 6.59511C1.45852 6.54425 1.41905 6.46607 1.41905 6.38066C1.41905 6.27378 1.48759 6.23844 1.51707 6.22817C1.56287 6.21205 1.60623 6.22138 1.62038 6.23928C1.63229 6.25438 1.63102 6.29567 1.58846 6.36266C1.56207 6.40396 1.57412 6.45899 1.61551 6.48528C1.65723 6.51167 1.71198 6.49935 1.73813 6.458C1.85162 6.28016 1.79105 6.16883 1.75974 6.12908C1.6966 6.04949 1.5789 6.02192 1.46537 6.05905C1.50268 5.90085 1.53699 5.75127 1.39299 5.60727C1.3583 5.57258 1.3021 5.57258 1.26741 5.60727C1.23273 5.64196 1.23273 5.69816 1.26741 5.73285C1.33852 5.80396 1.32929 5.86241 1.29179 6.02099C1.26924 6.116 1.2413 6.2345 1.2413 6.38057C1.2413 6.47778 1.27543 6.57069 1.33295 6.64705H1.33009C1.28101 6.64705 1.24126 6.68675 1.24126 6.73588C1.24126 6.785 1.28096 6.82471 1.33009 6.82471H1.33295C1.27543 6.90102 1.2413 6.99397 1.2413 7.09114C1.2413 7.23721 1.26924 7.35571 1.2917 7.45077C1.32915 7.60935 1.33848 7.6678 1.26732 7.73891C1.23263 7.7736 1.23263 7.8298 1.26732 7.86449C1.28466 7.88183 1.3074 7.8905 1.33013 7.8905C1.35282 7.8905 1.3756 7.88183 1.39295 7.86449C1.53695 7.72044 1.50259 7.57091 1.46532 7.41271C1.57885 7.44964 1.6966 7.42227 1.7597 7.34267C1.79101 7.30297 1.85157 7.1916 1.73809 7.01375C1.71179 6.97246 1.6569 6.96017 1.61546 6.98647C1.57407 7.01286 1.56202 7.06785 1.58841 7.1091C1.63098 7.17608 1.63224 7.21738 1.62034 7.23247C1.60623 7.25014 1.56282 7.25952 1.51702 7.24358C1.48754 7.23336 1.41901 7.19797 1.41901 7.0911C1.41901 7.00574 1.45848 6.9275 1.52729 6.87669C1.59624 6.82569 1.6854 6.81111 1.77151 6.83802C1.87773 6.87046 1.95193 6.98235 1.95193 7.11017C1.95193 7.20163 1.93234 7.29407 1.89512 7.37769L1.31335 8.68644C1.26554 8.79402 1.24126 8.90835 1.24126 9.0261C1.24126 9.17764 1.31016 9.31602 1.41863 9.40049C1.31021 9.48496 1.24126 9.62333 1.24126 9.77488C1.24126 9.89267 1.26559 10.007 1.31335 10.1145L1.89502 11.4232C1.9322 11.5069 1.95184 11.5993 1.95184 11.6908C1.95184 11.8186 1.87768 11.9305 1.77141 11.9629C1.68507 11.9898 1.5961 11.9754 1.5272 11.9242C1.45838 11.8734 1.41891 11.7952 1.41891 11.7098C1.41891 11.603 1.48745 11.5676 1.51693 11.5573C1.56273 11.5414 1.60609 11.5505 1.62024 11.5685C1.63215 11.5835 1.63088 11.6248 1.58832 11.6918C1.56193 11.7331 1.57398 11.7881 1.61537 11.8145C1.65709 11.8408 1.71184 11.8287 1.73799 11.7872C1.85148 11.6093 1.79091 11.498 1.7596 11.4583C1.69646 11.3786 1.57876 11.3512 1.46523 11.3882C1.50254 11.23 1.53685 11.0804 1.39285 10.9364C1.35816 10.9018 1.30196 10.9018 1.26727 10.9364C1.23259 10.9711 1.23259 11.0273 1.26727 11.062C1.33838 11.1331 1.32915 11.1916 1.29165 11.3502C1.2692 11.4451 1.24126 11.5636 1.24126 11.7097C1.24126 11.8069 1.27538 11.8998 1.3329 11.9762H1.33004C1.28096 11.9762 1.24121 12.0159 1.24121 12.065C1.24121 12.1141 1.28091 12.1538 1.33004 12.1538H1.3329C1.27538 12.2302 1.24126 12.3231 1.24126 12.4203C1.24126 12.5664 1.2692 12.6849 1.29165 12.7799C1.3291 12.9385 1.33843 12.997 1.26727 13.0681C1.23259 13.1028 1.23259 13.159 1.26727 13.1937C1.28462 13.211 1.30735 13.2197 1.33009 13.2197C1.35277 13.2197 1.37555 13.211 1.3929 13.1937C1.5369 13.0496 1.50254 12.9001 1.46527 12.7419C1.5788 12.7788 1.69655 12.7514 1.75965 12.6718C1.79096 12.6321 1.85152 12.5208 1.73804 12.3429C1.71174 12.3016 1.65685 12.2893 1.61541 12.3156C1.57402 12.342 1.56198 12.397 1.58837 12.4383C1.63093 12.5053 1.6322 12.5465 1.62029 12.5616C1.60618 12.5795 1.56277 12.5888 1.51698 12.5728C1.48749 12.5625 1.41896 12.5271 1.41896 12.4203C1.41896 12.3349 1.45843 12.2567 1.52724 12.2059C1.5962 12.1549 1.68535 12.1403 1.77146 12.1672C1.87768 12.1996 1.95188 12.3115 1.95188 12.4393C1.95188 12.5308 1.93229 12.6232 1.89507 12.7069L1.31335 14.0158C1.26554 14.1233 1.24126 14.2377 1.24126 14.3555C1.24126 14.507 1.31016 14.6454 1.41863 14.7298C1.31021 14.8143 1.24126 14.9527 1.24126 15.1042C1.24126 15.222 1.26559 15.3364 1.31335 15.4439L1.89502 16.7526C1.9322 16.8362 1.95184 16.9287 1.95184 17.0201C1.95184 17.148 1.87768 17.2599 1.77141 17.2923C1.68507 17.3192 1.5961 17.3046 1.5272 17.2536C1.45838 17.2027 1.41891 17.1245 1.41891 17.0392C1.41891 16.9323 1.48745 16.897 1.51693 16.8867C1.56273 16.8707 1.60609 16.8799 1.62024 16.8978C1.63215 16.9129 1.63088 16.9542 1.58832 17.0212C1.56193 17.0625 1.57398 17.1175 1.61537 17.1438C1.65709 17.1702 1.71184 17.158 1.73799 17.1165C1.85148 16.9387 1.79091 16.8274 1.7596 16.7876C1.69646 16.7078 1.57876 16.6805 1.46523 16.7176C1.50254 16.5594 1.53685 16.4098 1.39285 16.2658C1.35816 16.2311 1.30196 16.2311 1.26727 16.2658C1.23259 16.3005 1.23259 16.3567 1.26727 16.3914C1.33838 16.4625 1.32915 16.5209 1.29165 16.6795C1.2692 16.7745 1.24126 16.8929 1.24126 17.039C1.24126 17.1782 1.30796 17.3108 1.41948 17.3943C1.30796 17.4778 1.24126 17.6104 1.24126 17.7496C1.24126 17.8957 1.2692 18.0142 1.29165 18.1093C1.3291 18.2678 1.33843 18.3263 1.26727 18.3974C1.23259 18.4321 1.23259 18.4883 1.26727 18.523C1.28462 18.5403 1.30735 18.549 1.33009 18.549C1.35277 18.549 1.37555 18.5403 1.3929 18.523C1.5369 18.3789 1.50254 18.2294 1.46527 18.0711C1.5788 18.1081 1.69655 18.0807 1.75965 18.0011C1.79096 17.9614 1.85152 17.85 1.73804 17.6722C1.71174 17.6309 1.65685 17.6188 1.61541 17.6449C1.57402 17.6713 1.56198 17.7263 1.58837 17.7675C1.63093 17.8345 1.6322 17.8758 1.62029 17.8909C1.60618 17.9088 1.56277 17.918 1.51698 17.902C1.48749 17.8918 1.41896 17.8564 1.41896 17.7495C1.41896 17.6642 1.45843 17.5859 1.52724 17.5351C1.5962 17.4841 1.68535 17.4697 1.77146 17.4964C1.87768 17.5288 1.95188 17.6407 1.95188 17.7686C1.95188 17.86 1.93229 17.9525 1.89629 18.0335C1.89057 18.0454 1.75482 18.3266 1.71985 18.4314C1.65071 18.6388 1.72098 18.743 1.76893 18.7865C1.80995 18.8239 1.86277 18.8435 1.91677 18.8435C1.94738 18.8435 1.97841 18.837 2.00766 18.8242C2.01995 18.8188 2.03007 18.8109 2.04071 18.8036C2.05135 18.811 2.06152 18.8188 2.07376 18.8242C2.10296 18.8371 2.13409 18.8435 2.16465 18.8435C2.21851 18.8435 2.27143 18.8239 2.31249 18.7865C2.36045 18.743 2.43071 18.6387 2.36157 18.4314C2.3266 18.3266 2.1909 18.0455 2.18635 18.036C2.14918 17.9524 2.12954 17.86 2.12954 17.7685C2.12954 17.6406 2.2037 17.5288 2.30996 17.4964C2.39635 17.4696 2.48527 17.484 2.55418 17.535C2.62299 17.5859 2.66246 17.6641 2.66246 17.7495C2.66246 17.8564 2.59393 17.8917 2.56445 17.902C2.51884 17.918 2.47515 17.9088 2.46113 17.8909C2.44923 17.8758 2.45049 17.8345 2.49305 17.7675C2.51945 17.7262 2.5074 17.6713 2.46601 17.6449C2.42452 17.6188 2.36982 17.631 2.34338 17.6721C2.2299 17.85 2.29046 17.9613 2.32177 18.0011C2.38491 18.0807 2.50262 18.1081 2.61615 18.0711C2.57884 18.2293 2.54452 18.3789 2.68852 18.5229C2.70587 18.5403 2.7286 18.5489 2.75134 18.5489C2.77407 18.5489 2.7968 18.5403 2.81415 18.5229C2.84884 18.4882 2.84884 18.432 2.81415 18.3973C2.74304 18.3262 2.75227 18.2678 2.78977 18.1092C2.81223 18.0141 2.84016 17.8956 2.84016 17.7496C2.84016 17.6104 2.77346 17.4778 2.66199 17.3943C2.77346 17.3107 2.84016 17.1782 2.84016 17.039C2.84016 16.8929 2.81223 16.7744 2.78977 16.6793C2.75232 16.5208 2.74299 16.4623 2.81415 16.3912C2.84884 16.3565 2.84884 16.3003 2.81415 16.2656C2.77946 16.2309 2.72326 16.2309 2.68857 16.2656C2.54457 16.4097 2.57893 16.5591 2.6162 16.7174C2.50266 16.6803 2.38491 16.7076 2.32182 16.7874C2.29051 16.8271 2.22995 16.9385 2.34343 17.1163C2.36982 17.1576 2.42438 17.1698 2.46605 17.1436C2.50745 17.1172 2.51949 17.0623 2.4931 17.021C2.45054 16.954 2.44927 16.9127 2.46118 16.8976C2.47524 16.8798 2.51884 16.8706 2.56449 16.8865C2.59398 16.8967 2.66251 16.9321 2.66251 17.039C2.66251 17.1244 2.62304 17.2026 2.55423 17.2534C2.48527 17.3044 2.39602 17.319 2.31001 17.2921C2.20379 17.2596 2.12959 17.1478 2.12959 17.0199C2.12959 16.9285 2.14918 16.836 2.1864 16.7524L2.76807 15.4437C2.81588 15.3362 2.84016 15.2218 2.84016 15.104C2.84016 14.9525 2.77126 14.8141 2.66279 14.7297C2.77126 14.6452 2.84016 14.5068 2.84016 14.3553C2.84016 14.2375 2.81584 14.1231 2.76807 14.0156L2.1864 12.7069C2.14923 12.6233 2.12959 12.5308 2.12959 12.4394C2.12959 12.3115 2.20374 12.1997 2.31001 12.1672C2.3964 12.1406 2.48532 12.1549 2.55423 12.2059C2.62304 12.2568 2.66251 12.335 2.66251 12.4203C2.66251 12.5272 2.59398 12.5625 2.56449 12.5728C2.51888 12.5889 2.4752 12.5796 2.46118 12.5617C2.44927 12.5466 2.45054 12.5053 2.4931 12.4383C2.51949 12.397 2.50745 12.342 2.46605 12.3157C2.42457 12.2897 2.36987 12.3018 2.34343 12.343C2.22995 12.5208 2.29051 12.6321 2.32182 12.6719C2.38496 12.7515 2.50266 12.7789 2.6162 12.7419C2.57888 12.9001 2.54457 13.0497 2.68857 13.1937C2.70591 13.2111 2.72865 13.2197 2.75138 13.2197C2.77412 13.2197 2.79685 13.2111 2.8142 13.1937C2.84888 13.159 2.84888 13.1028 2.8142 13.0681C2.74309 12.997 2.75232 12.9386 2.78982 12.78C2.81227 12.6849 2.84021 12.5664 2.84021 12.4204C2.84021 12.3231 2.80609 12.2302 2.74857 12.1539H2.75143C2.80051 12.1539 2.84026 12.1142 2.84026 12.0651C2.84026 12.016 2.80055 11.9762 2.75143 11.9762H2.74857C2.80609 11.8999 2.84021 11.807 2.84021 11.7097C2.84021 11.5637 2.81227 11.4452 2.78982 11.3501C2.75237 11.1915 2.74304 11.1331 2.8142 11.062C2.84888 11.0273 2.84888 10.9711 2.8142 10.9364C2.77951 10.9017 2.7233 10.9017 2.68862 10.9364C2.54462 11.0804 2.57898 11.23 2.61624 11.3882C2.50271 11.3512 2.38496 11.3786 2.32187 11.4582C2.29055 11.4979 2.22999 11.6093 2.34348 11.7871C2.36987 11.8284 2.42443 11.8404 2.4661 11.8144C2.50749 11.788 2.51954 11.733 2.49315 11.6918C2.45059 11.6248 2.44932 11.5835 2.46123 11.5684C2.47529 11.5505 2.51888 11.5414 2.56454 11.5573C2.59402 11.5675 2.66255 11.6029 2.66255 11.7098C2.66255 11.7951 2.62309 11.8734 2.55427 11.9242C2.48532 11.9752 2.39607 11.9896 2.31005 11.9629C2.20384 11.9304 2.12963 11.8185 2.12963 11.6907C2.12963 11.5993 2.14923 11.5068 2.18645 11.4232L2.76812 10.1145C2.81593 10.007 2.84021 9.89258 2.84021 9.77483C2.84021 9.62328 2.7713 9.48491 2.66284 9.40044C2.7713 9.31602 2.84021 9.1776 2.84021 9.02605C2.84021 8.90825 2.81588 8.79392 2.76812 8.68639L2.18645 7.37769C2.14927 7.29407 2.12963 7.20163 2.12963 7.11017C2.12963 6.9823 2.20379 6.87046 2.31005 6.83802C2.39645 6.81135 2.48537 6.82569 2.55427 6.87669C2.62309 6.92755 2.66255 7.00574 2.66255 7.0911C2.66255 7.19797 2.59402 7.23332 2.56454 7.24358C2.51893 7.25957 2.47524 7.25019 2.46123 7.23247C2.44932 7.21738 2.45059 7.17608 2.49315 7.1091C2.51954 7.0678 2.50749 7.01282 2.4661 6.98647C2.42462 6.96046 2.36991 6.97241 2.34348 7.01371C2.22999 7.19155 2.29055 7.30288 2.32187 7.34263C2.38501 7.42222 2.50271 7.44964 2.61624 7.41266C2.57893 7.57086 2.54462 7.72044 2.68862 7.86444C2.70596 7.88178 2.7287 7.89046 2.75143 7.89046C2.77412 7.89046 2.7969 7.88178 2.81424 7.86444C2.84893 7.82975 2.84893 7.77355 2.81424 7.73886C2.74313 7.66775 2.75237 7.6093 2.78987 7.45072C2.81232 7.35566 2.84026 7.23716 2.84026 7.0911C2.84026 6.99388 2.80613 6.90097 2.74862 6.82461H2.75148C2.80055 6.82461 2.8403 6.78491 2.8403 6.73578C2.8403 6.68666 2.8006 6.64696 2.75148 6.64696H2.74862C2.80613 6.5706 2.84026 6.47774 2.84026 6.38047C2.84007 6.2345 2.81213 6.116 2.78973 6.02094ZM1.88832 5.64238C1.85677 5.54769 1.86779 5.49374 1.8886 5.4748C1.9022 5.46196 1.92282 5.46247 1.9359 5.46838C1.95193 5.47546 1.95193 5.48675 1.95193 5.49233C1.95193 5.54141 1.99163 5.58116 2.04076 5.58116C2.08984 5.58116 2.12959 5.54146 2.12959 5.49233C2.12959 5.4868 2.12959 5.4755 2.14562 5.46838C2.15846 5.46247 2.17895 5.46196 2.19291 5.4748C2.21377 5.49374 2.22479 5.54769 2.1932 5.64238C2.17023 5.71105 2.08712 5.88983 2.0408 5.98686C1.99543 5.89208 1.91143 5.71152 1.88832 5.64238ZM2.04071 9.30735C2.06621 9.34199 2.09504 9.37424 2.1301 9.40049C2.09504 9.42678 2.06621 9.45899 2.04071 9.49363C2.01521 9.45899 1.98638 9.42674 1.95132 9.40049C1.98638 9.37414 2.01521 9.34199 2.04071 9.30735ZM2.04071 14.6366C2.06621 14.6712 2.09504 14.7035 2.1301 14.7297C2.09504 14.756 2.06621 14.7882 2.04071 14.8228C2.01521 14.7882 1.98638 14.756 1.95132 14.7297C1.98638 14.7035 2.01521 14.6713 2.04071 14.6366ZM2.1931 18.4879C2.22465 18.5826 2.21363 18.6365 2.19282 18.6555C2.17885 18.6681 2.15837 18.6676 2.14552 18.6619C2.12949 18.6548 2.12949 18.6435 2.12949 18.638C2.12949 18.5889 2.08979 18.5491 2.04066 18.5491C1.99154 18.5491 1.95184 18.5888 1.95184 18.638C1.95184 18.6435 1.95184 18.6548 1.9358 18.6619C1.92277 18.6676 1.90215 18.6682 1.88851 18.6555C1.86765 18.6365 1.85668 18.5826 1.88823 18.4879C1.9112 18.4192 1.9943 18.2405 2.04062 18.1434C2.08595 18.2382 2.16995 18.4187 2.1931 18.4879ZM2.12926 17.3944C2.09565 17.4206 2.06584 17.4519 2.04071 17.4873C2.01563 17.4519 1.98577 17.4206 1.95216 17.3944C1.98577 17.3683 2.01559 17.3369 2.04071 17.3015C2.06579 17.3369 2.09555 17.3683 2.12926 17.3944ZM2.6056 15.3716L2.04066 16.6427L1.47573 15.3716C1.43855 15.288 1.41891 15.1955 1.41891 15.1041C1.41891 14.9762 1.49307 14.8643 1.59934 14.8319C1.68563 14.8052 1.77474 14.8196 1.84355 14.8706C1.91237 14.9215 1.95184 14.9997 1.95184 15.0851C1.95184 15.1919 1.8833 15.2273 1.85382 15.2375C1.80802 15.2535 1.76448 15.2443 1.75051 15.2264C1.7386 15.2113 1.73987 15.17 1.78243 15.1031C1.80882 15.0618 1.79677 15.0068 1.75538 14.9804C1.7139 14.9544 1.6592 14.9666 1.63276 15.0077C1.51932 15.1856 1.57984 15.2969 1.61115 15.3366C1.67546 15.4178 1.79645 15.4458 1.91213 15.4053C1.9253 15.4007 1.93866 15.3951 1.95184 15.3883V15.613C1.95184 15.6129 1.9517 15.6128 1.9517 15.6128C1.94902 15.5661 1.9103 15.5292 1.86305 15.5292C1.81398 15.5292 1.77423 15.5689 1.77423 15.618C1.77423 15.6759 1.81473 15.7764 1.95188 15.8075V15.9733C1.95188 16.0223 1.99159 16.0621 2.04071 16.0621C2.08979 16.0621 2.12954 16.0224 2.12954 15.9733V15.8075C2.26665 15.7764 2.3072 15.6759 2.3072 15.618C2.3072 15.5689 2.26759 15.5263 2.21855 15.5263C2.16948 15.5263 2.12991 15.563 2.12991 15.6121C2.12987 15.6123 2.12959 15.6125 2.12954 15.6126V15.3884C2.14271 15.3951 2.15607 15.4008 2.16924 15.4054C2.28493 15.4458 2.40587 15.4179 2.47023 15.3367C2.50154 15.297 2.5621 15.1857 2.44862 15.0078C2.42223 14.9665 2.36743 14.9544 2.32599 14.9805C2.2846 15.0069 2.27255 15.0619 2.29895 15.1032C2.34151 15.1701 2.34277 15.2114 2.33087 15.2265C2.3168 15.2444 2.2733 15.2536 2.22755 15.2376C2.19807 15.2274 2.12954 15.192 2.12954 15.0852C2.12954 14.9998 2.16901 14.9216 2.23782 14.8707C2.30677 14.8197 2.39602 14.8051 2.48204 14.832C2.58826 14.8645 2.66246 14.9764 2.66246 15.1042C2.66246 15.1955 2.64287 15.2881 2.6056 15.3716ZM2.6056 14.0879C2.64277 14.1715 2.66241 14.264 2.66241 14.3554C2.66241 14.4833 2.58826 14.5951 2.48199 14.6276C2.39579 14.6545 2.30659 14.6399 2.23777 14.5889C2.16896 14.538 2.12949 14.4598 2.12949 14.3745C2.12949 14.2676 2.19802 14.2323 2.22751 14.222C2.27321 14.206 2.3168 14.2152 2.33082 14.2331C2.34273 14.2482 2.34146 14.2895 2.2989 14.3565C2.27251 14.3978 2.28455 14.4527 2.32595 14.4791C2.36766 14.5055 2.42241 14.4933 2.44857 14.4518C2.56205 14.274 2.50149 14.1627 2.47018 14.1229C2.40582 14.0417 2.28488 14.0141 2.1692 14.0542C2.15602 14.0588 2.14266 14.0645 2.12949 14.0712V13.8465L2.12963 13.8468C2.1323 13.8934 2.17102 13.9304 2.21827 13.9304C2.26735 13.9304 2.3071 13.8907 2.3071 13.8416C2.3071 13.7836 2.2666 13.6831 2.12945 13.652V13.4863C2.12945 13.4372 2.08974 13.3975 2.04062 13.3975C1.99154 13.3975 1.95179 13.4372 1.95179 13.4863V13.652C1.81468 13.6831 1.77413 13.7836 1.77413 13.8416C1.77413 13.8906 1.81374 13.9333 1.86277 13.9333C1.91185 13.9333 1.95141 13.8965 1.95141 13.8474C1.95146 13.8473 1.95174 13.847 1.95174 13.847L1.95179 14.0711C1.93862 14.0645 1.92526 14.0587 1.91209 14.0542C1.7964 14.0141 1.67541 14.0417 1.6111 14.1229C1.57979 14.1626 1.51923 14.2739 1.63271 14.4518C1.6591 14.4931 1.7139 14.5051 1.75534 14.4791C1.79673 14.4527 1.80877 14.3977 1.78238 14.3564C1.73982 14.2895 1.73855 14.2482 1.75046 14.2331C1.76443 14.2152 1.80798 14.206 1.85377 14.222C1.88326 14.2322 1.95179 14.2676 1.95179 14.3744C1.95179 14.4598 1.91232 14.538 1.84351 14.5888C1.77455 14.6398 1.68549 14.6544 1.59929 14.6275C1.49307 14.5951 1.41887 14.4832 1.41887 14.3554C1.41887 14.2639 1.43846 14.1715 1.47568 14.0878L2.04062 12.8168L2.6056 14.0879ZM2.12926 12.0651C2.09565 12.0913 2.06584 12.1226 2.04071 12.158C2.01563 12.1226 1.98577 12.0913 1.95216 12.0651C1.98577 12.039 2.01559 12.0077 2.04071 11.9723C2.06579 12.0077 2.09555 12.0389 2.12926 12.0651ZM2.6056 10.0424L2.04066 11.3135L1.47573 10.0424C1.43855 9.95877 1.41891 9.86633 1.41891 9.77488C1.41891 9.647 1.49307 9.53516 1.59934 9.50272C1.68563 9.476 1.77474 9.49039 1.84355 9.54139C1.91237 9.59225 1.95184 9.67044 1.95184 9.75585C1.95184 9.86272 1.8833 9.89807 1.85382 9.90833C1.80802 9.92446 1.76448 9.91513 1.75051 9.89722C1.7386 9.88213 1.73987 9.84083 1.78243 9.77385C1.80882 9.73255 1.79677 9.67761 1.75538 9.65122C1.7139 9.62502 1.6592 9.63716 1.63276 9.67841C1.51932 9.85625 1.57984 9.96758 1.61115 10.0073C1.67546 10.0885 1.79645 10.1163 1.91213 10.076C1.9253 10.0714 1.93866 10.0658 1.95184 10.0591V10.2837L1.9517 10.2834C1.94902 10.2368 1.9103 10.1998 1.86305 10.1998C1.81398 10.1998 1.77423 10.2395 1.77423 10.2886C1.77423 10.3466 1.81473 10.4471 1.95188 10.4782V10.6439C1.95188 10.693 1.99159 10.7327 2.04071 10.7327C2.08979 10.7327 2.12954 10.693 2.12954 10.6439V10.4782C2.26665 10.4471 2.3072 10.3466 2.3072 10.2886C2.3072 10.2395 2.26759 10.1968 2.21855 10.1968C2.16948 10.1968 2.12991 10.2336 2.12991 10.2827C2.12987 10.2829 2.12959 10.2831 2.12959 10.2831L2.12954 10.059C2.14271 10.0657 2.15607 10.0714 2.16924 10.076C2.28493 10.1162 2.40587 10.0885 2.47023 10.0073C2.50154 9.96758 2.5621 9.85621 2.44862 9.67836C2.42223 9.63688 2.36743 9.62478 2.32599 9.65117C2.2846 9.67757 2.27255 9.73255 2.29895 9.7738C2.34151 9.84078 2.34277 9.88208 2.33087 9.89717C2.3168 9.91503 2.2733 9.92446 2.22755 9.90828C2.19807 9.89807 2.12954 9.86267 2.12954 9.7558C2.12954 9.67044 2.16901 9.59221 2.23782 9.54135C2.30677 9.49035 2.39602 9.47596 2.48204 9.50268C2.58826 9.53511 2.66246 9.647 2.66246 9.77483C2.66246 9.86628 2.64287 9.95872 2.6056 10.0424ZM2.6056 8.75858C2.64277 8.84221 2.66241 8.93464 2.66241 9.0261C2.66241 9.15397 2.58826 9.26582 2.48199 9.29825C2.39579 9.32516 2.30659 9.31058 2.23777 9.25958C2.16896 9.20872 2.12949 9.13053 2.12949 9.04513C2.12949 8.93825 2.19802 8.90291 2.22751 8.89264C2.27321 8.87666 2.3168 8.88585 2.33082 8.90375C2.34273 8.91885 2.34146 8.96014 2.2989 9.02713C2.27251 9.06842 2.28455 9.12341 2.32595 9.14975C2.36766 9.17596 2.42241 9.16396 2.44857 9.12252C2.56205 8.94467 2.50149 8.83335 2.47018 8.7936C2.40582 8.71241 2.28488 8.68466 2.1692 8.72493C2.15602 8.72947 2.14266 8.73514 2.12949 8.74185V8.51722C2.12949 8.51727 2.12963 8.51736 2.12963 8.51736C2.1323 8.56414 2.17102 8.60103 2.21827 8.60103C2.26735 8.60103 2.3071 8.56133 2.3071 8.51221C2.3071 8.45427 2.2666 8.35377 2.12945 8.32264V8.15694C2.12945 8.10786 2.08974 8.06811 2.04062 8.06811C1.99154 8.06811 1.95179 8.10782 1.95179 8.15694V8.32264C1.81468 8.35377 1.77413 8.45427 1.77413 8.51221C1.77413 8.56128 1.81374 8.60399 1.86277 8.60399C1.91185 8.60399 1.95141 8.56719 1.95141 8.51811C1.95146 8.51797 1.95174 8.51774 1.95179 8.5176V8.7418C1.93862 8.7351 1.92526 8.72942 1.91209 8.72488C1.7964 8.68466 1.67541 8.71236 1.6111 8.79355C1.57979 8.83325 1.51923 8.94463 1.63271 9.12247C1.6591 9.16377 1.7139 9.17577 1.75534 9.14971C1.79673 9.12332 1.80877 9.06833 1.78238 9.02708C1.73982 8.9601 1.73855 8.9188 1.75046 8.90371C1.76443 8.88585 1.80798 8.87666 1.85377 8.8926C1.88326 8.90282 1.95179 8.93821 1.95179 9.04508C1.95179 9.13044 1.91232 9.20867 1.84351 9.25953C1.77455 9.31053 1.68549 9.32511 1.59929 9.29821C1.49307 9.26577 1.41887 9.15388 1.41887 9.02605C1.41887 8.9346 1.43846 8.84216 1.47568 8.75853L2.04062 7.48747L2.6056 8.75858ZM1.95212 6.73588C1.98573 6.70972 2.01554 6.67841 2.04066 6.64302C2.06574 6.67841 2.09555 6.70967 2.12921 6.73588C2.0956 6.76203 2.06579 6.79335 2.04066 6.82874C2.01559 6.79325 1.98582 6.76194 1.95212 6.73588Z" fill="#FFE15A"/>
<path d="M12.691 13.1548C13.8717 13.1548 14.8288 12.1977 14.8288 11.017C14.8288 9.83633 13.8717 8.87921 12.691 8.87921C11.5103 8.87921 10.5532 9.83633 10.5532 11.017C10.5532 12.1977 11.5103 13.1548 12.691 13.1548Z" fill="#FFE15A"/>
<path d="M12.8515 8.29133C12.8515 8.37988 12.7797 8.45169 12.6911 8.45169C12.6026 8.45169 12.5308 8.37988 12.5308 8.29133C12.5308 8.20279 12.6911 7.8103 12.6911 7.8103C12.6911 7.8103 12.8515 8.20279 12.8515 8.29133Z" fill="#FFE15A"/>
<path d="M12.5308 13.743C12.5308 13.6545 12.6026 13.5826 12.6911 13.5826C12.7797 13.5826 12.8515 13.6545 12.8515 13.743C12.8515 13.8315 12.6911 14.224 12.6911 14.224C12.6911 14.224 12.5308 13.8316 12.5308 13.743Z" fill="#FFE15A"/>
<path d="M15.4167 11.1775C15.3282 11.1775 15.2563 11.1057 15.2563 11.0171C15.2563 10.9286 15.3282 10.8568 15.4167 10.8568C15.5053 10.8568 15.8977 11.0171 15.8977 11.0171C15.8977 11.0171 15.5053 11.1775 15.4167 11.1775Z" fill="#FFE15A"/>
<path d="M9.96541 10.8568C10.054 10.8568 10.1258 10.9286 10.1258 11.0172C10.1258 11.1057 10.054 11.1775 9.96541 11.1775C9.87686 11.1775 9.48438 11.0172 9.48438 11.0172C9.48438 11.0172 9.87686 10.8568 9.96541 10.8568Z" fill="#FFE15A"/>
<path d="M14.7322 9.20314C14.6696 9.26576 14.5681 9.26576 14.5055 9.20314C14.4428 9.14051 14.4428 9.03898 14.5055 8.97635C14.5681 8.91378 14.959 8.74957 14.959 8.74957C14.959 8.74957 14.7949 9.14051 14.7322 9.20314Z" fill="#FFE15A"/>
<path d="M10.6501 12.8312C10.7127 12.7686 10.8142 12.7686 10.8769 12.8312C10.9395 12.8938 10.9395 12.9953 10.8769 13.058C10.8142 13.1207 10.4233 13.2847 10.4233 13.2847C10.4233 13.2847 10.5874 12.8938 10.6501 12.8312Z" fill="#FFE15A"/>
<path d="M14.505 13.0581C14.4424 12.9954 14.4424 12.894 14.505 12.8313C14.5676 12.7686 14.6691 12.7687 14.7318 12.8313C14.7944 12.8939 14.9585 13.2848 14.9585 13.2848C14.9585 13.2848 14.5676 13.1207 14.505 13.0581Z" fill="#FFE15A"/>
<path d="M10.8769 8.97637C10.9395 9.03899 10.9395 9.14047 10.8769 9.20314C10.8143 9.26582 10.7128 9.26577 10.6501 9.20314C10.5874 9.14052 10.4233 8.74963 10.4233 8.74963C10.4233 8.74963 10.8143 8.91379 10.8769 8.97637Z" fill="#FFE15A"/>
<path d="M11.7961 8.43743C11.83 8.51928 11.7912 8.61303 11.7093 8.64692C11.6275 8.68081 11.5337 8.64195 11.4998 8.56011C11.4659 8.47826 11.4639 8.05432 11.4639 8.05432C11.4639 8.05432 11.7622 8.35559 11.7961 8.43743Z" fill="#FFE15A"/>
<path d="M13.5865 13.5969C13.5526 13.5151 13.5914 13.4213 13.6733 13.3874C13.7551 13.3535 13.8489 13.3924 13.8828 13.4742C13.9167 13.5561 13.9187 13.98 13.9187 13.98C13.9187 13.98 13.6203 13.6788 13.5865 13.5969Z" fill="#FFE15A"/>
<path d="M15.2711 10.1222C15.1892 10.1561 15.0955 10.1173 15.0616 10.0354C15.0277 9.95357 15.0665 9.85982 15.1484 9.82593C15.2302 9.79204 15.6541 9.78998 15.6541 9.78998C15.6541 9.78998 15.3529 10.0883 15.2711 10.1222Z" fill="#FFE15A"/>
<path d="M10.1111 11.9121C10.193 11.8783 10.2867 11.9171 10.3206 11.999C10.3545 12.0808 10.3157 12.1746 10.2338 12.2085C10.152 12.2423 9.72803 12.2444 9.72803 12.2444C9.72803 12.2444 10.0293 11.9461 10.1111 11.9121Z" fill="#FFE15A"/>
<path d="M13.8822 8.56018C13.8484 8.64202 13.7546 8.68083 13.6728 8.64699C13.5909 8.6131 13.5521 8.5193 13.586 8.43751C13.6198 8.35566 13.9181 8.05444 13.9181 8.05444C13.9181 8.05444 13.9161 8.47838 13.8822 8.56018Z" fill="#FFE15A"/>
<path d="M11.4998 13.4743C11.5337 13.3924 11.6275 13.3536 11.7093 13.3875C11.7911 13.4214 11.8299 13.5152 11.7961 13.597C11.7622 13.6788 11.4639 13.98 11.4639 13.98C11.4639 13.98 11.4659 13.556 11.4998 13.4743Z" fill="#FFE15A"/>
<path d="M15.1484 12.2084C15.0665 12.1745 15.0277 12.0807 15.0615 11.9989C15.0954 11.9171 15.1892 11.8783 15.271 11.9121C15.3529 11.946 15.6541 12.2443 15.6541 12.2443C15.6541 12.2443 15.2302 12.2424 15.1484 12.2084Z" fill="#FFE15A"/>
<path d="M10.2342 9.82594C10.3161 9.85984 10.3549 9.95363 10.3211 10.0354C10.2872 10.1173 10.1934 10.1561 10.1116 10.1222C10.0297 10.0884 9.72852 9.79004 9.72852 9.79004C9.72852 9.79004 10.1525 9.79201 10.2342 9.82594Z" fill="#FFE15A"/>
<path d="M12.317 8.31236C12.3343 8.39921 12.2778 8.48364 12.191 8.50089C12.1041 8.51818 12.0197 8.46175 12.0024 8.37489C11.9851 8.28803 12.0659 7.87183 12.0659 7.87183C12.0659 7.87183 12.2997 8.2255 12.317 8.31236Z" fill="#FFE15A"/>
<path d="M13.0656 13.722C13.0483 13.6351 13.1048 13.5507 13.1916 13.5335C13.2785 13.5162 13.3629 13.5726 13.3802 13.6595C13.3975 13.7463 13.3167 14.1625 13.3167 14.1625C13.3167 14.1625 13.0829 13.8089 13.0656 13.722Z" fill="#FFE15A"/>
<path d="M15.3962 10.6426C15.3094 10.6599 15.225 10.6035 15.2077 10.5166C15.1904 10.4298 15.2468 10.3454 15.3337 10.3281C15.4206 10.3108 15.8368 10.3915 15.8368 10.3915C15.8368 10.3915 15.4831 10.6253 15.3962 10.6426Z" fill="#FFE15A"/>
<path d="M9.98643 11.3917C10.0733 11.3744 10.1577 11.4308 10.175 11.5177C10.1923 11.6046 10.1358 11.689 10.049 11.7063C9.9621 11.7235 9.5459 11.6428 9.5459 11.6428C9.5459 11.6428 9.89957 11.409 9.98643 11.3917Z" fill="#FFE15A"/>
<path d="M14.3391 8.8398C14.2899 8.91345 14.1903 8.93323 14.1167 8.88401C14.043 8.83484 14.0233 8.73523 14.0725 8.66159C14.1216 8.58799 14.473 8.35071 14.473 8.35071C14.473 8.35071 14.3883 8.76612 14.3391 8.8398Z" fill="#FFE15A"/>
<path d="M11.0436 13.1945C11.0928 13.1209 11.1924 13.1011 11.266 13.1503C11.3397 13.1995 11.3594 13.2991 11.3102 13.3727C11.261 13.4463 10.9097 13.6836 10.9097 13.6836C10.9097 13.6836 10.9944 13.2682 11.0436 13.1945Z" fill="#FFE15A"/>
<path d="M14.8686 12.665C14.795 12.6158 14.7752 12.5162 14.8244 12.4425C14.8736 12.3689 14.9732 12.3491 15.0468 12.3983C15.1205 12.4475 15.3577 12.7989 15.3577 12.7989C15.3577 12.7989 14.9423 12.7141 14.8686 12.665Z" fill="#FFE15A"/>
<path d="M10.5135 9.36946C10.5871 9.41863 10.607 9.51824 10.5577 9.59188C10.5085 9.66552 10.4089 9.68531 10.3353 9.63609C10.2616 9.58687 10.0244 9.23553 10.0244 9.23553C10.0244 9.23553 10.4399 9.32029 10.5135 9.36946Z" fill="#FFE15A"/>
<path d="M11.3102 8.6616C11.3594 8.73524 11.3396 8.83481 11.266 8.88403C11.1924 8.9332 11.0928 8.91342 11.0436 8.83982C10.9944 8.76618 10.9097 8.35077 10.9097 8.35077C10.9097 8.35077 11.261 8.58805 11.3102 8.6616Z" fill="#FFE15A"/>
<path d="M14.0724 13.3728C14.0233 13.2992 14.043 13.1996 14.1166 13.1504C14.1903 13.1012 14.2898 13.121 14.3391 13.1946C14.3882 13.2682 14.473 13.6836 14.473 13.6836C14.473 13.6836 14.1217 13.4464 14.0724 13.3728Z" fill="#FFE15A"/>
<path d="M15.0468 9.63609C14.9732 9.68526 14.8736 9.66548 14.8244 9.59188C14.7752 9.51824 14.795 9.41868 14.8686 9.36946C14.9422 9.32029 15.3576 9.23553 15.3576 9.23553C15.3576 9.23553 15.1205 9.58692 15.0468 9.63609Z" fill="#FFE15A"/>
<path d="M10.3357 12.3982C10.4093 12.3491 10.5089 12.3689 10.5582 12.4424C10.6073 12.5161 10.5875 12.6156 10.514 12.6649C10.4403 12.714 10.0249 12.7988 10.0249 12.7988C10.0249 12.7988 10.2621 12.4475 10.3357 12.3982Z" fill="#FFE15A"/>
<path d="M13.3801 8.37496C13.3628 8.46182 13.2785 8.51826 13.1916 8.50096C13.1048 8.48366 13.0483 8.39929 13.0656 8.31243C13.0829 8.22557 13.3167 7.87195 13.3167 7.87195C13.3167 7.87195 13.3974 8.28806 13.3801 8.37496Z" fill="#FFE15A"/>
<path d="M12.0019 13.6595C12.0192 13.5726 12.1036 13.5162 12.1905 13.5335C12.2773 13.5507 12.3338 13.6351 12.3165 13.722C12.2992 13.8088 12.0654 14.1625 12.0654 14.1625C12.0654 14.1625 11.9847 13.7464 12.0019 13.6595Z" fill="#FFE15A"/>
<path d="M15.3337 11.7063C15.2468 11.689 15.1904 11.6046 15.2077 11.5177C15.225 11.4309 15.3094 11.3744 15.3962 11.3917C15.4831 11.409 15.8368 11.6428 15.8368 11.6428C15.8368 11.6428 15.4206 11.7235 15.3337 11.7063Z" fill="#FFE15A"/>
<path d="M10.049 10.3281C10.1358 10.3454 10.1923 10.4298 10.175 10.5166C10.1577 10.6035 10.0733 10.6599 9.98643 10.6426C9.89957 10.6253 9.5459 10.3915 9.5459 10.3915C9.5459 10.3915 9.9621 10.3109 10.049 10.3281Z" fill="#FFE15A"/>
<path d="M17.72 11.5796C17.6574 11.5533 17.5858 11.5834 17.5597 11.6457C17.5597 11.646 17.5597 11.646 17.5597 11.646C17.5593 11.6471 17.5568 11.6529 17.5527 11.6628C17.46 11.8792 17.2683 12.1956 17.0747 12.4932C17.255 11.9127 17.4198 11.2928 17.4313 11.2492C17.4486 11.1841 17.41 11.1172 17.345 11.0996C17.2799 11.0821 17.213 11.1199 17.1947 11.1848C17.1106 11.4863 16.9385 11.8831 16.7797 12.219C16.8088 11.8444 16.8143 11.4975 16.8147 11.4724C16.8156 11.406 16.7637 11.3512 16.6973 11.348C16.6349 11.35 16.5748 11.3955 16.5698 11.4618C16.4128 13.6212 14.3349 14.5872 14.1326 14.6761C14.0267 14.6866 13.5336 14.7422 13.0861 14.8976C13.0353 14.9152 12.9922 14.9329 12.9492 14.9504C12.9332 14.9444 12.916 14.941 12.898 14.9421C11.5244 15.0415 10.4293 14.478 9.64214 13.2709C9.04744 12.3588 8.86092 11.4014 8.85909 11.3919C8.84653 11.3253 8.78278 11.2824 8.71594 11.2942C8.64937 11.3068 8.60564 11.3708 8.61825 11.4373C8.62322 11.4638 8.70506 11.8817 8.93044 12.4316C8.62889 11.9556 8.41875 11.379 8.34478 11.0786C8.34328 11.0726 8.33944 11.0681 8.33719 11.0626C8.33377 11.0541 8.33081 11.0456 8.3257 11.0382C8.32209 11.033 8.31736 11.0292 8.31309 11.0246C8.30639 11.0176 8.29997 11.0106 8.29177 11.0053C8.28708 11.0023 8.28183 11.0008 8.27672 10.9984C8.26767 10.9942 8.25881 10.99 8.24873 10.9882C8.24175 10.9868 8.23463 10.9877 8.22736 10.9876C8.22 10.9875 8.21306 10.9856 8.20556 10.9869C8.20392 10.9872 8.20266 10.9883 8.20102 10.9887C8.19942 10.989 8.19792 10.9885 8.19633 10.9888C8.18977 10.9904 8.18475 10.9946 8.17875 10.9971C8.17111 11.0005 8.16328 11.0029 8.15658 11.0076C8.14997 11.0121 8.14505 11.018 8.13956 11.0237C8.13408 11.0293 8.12836 11.0343 8.12405 11.0408C8.11969 11.0474 8.11734 11.0549 8.11425 11.0622C8.1113 11.0694 8.10788 11.0762 8.10633 11.0839C8.10474 11.0918 8.10544 11.1 8.10549 11.1083C8.10549 11.1149 8.10366 11.1212 8.10483 11.128C8.1053 11.1308 8.10623 11.1338 8.10675 11.1366V11.1371C8.10689 11.1376 8.10708 11.1383 8.10722 11.1388C8.18306 11.5857 8.36381 12.0489 8.52727 12.4022C8.26772 12.1076 8.05083 11.7683 7.97395 11.5674C7.97175 11.5615 7.9673 11.5574 7.9643 11.5522C7.95975 11.5441 7.95577 11.5358 7.94963 11.5291C7.94527 11.5243 7.93997 11.5212 7.935 11.5172C7.92755 11.5112 7.92047 11.5052 7.91184 11.501C7.90631 11.4984 7.90031 11.4976 7.89445 11.4957C7.88541 11.493 7.87664 11.49 7.86703 11.4894C7.85949 11.4889 7.85199 11.4908 7.84434 11.4918C7.83727 11.4927 7.83028 11.4918 7.82325 11.494C7.82189 11.4944 7.82095 11.4955 7.81969 11.496C7.81838 11.4964 7.81706 11.4961 7.81575 11.4966C7.80909 11.4992 7.80436 11.5041 7.79841 11.5076C7.79142 11.5117 7.78397 11.5151 7.77802 11.5205C7.77192 11.526 7.7677 11.5328 7.76292 11.5393C7.75838 11.5454 7.75331 11.5509 7.74994 11.5578C7.74642 11.5649 7.74511 11.5727 7.74309 11.5804C7.74108 11.588 7.73841 11.595 7.73789 11.6029C7.73733 11.6109 7.7393 11.6188 7.74033 11.6268C7.74122 11.6337 7.74028 11.6406 7.74244 11.6475C7.87585 12.0778 8.19666 12.5898 8.448 12.9504C8.23856 12.789 8.08463 12.6145 8.03995 12.5618C8.03513 12.5561 8.03039 12.5503 8.02556 12.5446C7.98234 12.4926 7.90594 12.4852 7.85363 12.5276C7.80145 12.5702 7.79325 12.6469 7.83544 12.6992C7.83774 12.7021 7.84692 12.7136 7.86225 12.7316C8.04619 12.9505 8.24658 13.1547 8.42813 13.3271L8.17978 13.2213C8.12316 13.1968 8.05659 13.2189 8.02556 13.2727C7.99458 13.3266 8.00855 13.3948 8.05824 13.4322C8.08238 13.4501 8.5222 13.7787 8.90292 13.9729C8.86702 13.975 8.82487 13.9724 8.77772 13.9688C8.72016 13.9632 8.66353 14.0044 8.64952 14.0629C8.63573 14.1215 8.66639 14.1814 8.72208 14.2044C8.73145 14.2082 8.84747 14.2561 8.99072 14.3071C8.9573 14.3207 8.93072 14.3487 8.9197 14.3851C8.9032 14.4395 8.92641 14.4984 8.97572 14.5266C8.98856 14.5341 9.16191 14.6335 9.37631 14.7215C9.37059 14.7304 9.36591 14.74 9.36244 14.7505C9.34566 14.802 9.36483 14.8585 9.4095 14.8894C9.44672 14.915 10.2795 15.4801 11.252 15.4801C11.3159 15.4801 11.3804 15.4777 11.4452 15.4725C11.5126 15.4672 11.5631 15.4081 11.5577 15.3405C11.5523 15.273 11.4937 15.222 11.4256 15.2282C10.8147 15.278 10.2261 15.0486 9.876 14.8733C9.92222 14.862 9.94879 14.8518 9.9554 14.8491C10.0094 14.8271 10.0405 14.7703 10.03 14.7131C10.0194 14.6558 9.97012 14.614 9.91181 14.6127C9.76969 14.6098 9.57286 14.5406 9.40331 14.4664C9.46734 14.4343 9.50475 14.4036 9.50803 14.401C9.54492 14.3701 9.56048 14.3208 9.54792 14.2744C9.53526 14.2282 9.49664 14.1934 9.4493 14.1858C9.39722 14.1771 9.33234 14.1604 9.26433 14.1398C9.33042 14.1017 9.35855 14.0598 9.36933 14.0385C9.38634 14.0045 9.38672 13.9647 9.37041 13.9305C9.354 13.8963 9.32278 13.8716 9.28561 13.8636C9.25355 13.8567 9.21722 13.845 9.17798 13.8296C9.18516 13.8225 9.19176 13.8143 9.19711 13.805C9.22833 13.7521 9.21544 13.6841 9.16697 13.646C9.16444 13.6441 9.06928 13.5694 8.92519 13.4451C8.94806 13.4367 8.96827 13.4211 8.98289 13.4001C9.01378 13.3556 9.01158 13.2959 8.97773 13.2537C8.97502 13.2504 8.87972 13.1306 8.74837 12.9486C8.79173 12.9822 8.83505 13.0166 8.87836 13.0445C8.89875 13.0574 8.92181 13.0639 8.94469 13.0639C8.97572 13.0639 9.00633 13.0522 9.02991 13.0294C9.03961 13.02 9.0472 13.0092 9.0532 12.9978C9.12759 13.0772 9.20573 13.1494 9.28781 13.2109C9.2985 13.2189 9.31148 13.2188 9.32348 13.2228C9.35826 13.2811 9.39445 13.3395 9.43242 13.3979C10.1769 14.5435 11.2267 15.1571 12.4858 15.1939C12.3698 15.2643 12.244 15.3371 12.0447 15.4147C12.0012 15.4316 11.9628 15.4486 11.9242 15.4656C11.9055 15.4693 11.888 15.476 11.8733 15.4876C11.5255 15.6486 11.3815 15.8077 11.3231 15.919C11.2648 16.0296 11.3151 16.1431 11.3863 16.202C11.4084 16.2202 11.4366 16.2296 11.4649 16.2296C11.4843 16.2296 11.5037 16.2252 11.5213 16.2164C11.5646 16.1948 11.5936 16.1491 11.5917 16.101C11.5967 16.0954 11.618 16.0778 11.6848 16.0756C11.7335 16.0715 11.836 16.0825 11.9557 16.0921C12.0695 16.1015 12.206 16.1121 12.3511 16.1196C12.2603 16.2254 12.1548 16.3481 12.1548 16.3481C12.1231 16.385 12.1161 16.4372 12.1372 16.481C12.1584 16.5251 12.204 16.5524 12.2519 16.5506C12.3488 16.5473 12.4146 16.5454 12.4578 16.5445C12.4955 16.5938 12.5418 16.6134 12.5715 16.6211C12.6559 16.6426 12.7399 16.6089 12.8032 16.5689C12.8511 16.6034 12.899 16.618 12.937 16.6234C13.0226 16.6352 13.1019 16.6103 13.1592 16.582C13.2186 16.6204 13.2767 16.6301 13.3211 16.6301C13.3217 16.6301 13.3224 16.6301 13.3231 16.6301C13.4187 16.6297 13.5024 16.5835 13.5617 16.5382C13.614 16.5693 13.6641 16.5793 13.7027 16.5811C13.7905 16.5842 13.8633 16.5504 13.9116 16.5188C14.0844 16.5535 14.2334 16.4721 14.3318 16.3823C14.3767 16.4084 14.4194 16.4149 14.4534 16.4132C14.5409 16.4101 14.6076 16.3569 14.6504 16.3092C14.8463 16.3329 14.9869 16.2968 15.0681 16.2003C15.1124 16.1479 15.1304 16.0887 15.1353 16.0348C15.6787 16.0317 15.7279 15.735 15.7319 15.6984C15.7355 15.6651 15.7253 15.6318 15.7037 15.6062C15.6821 15.5806 15.6508 15.5648 15.6175 15.5629L14.1927 15.4772C14.133 15.4729 14.0798 15.5128 14.066 15.5711C14.0657 15.572 14.0415 15.6625 13.9655 15.7349C13.8632 15.8325 13.6985 15.8841 13.5194 15.9114C13.5201 15.895 13.5178 15.8783 13.5115 15.862C13.4871 15.7988 13.4159 15.7681 13.3529 15.7918C13.0588 15.906 12.5826 15.8916 12.21 15.8657C12.2671 15.819 12.3359 15.7728 12.3909 15.7426C12.4374 15.717 12.4623 15.6645 12.4525 15.6123C12.4454 15.5744 12.4179 15.548 12.3849 15.531C12.4885 15.4787 12.5734 15.4282 12.654 15.3791C12.7939 15.2934 12.926 15.2126 13.1667 15.1291C13.6312 14.9677 14.1688 14.9186 14.1742 14.9181C14.1864 14.9171 14.1984 14.914 14.2098 14.9095C14.2289 14.9015 15.7453 14.2663 16.4597 12.8005C16.4503 12.8448 16.4403 12.8853 16.4294 12.9207C16.4107 12.9811 16.4409 13.0455 16.4991 13.0699C16.5441 13.0888 16.5952 13.0789 16.6298 13.0469C16.5847 13.1659 16.5439 13.2595 16.5105 13.3148C16.4766 13.3711 16.493 13.4441 16.5477 13.4805C16.5605 13.4889 16.5742 13.4946 16.5883 13.498C16.533 13.579 16.477 13.6556 16.4211 13.7258C16.3838 13.7725 16.386 13.8391 16.4249 13.8831C16.3288 13.9837 16.2438 14.0666 16.1791 14.1192C16.1368 14.1535 16.1231 14.2107 16.1425 14.2596C16.0801 14.2953 16.0288 14.3204 15.9933 14.3312C15.9337 14.3491 15.8971 14.4092 15.9083 14.4705C15.9142 14.5029 15.9324 14.5301 15.9575 14.5481C15.8826 14.5682 15.8005 14.5876 15.7115 14.6053C15.6613 14.6153 15.6226 14.6553 15.6144 14.7058C15.6062 14.7564 15.6302 14.8067 15.6746 14.832C15.6784 14.8342 15.7203 14.8579 15.7844 14.8852C15.5473 14.9807 15.1237 15.1055 14.4288 15.174C14.3615 15.1807 14.3122 15.2408 14.3189 15.3081C14.3255 15.3754 14.3837 15.4221 14.453 15.4182C15.7721 15.2877 16.1795 14.9576 16.1961 14.9434C16.2342 14.9115 16.2493 14.8595 16.2342 14.8121C16.2241 14.7807 16.2021 14.7554 16.1738 14.7408C16.5952 14.6081 16.7762 14.4613 16.7856 14.4534C16.8318 14.4151 16.8434 14.3488 16.813 14.2968C16.7824 14.2448 16.7186 14.2223 16.6629 14.2448C16.6472 14.2508 16.6222 14.257 16.5906 14.2632C16.8734 14.0696 17.1736 13.8389 17.3057 13.7359C17.3289 13.7187 17.35 13.7021 17.3685 13.6866C17.4198 13.6435 17.427 13.5674 17.3847 13.5154C17.3427 13.4637 17.2662 13.455 17.2138 13.4965C17.1946 13.5116 17.1747 13.5271 17.1541 13.5431C17.0932 13.5884 17.0152 13.6397 16.9302 13.6923C17.2512 13.3279 17.5743 12.9327 17.6667 12.8193C17.675 12.8089 17.6833 12.7987 17.6917 12.7884C17.7341 12.7357 17.7258 12.6586 17.6731 12.6162C17.6203 12.5731 17.5431 12.582 17.5008 12.6344L17.5005 12.6346L17.5004 12.6349C17.4981 12.6375 17.4878 12.6505 17.4703 12.672C17.3736 12.7901 17.2718 12.9043 17.1713 13.0111C17.4983 12.4184 17.7459 11.8351 17.7822 11.7486C17.7835 11.7455 17.7847 11.7424 17.786 11.7393C17.8121 11.6773 17.7826 11.6055 17.72 11.5796ZM11.9737 15.7125L12.0071 15.7168C11.9661 15.7552 11.9327 15.7983 11.9061 15.8427C11.8479 15.838 11.7951 15.834 11.7537 15.8321C11.8107 15.7947 11.8841 15.7543 11.9737 15.7125Z" fill="#FFE15A"/>
</svg>
