<svg width="22" height="22" viewBox="0 0 22 22" fill="none" xmlns="http://www.w3.org/2000/svg">
<g clip-path="url(#clip0)">
<path d="M21.9999 8.63448V4.61299C21.9999 4.22103 21.6822 3.90332 21.2902 3.90332H0.709576L0.329346 4.61299V8.63448L1.06428 9.58074H20.9354L21.9999 8.63448Z" fill="#E5646E"/>
<path d="M0 4.61299V8.63447L0.709672 9.26538V3.90332C0.317754 3.90332 0 4.22103 0 4.61299Z" fill="#DB4655"/>
<path d="M0.335938 13.3657V17.0795C0.335938 17.4714 0.653691 17.7892 1.04561 17.7892H21.2904L22.0001 17.3872V13.3657L20.9357 12.4194H1.06456L0.335938 13.3657Z" fill="#5055A0"/>
<path d="M0.709672 15.2582V12.7349L0 13.3657V17.3872C0 17.7791 0.317754 18.0968 0.709672 18.0968H21.2903C21.6822 18.0968 22 17.7791 22 17.3872H2.83873C1.66289 17.3872 0.709672 16.434 0.709672 15.2582Z" fill="#3F3F8F"/>
<path d="M0.372314 12.7619L0.709576 13.3657H21.9999V8.63452H0.709576L0.372314 9.38162V12.7619Z" fill="#F2F2F6"/>
<path d="M0 8.63452H0.709672V13.3657H0V8.63452Z" fill="#E1E1E6"/>
</g>
<defs>
<clipPath id="clip0">
<rect width="22" height="22" fill="white"/>
</clipPath>
</defs>
</svg>
