<svg width="22" height="22" viewBox="0 0 22 22" fill="none" xmlns="http://www.w3.org/2000/svg">
<path d="M22 8.59784H0V4.17254C0 3.96307 0.169855 3.79321 0.379327 3.79321H21.6207C21.8301 3.79321 22 3.96307 22 4.17254L22 8.59784Z" fill="#F5F5F5"/>
<path d="M21.6206 18.2069H0.379327C0.169855 18.2069 0 18.0371 0 17.8276V13.4023H22V17.8276C22 18.0371 21.8301 18.2069 21.6206 18.2069Z" fill="#FF4B55"/>
<path d="M22 8.59766H0V13.402H22V8.59766Z" fill="#41479B"/>
<path d="M7.39136 6.76205C7.39136 6.76205 7.31496 9.19528 6.97353 9.87857C6.55089 10.7184 6.12597 10.9634 5.49377 11.1898C4.86166 10.9634 4.43674 10.7186 4.01402 9.87857C3.67263 9.19524 3.59615 6.76231 3.59619 6.76205C4.80262 6.21734 6.18492 6.21734 7.39136 6.76205Z" fill="#41479B"/>
<path d="M6.04326 10.1363C5.99703 10.1067 5.96369 10.0854 5.8878 10.0854C5.81213 10.0854 5.77879 10.1066 5.73277 10.1363C5.68005 10.1699 5.61448 10.2119 5.49258 10.2119C5.37059 10.2119 5.30502 10.1699 5.2523 10.1362C5.20628 10.1067 5.17302 10.0855 5.09735 10.0855C5.02168 10.0855 4.98843 10.1067 4.94241 10.1362C4.89261 10.1681 4.82966 10.2061 4.72021 10.2104C4.95061 10.4913 5.19214 10.6246 5.49357 10.7403C5.79486 10.6245 6.03635 10.4914 6.26674 10.2104C6.15653 10.2064 6.09324 10.1682 6.04326 10.1363Z" fill="#F5F5F5"/>
<path d="M4.54751 9.68691C4.59353 9.71635 4.6267 9.73753 4.70211 9.73753C4.77778 9.73753 4.81103 9.71635 4.85705 9.68691C4.90978 9.65314 4.97535 9.61116 5.09725 9.61116C5.21915 9.61116 5.28472 9.65318 5.33744 9.68674C5.38346 9.71639 5.41681 9.73762 5.49247 9.73762C5.56814 9.73762 5.6014 9.71643 5.64742 9.687C5.70014 9.65323 5.76571 9.61125 5.8877 9.61125C6.00977 9.61125 6.07547 9.65327 6.1282 9.68683C6.17443 9.71648 6.20765 9.7377 6.28357 9.7377C6.3595 9.7377 6.3928 9.71652 6.43903 9.68683C6.48307 9.65877 6.53838 9.62629 6.62595 9.61589C6.64889 9.55616 6.67119 9.48806 6.69195 9.40534L6.12605 8.46218L5.9152 8.88387L5.49351 8.04053L5.07181 8.88387L4.86096 8.46218L4.29541 9.40478C4.31608 9.48745 4.33834 9.55586 4.36132 9.61597C4.44855 9.62624 4.50359 9.65873 4.54751 9.68691Z" fill="#F5F5F5"/>
<path d="M6.52391 9.82016C6.47119 9.85372 6.40554 9.89574 6.28342 9.89574C6.16143 9.89574 6.09578 9.85372 6.04305 9.82016C5.99682 9.79051 5.96348 9.76929 5.88759 9.76929C5.81193 9.76929 5.77858 9.79047 5.73256 9.82016C5.67984 9.85372 5.61427 9.89574 5.49237 9.89574C5.37038 9.89574 5.30481 9.85372 5.25209 9.81999C5.20607 9.79056 5.17281 9.76937 5.09714 9.76937C5.02148 9.76937 4.98822 9.79056 4.9422 9.81999C4.88948 9.85376 4.82391 9.89574 4.70201 9.89574C4.58019 9.89574 4.51471 9.85372 4.46216 9.81999C4.4619 9.81986 4.46168 9.81969 4.46143 9.81952C4.50276 9.89454 4.54405 9.96342 4.58522 10.0259C4.61598 10.0428 4.64817 10.0539 4.70201 10.0539C4.77767 10.0539 4.81093 10.0327 4.85695 10.0033C4.90967 9.96948 4.97524 9.9275 5.09714 9.9275C5.21905 9.9275 5.28462 9.96952 5.33734 10.0031C5.38336 10.0327 5.4167 10.054 5.49237 10.054C5.56804 10.054 5.60129 10.0328 5.64731 10.0033C5.70004 9.96956 5.76561 9.92758 5.88759 9.92758C6.00967 9.92758 6.07537 9.96961 6.12809 10.0032C6.17432 10.0328 6.20754 10.054 6.28346 10.054C6.33812 10.054 6.37056 10.0428 6.4018 10.0256C6.44292 9.96316 6.48421 9.89428 6.5255 9.81935C6.52495 9.81956 6.52447 9.81986 6.52391 9.82016Z" fill="#F5F5F5"/>
<path d="M5.50246 7.31402L5.53945 7.43493L5.66264 7.40653C5.67098 7.40459 5.67682 7.41469 5.67098 7.42092L5.58479 7.51343L5.67098 7.60595C5.67682 7.61222 5.67102 7.62232 5.66264 7.62034L5.53945 7.59194L5.50246 7.71285C5.49997 7.72106 5.48832 7.72106 5.48583 7.71285L5.44884 7.59194L5.32565 7.62034C5.31731 7.62227 5.31147 7.61218 5.31731 7.60595L5.4035 7.51343L5.31731 7.42092C5.31147 7.41465 5.31727 7.40455 5.32565 7.40653L5.44884 7.43493L5.48583 7.31402C5.48837 7.30581 5.49997 7.30581 5.50246 7.31402Z" fill="#FFE15A"/>
<path d="M4.89602 6.73321L4.93301 6.85412L5.05621 6.82572C5.06454 6.82378 5.07039 6.83388 5.06454 6.84011L4.97835 6.93262L5.06454 7.02514C5.07039 7.03141 5.06459 7.04151 5.05621 7.03953L4.93301 7.01113L4.89602 7.13204C4.89353 7.14025 4.88188 7.14025 4.87939 7.13204L4.84239 7.01113L4.7192 7.03953C4.71087 7.04146 4.70502 7.03137 4.71087 7.02514L4.79706 6.93262L4.71087 6.84011C4.70502 6.83384 4.71082 6.82374 4.7192 6.82572L4.84239 6.85412L4.87939 6.73321C4.88188 6.725 4.89348 6.725 4.89602 6.73321Z" fill="#FFE15A"/>
<path d="M6.11282 6.73321L6.14982 6.85412L6.27301 6.82572C6.28135 6.82378 6.28719 6.83388 6.28135 6.84011L6.19515 6.93262L6.28135 7.02514C6.28719 7.03141 6.28139 7.04151 6.27301 7.03953L6.14982 7.01113L6.11282 7.13204C6.11033 7.14025 6.09868 7.14025 6.09619 7.13204L6.05919 7.01113L5.936 7.03953C5.92766 7.04146 5.92182 7.03137 5.92766 7.02514L6.01386 6.93262L5.92766 6.84011C5.92182 6.83384 5.92762 6.82374 5.936 6.82572L6.05919 6.85412L6.09619 6.73321C6.09872 6.725 6.11033 6.725 6.11282 6.73321Z" fill="#FFE15A"/>
<path d="M7.17283 6.67041C7.17412 6.73766 7.1752 6.8055 7.1752 6.87877C7.14477 7.63949 7.0316 9.2961 6.78496 9.79506C6.42131 10.5254 6.08555 10.7668 5.49353 10.9892C4.90151 10.7668 4.5658 10.5254 4.20241 9.79562C3.95487 9.29477 3.84087 7.60997 3.81178 6.87881C3.81178 6.80546 3.81298 6.73839 3.81402 6.67058C3.74105 6.69916 3.66852 6.72936 3.59668 6.7618C3.60175 6.90953 3.63853 7.87865 3.749 8.73076C3.81131 9.20647 3.89707 9.64488 4.01382 9.87859C4.4365 10.7186 4.86142 10.9635 5.49357 11.1898C6.12577 10.9634 6.55065 10.7185 6.97337 9.87859C7.09016 9.64488 7.17588 9.20647 7.23823 8.73076C7.34866 7.87865 7.3854 6.90953 7.39051 6.7618C7.31854 6.72928 7.24597 6.69898 7.17283 6.67041Z" fill="#FF1722"/>
</svg>
