<svg width="22" height="22" viewBox="0 0 22 22" fill="none" xmlns="http://www.w3.org/2000/svg">
<path d="M20.3524 18.207H1.64764C0.737645 18.207 0 17.4693 0 16.5594V5.44085C0 4.5309 0.737645 3.79321 1.64764 3.79321H20.3524C21.2623 3.79321 22 4.53086 22 5.44085V16.5594C22 17.4693 21.2624 18.207 20.3524 18.207Z" fill="#FF4B55"/>
<path d="M15.1724 9.48274H12.5173V6.82757C12.5173 6.6181 12.3474 6.44824 12.1379 6.44824H9.86206C9.65259 6.44824 9.48273 6.6181 9.48273 6.82757V9.48274H6.82757C6.6181 9.48274 6.44824 9.65259 6.44824 9.86207V12.1379C6.44824 12.3474 6.6181 12.5173 6.82757 12.5173H9.48273V15.1724C9.48273 15.3819 9.65259 15.5518 9.86206 15.5518H12.1379C12.3474 15.5518 12.5173 15.3819 12.5173 15.1724V12.5172H15.1724C15.3819 12.5172 15.5518 12.3473 15.5518 12.1379V9.86198C15.5518 9.65255 15.3819 9.48274 15.1724 9.48274Z" fill="#F5F5F5"/>
</svg>
